<?xml version="1.0" encoding="UTF-8" standalone="no"?>
<!-- Created with Inkscape (http://www.inkscape.org/) -->

<svg
   xmlns:svg="http://www.w3.org/2000/svg"
   xmlns="http://www.w3.org/2000/svg"
   version="1.0"
   width="100%"
   height="100%"
   viewBox="0 0 462.674 463.905"
   id="Layer_1"
   xml:space="preserve"><defs
   id="defs7" />
   <title>Athene noctua - little owl silhouette</title>
<path
   d="m 140.255,192.747 c 2.897,-4.345 5.502,-9.993 9.139,-13.708 3.396,-3.468 8.951,-4.747 12.445,-8.121 7.231,-6.982 10.453,-18.689 12.373,-28.151 4.131,-20.36 5.871,-41.014 12.598,-60.806 1.678,-4.936 3.099,-10.775 6.847,-14.335 4.479,-4.254 8.385,-6.334 14.095,-8.238 9.421,-3.14 17.612,-9.72 27.021,-12.635 20.487,-6.347 42.321,-5.99 62.536,1.036 10.43,3.625 20.636,8.482 30.678,13.084 4.998,2.291 9.63,4.445 14.242,7.402 1.755,1.125 3.897,2.065 5.027,3.732 1.761,2.597 2.67,6.942 3.649,9.933 3.292,10.058 4.936,20.102 4.936,30.606 0,9.945 -0.437,19.908 0.677,29.796 0.344,3.055 0.009,7.386 1.154,10.243 0.882,2.201 2.776,2.592 4.546,4.354 2.976,2.962 5.745,7.402 7.241,11.301 1.78,4.637 3.899,10.125 4.239,15.063 0.458,6.658 -0.485,13.711 -0.721,20.382 -0.365,10.311 -4.245,20.028 -7.052,29.926 -2.572,9.068 -4.508,18.565 -7.988,27.322 -4.118,10.364 -8.322,20.061 -14.659,29.177 -6.614,9.515 -13.432,18.782 -20.404,28.042 -12.803,17.004 -32.216,25.322 -49.932,35.98 -4.436,2.669 -8.678,5.731 -12.999,8.584 4.478,5.24 8.747,10.732 13.667,15.563 6.263,6.151 11.472,12.947 19.949,15.661 6.963,2.229 15.725,1.032 23.144,1.774 6.638,0.664 14.888,2.312 20.958,5.224 8.464,4.061 6.565,14.262 6.408,22.113 -1.172,-4.803 -1.699,-10.89 -4.796,-14.886 -5.456,-7.038 -6.126,2.764 -10.042,5.321 -5.658,3.694 -7.952,-2.708 -12.351,-3.912 -4.879,-1.335 -10.966,-0.012 -15.977,-0.012 1.59,6.361 1.99,10.968 -0.491,17.169 -0.409,-2.371 -0.818,-4.742 -1.226,-7.113 -0.654,2.371 -1.308,4.742 -1.962,7.113 -0.622,-3.609 -0.955,-10.663 -5.043,-11.236 -1.98,-0.277 -4.126,1.295 -5.818,2.043 -2.875,1.272 -3.377,1.685 -6.817,1.589 -4.947,-0.138 -6.962,-3.117 -11.076,-5.451 -3.824,-2.169 -8.133,-2.398 -12.451,-2.398 1.218,7.61 3.495,14.525 3.434,22.319 -1.566,-4.072 -2.311,-6.946 -5.974,-9.562 -2.569,-1.836 -5.762,-1.551 -7.97,-3.473 -2.802,-2.438 -4.361,-6.879 -7.94,-8.636 -3.081,-1.513 -7.077,0.344 -10.691,0.697 -7.569,0.738 -15.398,-0.576 -22.935,0.368 -8.564,1.072 -11.202,5.367 -11.202,13.494 -1.661,-4.567 -3.81,-8.17 -1.96,-13.01 1.415,-3.702 4.884,-6.65 8.023,-9.102 5.234,-4.089 6.471,-3.827 13.197,-3.563 4.326,0.17 8.542,-0.075 12.869,-0.322 -3.934,-5.77 -7.842,-10.944 -12.962,-15.673 -2.476,-2.287 -4.344,-4.734 -6.47,-7.384 -2.961,-3.693 -2.479,-4.684 -6.559,-2.944 -3.177,1.355 -4.381,2.475 -7.626,2.395 -4.015,-0.099 -7.989,-1.506 -12.003,-1.656 -6.82,-0.255 -12.554,0.936 -19.278,-0.505 -4.272,-0.915 -4.144,-1.564 -6.357,2.022 -1.647,2.669 -3.219,6.432 -5.426,8.643 -5.268,5.277 -11.185,7.103 -18.221,7.511 -6.414,0.372 -14.062,-0.519 -19.789,2.524 -5.461,2.901 -12.145,7.073 -18.282,7.375 -11.077,0.546 -4.834,-12.085 -2.224,-17.522 3.106,-6.471 5.561,-13.123 9.129,-19.367 -4.457,0 -5.36,1.03 -5.518,-3.556 -0.115,-3.331 0.251,-6.299 0.704,-9.62 0.829,-6.082 3.824,-11.987 7.559,-16.942 1.817,-2.411 2.952,-2.555 3.387,-5.69 0.46,-3.317 -1.537,-5.444 -1.669,-8.551 -0.26,-6.149 3.74,-13.325 5.265,-19.162 2.854,-10.922 3.47,-22.365 6.891,-33.153 4.056,-12.791 7.234,-25.621 10.752,-38.565 3.58,-13.166 7.059,-26.216 14.082,-37.921 z"
   id="path3" />
</svg>