<svg xmlns="http://www.w3.org/2000/svg" viewBox="0 0 490 280"><title>align-self</title><g id="089b5656-e85e-449c-a9df-f21b4c6c6b6c" data-name="Layer 10"><path d="M462.79,51.62c-12.4-1.51-25.42-.9-37.91-.92-26.28-.06-52.55.83-78.8,1.84-51.86,2-103.71,4.16-155.57,1-29.44-1.83-58.92-4.34-88.41-1.93A14.4,14.4,0,0,0,94,54.92l-23.11-1.5c-6.42-.42-13.06-1.4-19.48-.6a20.46,20.46,0,0,0-7.37,2.42q-13.53-1.17-27-2.72C6,51.25-5.45,75.94,5,79.57c-2,3.22-3.34,7-2.94,10.37Q3.56,102.41,5,114.86c.49,4.16,1,8.32,1.47,12.47,0,.36.08.72.13,1.08-1.74,3.33-2.71,6.82-2.4,9.4q.5,4.27,1,8.55c-2.56,4.34-3.78,9.41-2.32,13.39a16.86,16.86,0,0,0,2.83,5.1c-4.95,9.53-4.54,20.73.71,28.91a16.65,16.65,0,0,0-.68,2.86c-1.27,9-6.69,27.67,7.49,28.37,5.23.26,10.85-1.37,16-2q3-.39,6.09-.73c.36,4.36,2.83,8,8.16,7,12.31-2.37,24.67-4.32,37.06-6q9.83-1,19.74-1.47c.27,3.37,1.62,6.5,5.42,6.48,98.32-.47,196.76-2.4,295-6.75l61.49,6.63c7.88.85,14.69-9.9,15.67-16.39a299.3,299.3,0,0,0,3.29-55.3c-.1-2.8-1.14-5.44-3.21-6.75a54.13,54.13,0,0,0,.32-6,10,10,0,0,0-.45-3c2.64-3.84,4.24-8.49,4-12.28-.2-3-.41-6-.61-8.92-.15-2.16-.85-5.05-2.6-6.61a15.8,15.8,0,0,0,.66-5.27,113.46,113.46,0,0,1,.77-25A14.53,14.53,0,0,0,480,78a23.52,23.52,0,0,0,1.92-8.35C482.34,58.3,472.79,52.84,462.79,51.62ZM454.6,186.85c0,.26.07.5.11.75l-1.6.54c-.81.26-1.63.49-2.45.73.08-.31.16-.6.25-.87C452.17,187.66,453.4,187.28,454.6,186.85ZM117,160.77c0,.5,0,1,0,1.54q-6,1-11.9,2.18C109.08,163.27,113.05,162,117,160.77ZM27.26,114.5c-.73.48-.19-.21,0,0Z" fill="#995db5"/><path d="M475.75,60.44c-2.81-5.35-9.1-6-14.54-5.94-9.64.06-19.28.46-28.92.7l-56.83,1.37a2.89,2.89,0,0,0-1,.22q-75.49-1.78-151-2.56Q160.71,53.6,98,53.69q-31.37,0-62.73.26c-5,0-10,0-14.93.12-3.45.09-6.8.45-9.55,2.77C4.25,62.33,5.28,72.53,4.94,80.13a1146.16,1146.16,0,0,0,2.4,140.29c.49,6.2,7.89-.16,7.57-4.2A1146.64,1146.64,0,0,1,11.75,97.67C12,87.79,12.32,77.9,12.89,68c.17-2.83-.57-3.94,2.39-4.33a54.67,54.67,0,0,1,6.4-.07l14.94-.11q29.87-.2,59.74-.23,119.49-.13,239,2.31Q403,67,470.69,69.21C474.49,69.33,477.4,63.58,475.75,60.44Z" opacity="0.2"/><path d="M478.39,125.84c-.57-5.25-1.45-10.47-1.71-15.76-.67-14.08.2-28.35.38-42.45,0-2.66-2.22-3.62-4.41-2.54-2.54,1.24-4.21,4.62-4.24,7.35-.17,13-.6,26-.47,39a95.68,95.68,0,0,0,.62,9.57c.29,2.63.63,5.25,1,7.88,0,.24.05.72.09,1.26-15.22,1.09-30.31-.24-45.55.46-16,.74-32.94,3.14-48.8.29-4.53-.81-9.49,10-4.13,11,16.78,3,34.84.35,51.75-.42,8.49-.39,16.85.52,25.32.52,4.16,0,8.31-.37,12.46-.58,3.33-.16,8.82.35,11.89-1.23C477.2,137.82,478.88,130.42,478.39,125.84Z" opacity="0.15"/><path d="M355.1,179.91c-.47-3.93-1.14-7.82-1.77-11.72,1.39-4.91,1.18-11.23,1.55-14.48.87-7.8-7.83-3.05-8.42,2.13-.19,1.74-.39,3.49-.58,5.23-1.2,1.64-2.07,3.49-2,4.63,0,.19,0,.39,0,.59-.16-.65-.07-.33,0,.1a22.08,22.08,0,0,0,.71,6.17c.51,3.44,1.2,6.84,1.66,10.29a167.1,167.1,0,0,1,1.43,22.47,29.39,29.39,0,0,1-.1,5.63c-.68,3,1,1.28-1.46,2.16-3.06,1.11-7.81.09-11,0l-23.6-.27-45.94-.53-22.44-.26L231.36,212c-3,0-7,.47-10.14-.05-2.49-3.62-9.17,4.17-7.84,8.15,1.27,3.82,5.68,2.79,9,2.83L236,223l27.32.32,56.76.65,14.75.17c3.48,0,7.17.34,10.57-.56,7.68-2,10.4-9.3,10.74-16.54A163.36,163.36,0,0,0,355.1,179.91Z" opacity="0.15"/><path d="M198.07,99.74a220.51,220.51,0,0,1,0-26.84c.13-2.69-2.27-3.59-4.41-2.55-2.61,1.28-4.11,4.6-4.24,7.35a220.5,220.5,0,0,0,0,26.84c.3,4.06.67,8.11,1,12.16q.35,4.77.61,9.54.1,1.56.18,3.12c-.73,0-1.42,0-1.92.09-2.87.32-5.75.61-8.63.83a136.22,136.22,0,0,1-15.52.28c-10-.4-19.95-1.45-30,0-4.43.65-8.18,11.69-2,10.79,13.71-2,27.66.86,41.46,0,6-.37,12.63-.44,18.46-1.81,4.37-1,7-5.12,7.11-9.46C200.51,120.11,198.82,109.73,198.07,99.74Z" opacity="0.15"/><path d="M117.22,116.74c-.44-5.55-1-11.09-1.39-16.65-.35-5.19-.46-10.4-.29-15.6.1-3.11.28-6.21.5-9.3.2-2.71,1.29-6.58-.59-8.91-1.07-1.33-2.44-1-3.81-.42-2.5,1.08-4.06,4-4.52,6.55-.18,1-.22,2.73.58,3.66-.06.71-.12,1.43-.17,2.15-.12,1.43-.22,2.86-.31,4.29-.17,2.71-.31,5.43-.37,8.14q-.16,6.57.26,13.12c.28,4.47.71,8.92,1.1,13.38.24,2.82.47,5.64.67,8.46.07,1,0,2.29.08,3.41-28.56,1.92-57.26,2.46-85.88,2.26-4.68,0-9.28,10.94-4.13,11q25.52.18,51-.64,12.75-.42,25.49-1.09c6.18-.33,15.33,1,19.74-4.36S117.72,123,117.22,116.74Z" opacity="0.15"/><path d="M471.55,130.94c-.43,2,.47,4.12-4.3,5.09-5.26,1.08-94,2.32-100.88-1.49-2.88-1.6-3.37-5.57-3.23-7.9.09-1.51-.17-54.23.17-57.27.15-1.37.56-5.13,2.8-5.83,3.88-1.22,96.9-1.46,99.13-1,4.23.86,5.74,5.78,6,8.26S472,129,471.55,130.94Z" fill="#f7941f"/><path d="M192.15,66.05c-1.25-3.28-4-3.6-6.29-4.12-.56-.13-52.75-.63-56.53.84-3.94,1.53-3.57,8-3.53,8.83,0,0,.81,57.9.89,59.47.1,2,2.68,2.94,3.65,3.53,1.77,1.08,52.43.77,56.15.42,7-.67,6.72-5.17,6.83-6.44S192.52,67,192.15,66.05Z" fill="#f7941f"/><path d="M110.45,67.18c-.24-1-2-4.35-4.64-4.87-.66-.13-87.08-.75-88.7-.39A14.94,14.94,0,0,0,13,64.1c-1.38,1.11-1.34,63.27-1.34,63.27,0,3.72,3.41,7.22,4.55,7.81,2.09,1.08,89,.52,90.29.18a4.15,4.15,0,0,0,3.48-4C110.12,130.08,110.69,68.2,110.45,67.18Z" fill="#f7941f"/><path d="M208.33,148c.43-2,.49-4.23,5.26-5.24,1.18-.25,122.11-1.8,130.06.83,4.9,1.63,4.88,6.39,4.74,8.72-.09,1.51.37,52.12,0,55.16-.16,1.36,1,5.7-2.81,7.86-4.51,2.54-129.67,1.77-131.75.84a8.78,8.78,0,0,1-5.69-7.85C208,205.9,207.9,150,208.33,148Z" fill="#f7941f"/><path d="M468.23,63.69c-16.28-1.6-32.47.62-48.75,1.09-16.09.46-32.26-.94-48.33-1.74-1.64-.08-3.15,1.44-3.88,2.77-6.34,11.48-4.69,24.57-3.46,37.11a266.73,266.73,0,0,1,1.56,26.82c0,5.27,6.48-.18,6.49-3.61,0-5.89-.2-11.68-.65-17.49a6.14,6.14,0,0,0,1.65-3.58c0-6.81-.28-16.6,2.82-23.81l1.36-1.8c5.59-1.26,11.43-1.29,17.19-1.47a210.59,210.59,0,0,0,21.86-2c16.34-2.24,32.53-4,49.05-4.06C468.43,71.91,472.36,64.09,468.23,63.69Zm-97.57,7.72-.05.07,0-.07Z" fill="#fff" opacity="0.25"/><path d="M345.86,144.24l-2.21-.63a2.47,2.47,0,0,0-2.07.49q-28.41-1-56.81-1.67c-20.56-.47-41.24-1.35-61.81-1-6.77.13-12.59,3.18-13.88,10.4-1.21,6.8,1,14.58,1.45,21.46a131.68,131.68,0,0,1-.28,17.2c-.49,7.69-1.79,15.78,2.51,22.66,2.05,3.29,7.45-3.8,5.58-6.8-4-6.36-1.82-15.39-1.42-22.46a114,114,0,0,0,.13-13.71c-.36-5.84-2-12.1-1.66-17.9.23-3.91,6-2.61,9.12-2.58l12.81.15q52.74.66,105.44,2.59C346.08,152.59,350,145.41,345.86,144.24Z" fill="#fff" opacity="0.25"/><g opacity="0.25"><path d="M127,115.84c-.41.4-.08.72,0,0Z" fill="#fff"/><path d="M189.16,63.73c-4.8-.39-9.46.22-14.24.56s-9.28-.21-14-.61c-9.39-.79-18.77.86-28.13-.45-2.39-.34-4.37,3-4.71,4.91a37.8,37.8,0,0,0-.53,7.28,4.77,4.77,0,0,0-.45,1.4,106.54,106.54,0,0,0-.74,19c.26,6.37,0,13,.61,19.31a3.63,3.63,0,0,1,0,.73,1.72,1.72,0,0,1,.23-.17,8.46,8.46,0,0,0-.94,3.32,36.17,36.17,0,0,0,2.07,11.68c1.42,4.29,5.88-1.5,6.28-3.48,2.28-11.28,2.35-23.35,1.55-34.81-.47-6.69-2.25-13.71-2.22-20.51,7.94.45,15.91-.63,23.87,0,4.72.39,9.25,1,14,.61s9.45-1,14.23-.57C189.55,72.24,193.12,64,189.16,63.73Z" fill="#fff"/></g><path d="M107.28,62.62c-16.18,1.72-32.42.43-48.62-.3C51.07,62,43.47,61.75,35.88,62q-5.12.18-10.22.7c-2.88.29-7,.2-9.51,1.93-4.94,3.48-2.87,12.12-2.3,17l.36,2.93a6,6,0,0,0-1.74,4c.78,10.13-.52,20.18-.6,30.3,0,4,1.09,6,1.4,10,.42,5.34,6.71-.16,6.49-3.6a47,47,0,0,1,.58-13.45,69.29,69.29,0,0,0,1.7-8.56,76.26,76.26,0,0,0-.53-16c-.36-3-.81-6.07-1.17-9.11-.24-2.08-.75-4.64-.86-7a88.13,88.13,0,0,1,9.53-.6c3.78-.23,7.56-.31,11.35-.31,7.3,0,14.58.38,21.87.75,13.59.69,27.15,1.27,40.72.08a2.12,2.12,0,0,0,1.44.07l1.36-.32C108.86,70,112.06,62.11,107.28,62.62Z" fill="#fff" opacity="0.25"/><path d="M192.85,67.28a.59.59,0,0,0,0-.23c-.64-8.11-14.36-5.78-19.73-5.85q-12.78-.2-25.56-.32c-5.57-.06-12.07-1.05-17.49.54-4.05,1.19-5.12,6.43-5.36,10.2-.46,7.57.11,15.35.15,22.93.06,9.87.14,19.75.18,29.63,0,.72,0,1.45,0,2.17.11,2.15-.52,5.57.8,7.32,2.41,3.19,11.08,2.79,14.73,2.89,11.46.31,22.65.42,34.11-.15,6.8-.34,19.29,2,19.63-7.75C195.05,108.24,192.7,87.72,192.85,67.28Zm-.77,60.88c-.07,4.41-3.1,5.77-7.58,5.69-9.77-.17-19.53,1.17-29.3,1-5.25-.11-10.51-.37-15.76-.55a44.44,44.44,0,0,1-8.83-1.1c-1.67-.4-2.29-.53-2.83-1.79-.43-1-.39-3.88-.46-5-.35-6.17-.12-12.43-.17-18.61q-.14-14.43-.25-28.86c0-2.34-.2-4.74-.06-7.08A18.13,18.13,0,0,1,128,66.42c1.48-3.81,5.17-3.47,8.69-3.57,8.67-.24,17.42.13,26.1.21l16.66.17c3.64,0,11.24-1.23,12,4,0,0,0,0,0,0-.15,17,.23,34.06.5,51.08C192,121.61,192.14,124.89,192.08,128.16Z" fill="#1e1e1e"/><path d="M111.47,123.7q0-10.49,0-21c0-7.9-.05-15.8-.1-23.7,0-3.8.32-7.87-.15-11.66a.53.53,0,0,0,0-.18c-.85-6.65-6.62-5.59-12.08-5.88-5.63-.29-11.26-.51-16.9-.52l-38.57,0c-4,0-8,0-12,.08s-8.21.08-12.3.35c-2.36.16-5.48.3-7,2.31-1.72,2.25-1,7.15-1,10L11,92c-.14,11.51-1.1,23.33-.46,34.83a20,20,0,0,0,1.26,6c1.31,3.47,3.77,3.66,7.36,3.75,4.92.13,9.87,0,14.79.1q21.53.25,43,.48c3.87,0,7.73,0,11.6,0s7.89-.07,11.83-.22c2.5-.09,6.55.4,8.82-1.08C112.57,133.67,111.48,127.32,111.47,123.7Zm-1.7-47q-.06,9-.15,18.1c-.11,10.58,0,21.2-.35,31.78-.06,1.73.16,3.91-.41,5.47-1.37,3.76-7.63,2.63-10.8,2.72-5.26.15-10.52.1-15.79.14-11,.08-22.13-.26-33.19-.37l-18.48-.2c-4.34-.05-14.63,1.49-16.6-2.14-1.63-3-1.17-7-1.14-10.26q.08-8.52.18-17c.12-11.22.32-22.44.36-33.66,0-.74,0-1.5,0-2.24.1-3.13.46-4.69,4-5.54a20.06,20.06,0,0,1,3.72-.25c5.46-.23,10.93-.33,16.4-.36,12.76,0,25.51,0,38.26,0,3.69,0,7.37-.05,11,0,4.45.06,8.9.24,13.34.45,3.68.16,8.76-.51,9.58,4.14,0,0,0,.07,0,.1C110.15,70.28,109.79,73.75,109.77,76.67Z" fill="#1e1e1e"/><path d="M349.45,161.3c0-4.25.81-9.93-.71-14-2.46-6.54-12.45-5.8-18.25-5.92-13.26-.26-26.53-.16-39.79-.21q-25.24-.11-50.48-.11c-4.16,0-8.32,0-12.47.1q-6.52.23-13.06.7c-2.27.17-4.62.13-6.08,2.18-2,2.78-.71,6.51-1,9.61a.27.27,0,0,0,0,.13c-.72,4.75-.3,9.89-.36,14.66q-.13,12.2-.18,24.39c0,5.75-1,12.83.58,18.29,2.35,8.29,10.94,6.5,18,6.77,29.93,1.13,60.16-.18,90.11-.33,8.29,0,16.71.3,25-.1,3.16-.15,7.91-.59,8.74-4.31.37-1.69,0-4.2,0-6C349.74,191.88,349.48,176.58,349.45,161.3Zm-2.33,49.57c-1,6.33-10.73,4.33-15.61,4.36l-8.6.06c-27.68.13-55.36.54-83,.56-7,0-14-.32-21-.42-4.8-.06-8.49-.37-9.57-6.05-.53-2.78-.3-5.89-.35-8.71,0-1.64,0-3.29,0-4.93q-.07-12.18-.09-24.35c0-5.58-.71-11.82.16-17.37a.29.29,0,0,0,0-.13c.52-3.79-1.22-8.7,3.78-10,3.6-.93,8.13-.47,11.83-.62,3.86-.16,7.71-.19,11.58-.19,14.17,0,28.35.08,42.53.13q22.22.1,44.44.24c4,0,8,0,12,.33,5.77.55,11.86.34,12.18,7.65.06,1.43,0,2.9-.05,4.33,0,14.15.06,28.31,0,42.46C347.25,202.29,347.76,206.84,347.12,210.87Z" fill="#1e1e1e"/><path d="M472.27,125.15a72.43,72.43,0,0,0,.2-9.66c0-6.46,0-12.92,0-19.38q0-7.76-.07-15.51c0-5.21.86-11.28-2-15.9s-10.61-3.2-15.45-3.45c-5.66-.29-11.35-.22-17-.22-11.08,0-22.16.14-33.24.29-10.34.15-20.67.33-31,.28-3,0-7.21-.2-9.82,1.68-2.23,1.61-1.72,3.68-1.7,6.15.08,10.34-.13,20.7-.11,31,0,9.24-.88,19,.08,28.21.75,7.21,5.77,7.63,11.83,8.34,8.79,1,17.84.84,26.68.9,14.81.1,29.64.13,44.45,0,7.24-.07,14.78,0,22-1,6.59-.9,4.76-6.67,5.24-11.65A.51.51,0,0,0,472.27,125.15Zm-1.94,7.43c-1.52,3.28-5.62,2.65-8.58,2.8q-9.48.48-19,.54c-12.63.06-25.27,0-37.91-.07-6,0-12.05-.16-18.08-.28-3.48-.08-7-.06-10.44-.39s-9.26-.06-11.23-3.44c-1.57-2.7-.9-7.72-.9-10.85q0-7.68,0-15.35c0-10.65,0-21.31.1-32,0-1.23.07-2.47.08-3.7,0-.43,0-1.27,0-1.61.62-4,3.71-4.26,7.08-4.39,10.59-.43,21.28-.1,31.88-.24,18.62-.25,37.21-.45,55.82.08,2,.06,5.31-.47,7.21.37,3.61,1.61,3.78,6.38,3.85,9.64.05,2,.08,4,.14,6,.14,4.8.18,9.6.25,14.4q.17,9.8.27,19.59c0,3.6.51,7.61,0,11.19a.69.69,0,0,0-.05.13C470.5,127.42,471.34,130.4,470.33,132.58Z" fill="#1e1e1e"/><path d="M478.52,63.45c-.82-2.76-3.31-6.92-6.17-8s-6.82-.77-9.81-.93c-6.59-.36-13.19-.53-19.78-.68-48.51-1.13-97.07-.91-145.59-.82q-86.42.15-172.85.88c-30.14.23-60.29.72-90.44.83-4.79,0-9.57,0-14.36.17-6.19.25-12.76-.45-14.12,7.23a.81.81,0,0,0,0,.22c-.51,5.54-.14,11.3-.18,16.86Q5.1,98.28,5,117.36q-.18,40.46-.32,80.92c0,5.54-.35,11.18.17,16.71.27,2.91.56,6.62,2.5,9,1.46,1.75,3.46,1.79,5.6,2a153.19,153.19,0,0,0,16.45.84q13.88,0,27.74,0,72.54.15,145.06.13,86.63.06,173.25.1c29.46,0,59,.49,88.42,0,4.87-.08,13.32.21,14.41-5.92.84-4.75.7-10,.77-14.79.12-8,0-16,0-24q0-42,.12-83.93c0-8.2.07-16.41,0-24.61C479.23,70.43,479.48,66.69,478.52,63.45Zm-1.7,143.11c0,.32,0,.64,0,1-.08,3.38-.5,6.75-.61,10.13s-.39,5.1-4.24,6.42c-2.82,1-6.16.73-9.15.76-3.57,0-7.14,0-10.71,0l-48.56,0-160.25-.08q-79.16,0-158.31-.06-23.14,0-46.29,0c-3,0-6,0-9.06,0-3.92,0-7.83-.11-11.75-.37-4.19-.28-8.46.46-10.12-4.11a28.62,28.62,0,0,1-1.17-8.75c-.48-18.09,0-36.26,0-54.36q0-39.79.1-79.58c0-4.94-.33-10.06.1-15l0-.06c1.22-6.44,6.81-5.76,11.87-5.9,4.89-.14,9.78,0,14.67,0H35l11.24-.1,48.86-.36q80.08-.62,160.17-.91c52.86-.17,105.74-.33,158.6.29,15.78.18,31.58.31,47.34,1.09,3.2.16,7.23-.15,10.32.87,2.74.91,5.07,5.87,5.29,9.58.17,2.83.33,5.6.33,8.43C477,119.14,477.6,162.88,476.82,206.56Z" fill="#1e1e1e"/><path d="M25.28,27.83h0C25.41,26.08,26,24.55,28,24a.67.67,0,0,0,.47-.81l-.09-.66a1.25,1.25,0,0,0-.91-.91c-2.68-.38-4.38,1.15-4.79,3.82a17,17,0,0,0-.17,2.6,4.46,4.46,0,0,0-2.51,1,.51.51,0,0,0,.1.79,4.4,4.4,0,0,0,2.48.66c0,.89.09,1.77.09,2.62,0,2.91-.12,5.87.19,8.76a1,1,0,0,0,2.08,0c.39-3.36.22-6.83.28-10.22,0-.4,0-.83,0-1.27h.32c1.1,0,3.25.13,3-1.64C28.27,27.2,26.34,27.7,25.28,27.83Z" fill="#7f3f98"/><path d="M31.36,22.28c-.94,6.34-.46,13.25-.28,19.65a1.34,1.34,0,0,0,2.67,0c.12-6.4.55-13.32-.45-19.65a1,1,0,0,0-1.94,0Z" fill="#7f3f98"/><path d="M44.34,36.31c1.69,0,3.35.54,5,.57,2,0,2.89-1.24,2.44-3.11-1.1-4.61-5.73-8.22-10.39-5.61-4.42,2.49-4.72,8.76-2.1,12.71a6.32,6.32,0,0,0,5.84,2.55c1.69-.12,4.85-.52,5.35-2.5a1.25,1.25,0,0,0-2.28-1c-.47.8-3.28.93-4,.88-2.34-.14-3.31-2-3.74-4a4.54,4.54,0,0,1-.09-.51C41.73,36.32,43,36.28,44.34,36.31ZM44.77,30a4.31,4.31,0,0,1,3.75,2.44,14.76,14.76,0,0,1,.63,1.6q.39.69-.3.21A11.65,11.65,0,0,1,47.14,34a28.9,28.9,0,0,0-6.7.13C40.79,31.91,42.14,30,44.77,30Z" fill="#7f3f98"/><path d="M67.07,41.51a30.15,30.15,0,0,0-4.61-6c1.4-2.08,3.34-4.28,3.89-6.63A1,1,0,0,0,65,27.85c-2,.88-3.44,3.19-4.63,5.2a31.07,31.07,0,0,0-5.1-5.33c-.76-.58-1.62.51-1.23,1.23a41.77,41.77,0,0,0,4.91,6.39,34.82,34.82,0,0,0-4,6.8c-.5,1.38,1.3,2,2.21,1.29A17.9,17.9,0,0,0,61,38,27.58,27.58,0,0,0,65.18,43,1.21,1.21,0,0,0,67.07,41.51Z" fill="#7f3f98"/><path d="M69,36.94c1.46.46,3.3.11,4.81,0a1.57,1.57,0,0,0,1.48-1.13,1.71,1.71,0,0,0,0-.81A1.59,1.59,0,0,0,73.42,34c-1.5.2-3.31.23-4.67,1a1.12,1.12,0,0,0,.27,2Z" fill="#7f3f98"/><path d="M89.5,29.36c-2-4.35-10.15-2.6-10.22,2.2,0,2.62,2.31,4.14,4.52,4.85,1.42.46,6.37,1.31,4,3.85-1.84,2-5,.6-6.71-.62-1.22-.87-2.43,1-1.53,2,2.65,3,11,2.75,11.36-2.24.15-2.1-1.71-3.47-3.46-4.16-.77-.3-1.56-.45-2.35-.68-1.35-.4-4.88-1.28-2.38-4.09,1.31-1.47,4.06-.44,5.43.22a1,1,0,0,0,1.29-1.3Z" fill="#7f3f98"/><path d="M99.5,41.36c-1.55.69-1.94-8.28-2-11.08a5.65,5.65,0,0,0,2.69-.42,1.3,1.3,0,0,0,0-2.23,4.89,4.89,0,0,0-2.67-.35c0-1.58-.09-3.13-1.46-4a.28.28,0,0,0-.25,0c-1.55.93-1.51,2.61-1.41,4.29a12.64,12.64,0,0,0-1.49.29,1.29,1.29,0,0,0,.35,2.53c.41,0,.83,0,1.24,0a83.09,83.09,0,0,0,.82,8.91c.38,2.54,3.13,7.2,5.7,3.56C101.67,41.85,100.37,41,99.5,41.36Z" fill="#7f3f98"/><path d="M116.37,41.76l-.2-8.94c0-2.05,0-3.84-1.6-5.29-2.81-2.47-8.6-.68-10.25,2.44a.84.84,0,0,0,1,1.22c2.75-.68,7.4-4.49,8,.56a35.3,35.3,0,0,1,.22,3.59,7.34,7.34,0,0,0-1.74-1c-1.55-.65-3.12-1.54-4.87-1.4-2.93.23-4.22,3.18-4,5.83.45,5.37,6.9,6,10.65,3.42C113.91,43.9,116.66,43.43,116.37,41.76Zm-6.31-.88c-2.45.73-4.83-.23-4.55-3.11.24-2.59,2.17-2.28,4.11-1.75,1.27.35,2.65.44,3.9.85,0,.59,0,1.18,0,1.78A7.63,7.63,0,0,1,110.06,40.88Z" fill="#7f3f98"/><path d="M125.7,28.3A5.69,5.69,0,0,0,121.84,30c-.12.11-.23.22-.34.34a3.07,3.07,0,0,0-1.23-1.87.3.3,0,0,0-.36,0c-1.61,1.41-.88,4.23-.79,6.16.11,2.7-.14,5.88.82,8.42.39,1,2,1.24,2.3,0,.64-2.79,0-6.12-.34-9,0-.22,0-.46-.05-.7a6.65,6.65,0,0,1,1.56-1.61,5.67,5.67,0,0,1,2.66-.78C127.69,30.72,127.16,28.41,125.7,28.3Z" fill="#7f3f98"/><path d="M136.58,40.57c-1.79,1.89-2.28-3.32-2.33-3.84-.15-1.61-.24-3.23-.31-4.84,0-.41,0-.82,0-1.24a5.19,5.19,0,0,0,2.73-.31,1.25,1.25,0,0,0,0-2.15,4.6,4.6,0,0,0-2.82-.44,29.33,29.33,0,0,0-.32-3.74c-.16-1-1.75-.93-2,0a23.93,23.93,0,0,0-.48,4,11.71,11.71,0,0,0-1.18.23,1.21,1.21,0,0,0,.32,2.37c.28,0,.56,0,.83,0,0,1.13.07,2.25.12,3.37.1,2.3,0,5,.85,7.21,1.22,3,5,4.21,6.87,1.15A1.46,1.46,0,0,0,136.58,40.57Z" fill="#7f3f98"/><path d="M216.53,237.72c-2.88-1.3-5.07.6-5.89,3.43a10.19,10.19,0,0,0-.36,2.33,5.87,5.87,0,0,0-2.37.65.79.79,0,0,0-.16,1.24,3.13,3.13,0,0,0,2.57.63c0,.71.1,1.43.13,2.13a89.58,89.58,0,0,1,.06,9.27c-.08,1.64,2.57,1.66,2.57,0,0-2.87,0-5.74-.18-8.6,0-.6-.17-1.66-.24-2.85,1.05.15,2.31.44,3-.45a1.15,1.15,0,0,0-.23-1.78,7,7,0,0,0-2.84-.31c.14-2.23.82-4.14,3-3.64C216.83,240,217.74,238.27,216.53,237.72Z" fill="#f7941f"/><path d="M219.54,238.38c-.47,2.87.09,5.86.19,8.76.12,3.34.1,6.67,0,10-.05,1.67,2.52,1.67,2.58,0,.22-5.72.94-13.36-1.2-18.76-.26-.66-1.44-.9-1.59,0Z" fill="#f7941f"/><path d="M238.52,252.28a1.29,1.29,0,0,0,1.23-1.62c-1-3.09-2.51-7-6.32-7.17-3.42-.17-6.9,2.83-7.54,6.1s.34,6.73,3.43,8.27a8.73,8.73,0,0,0,9.58-1.64,1.37,1.37,0,1,0-2.16-1.67c-1.14,1.49-4.21,1.79-5.82,1.23a4.06,4.06,0,0,1-2.64-3.57C231.68,252.36,235.12,252.18,238.52,252.28Zm-10.05-2.48c.64-2.05,3.11-4.07,5.31-3.5,1.61.42,2.42,1.85,3,3.34A53.21,53.21,0,0,0,228.47,249.8Z" fill="#f7941f"/><path d="M255,256.36a35.84,35.84,0,0,0-4.31-5.87,28.46,28.46,0,0,0,3.74-5.53,1.08,1.08,0,0,0-1.69-1.3,25.07,25.07,0,0,0-4,4.59c-1.54-1.83-3.25-3.94-5.26-4.8-.61-.26-1.49.18-1.24,1,.78,2.36,3.08,4.29,4.79,6.12a58.52,58.52,0,0,0-4.63,6.43,1.31,1.31,0,0,0,2.26,1.33,40.7,40.7,0,0,1,4.2-5.6c1.36,1.76,2.6,3.61,4.1,5.25C254,259,255.76,257.63,255,256.36Z" fill="#f7941f"/><path d="M257.4,252.1a5.49,5.49,0,0,0,2.64.34c1,0,2,0,3-.08,1.66-.12,1.7-2.66,0-2.61-1,0-2,.13-3,.22a5.65,5.65,0,0,0-2.64.56.92.92,0,0,0,0,1.57Z" fill="#f7941f"/><path d="M281.19,251.83c.62,0,1.38-.56,1.28-1.28-.48-3.66-2.81-6.82-6.64-7.41a7.48,7.48,0,0,0-8.26,5.22,8.78,8.78,0,0,0,3.29,9.6c3.11,2,7.82,1.06,10.44-1.32,1.26-1.14-.57-2.86-1.84-1.83-1.79,1.45-4.79,2.41-7,1.24a5.61,5.61,0,0,1-2.58-3.67C273.64,252.42,277.44,252.06,281.19,251.83Zm-1.58-2.47c-3.3.19-6.6.38-9.9.62v0C270.61,244.2,277.92,244.6,279.61,249.36Z" fill="#f7941f"/><path d="M298.69,248.24a5.44,5.44,0,0,0-2.59-4.49c-2.64-1.41-5.84-.16-8,1.89a8.51,8.51,0,0,0-.4-1.58.93.93,0,0,0-1.78,0c-.65,2.18-.29,4.63-.24,6.88a40.12,40.12,0,0,0,.38,6.94c.21,1.06,2.05,1.12,2.21,0a39.22,39.22,0,0,0,0-6.94c0-.79,0-1.62,0-2.44a13.46,13.46,0,0,1,2.65-2.1c1.89-1,4.35-1.05,5.1,1.43.82,2.76.31,6.4.36,9.26a1.3,1.3,0,0,0,2.59,0A56.91,56.91,0,0,0,298.69,248.24Z" fill="#f7941f"/><path d="M316.29,238.19c-.11-.9-1.41-1.23-1.68-.23a32.22,32.22,0,0,0-.94,6.55,7.94,7.94,0,0,0-6.48-.57,8,8,0,0,0-5.13,7.14c-.09,3.13,1.73,6.78,4.93,7.63,2.82.76,5.28-.71,7.18-2.68.07.65.14,1.3.21,1.93.17,1.57,2.63,1.64,2.52,0C316.45,251.43,317.08,244.63,316.29,238.19Zm-7.12,18.16c-3.25.63-5.05-3.07-4.69-5.78a5.43,5.43,0,0,1,4-4.53c2.05-.51,3.48.31,5.15,1.12,0,1.81.1,3.63.24,5.41C312.59,254.12,311.23,256,309.17,256.35Z" fill="#f7941f"/><path d="M391.18,191a26.47,26.47,0,0,0-25.29-10.77c1.63-1.89,3.26-3.77,4.77-5.76.7-.92-.72-1.72-1.48-1.13a55.53,55.53,0,0,0-8.59,9.14c-.56.69-.5,2,.58,2.21a28,28,0,0,1,6.52,1.94c1.36.61,2.54,1.51,4,1.7a1.39,1.39,0,0,0,1.23-.7l.2-.31a1.25,1.25,0,0,0-1.06-1.87c-1.22.14-3-1.23-4.17-1.69-.66-.26-1.33-.48-2-.69,9.94-1.67,20.58,3.56,24.88,12.83,5.07,10.94.6,25.71-6.05,35.06-13.54,19-40.5,17.26-61.08,19.21a1,1,0,0,0,0,2c12.33,1.48,26.48-.53,38.41-3.73C375,245,385.43,238,391.15,225.56,396,215.05,398.3,201.06,391.18,191Z" fill="#f7941f"/></g></svg>