<svg xmlns="http://www.w3.org/2000/svg" viewBox="0 0 566 225"><title>01-container</title><g id="e9eff33d-fa09-40e7-9935-eb32e85a00a4" data-name="Layer 10"><path d="M529.42,178a12.45,12.45,0,0,0,.31-7c3.33-5,5.09-11.4,3.7-15.4a85.34,85.34,0,0,1-4-16,115.23,115.23,0,0,0,.09-22,10.23,10.23,0,0,0-1.79-5.26c2.58-4.85,4.9-12.45,1.5-17.26a7.21,7.21,0,0,0-1.89-1.89c4.4-5.87,9.75-22.82-3-21.19-15.13,1.93-30.52-.85-45.45-3.15a276.07,276.07,0,0,0-44.75-3.58c-30.26.27-60.43,4.23-90.64,5.81-61.58,3.21-123.27,2.16-184.9,1.37-34-.44-68.11-.77-102.16-.31q-4.27-.36-8.53-.81C37,70.2,25.65,94.47,35.63,98.35a22.82,22.82,0,0,0-5.32,13.73c-.29,6.2,2.85,9.65,7.2,11.73a22.16,22.16,0,0,0-6.14,11.68A124.1,124.1,0,0,0,33.05,183a6.23,6.23,0,0,0,5.25,4.78l1.53.06,0,0c-4,3.95-7.35,9-7.72,14.78-.25,3.92.76,8.83,5.51,9.38,29.49,3.43,59.17,2.46,88.81,1.82,32.43-.71,64.85-1.88,97.28-2.25,31.71-.35,63.46.08,95.09,2.49,16.34,1.25,32.54,2.52,48.94,2.51,15.66,0,31.33-.54,47-1.14,17.64-.68,35.28-1.51,52.93-1.25s35.13,2.44,52.52-1.35c9-2,14.55-14.13,13-22.43A58.53,58.53,0,0,0,529.42,178Zm-188.77-76H330l2.7-.14c16.81-.73,33.65-1,50.46-.2,6,.29,12,.75,18,1.32Q370.94,102.16,340.65,102.06Zm-228,84.87,13.61-2.75a17.15,17.15,0,0,0,3.86,2.37C124.33,186.7,118.5,186.84,112.68,186.93Z" fill="#995db5"/><path d="M37.24,84.39c.16-3.86-.92-8.3,3-10.68,2.66-1.6,6.36-1.43,9.39-1.51,5.6-.16,11.19-.07,16.79,0h11.7l43.8,0,147,0,154.31,0c25.92,0,51.85-.26,77.76,0,5.5.06,11,.19,16.5.44,5.88.26,10.12,1.87,10.3,8.3.06,2.16-.2,4.32-.22,6.48,0,.57,0,1.14,0,1.72.06,8.61.23,17.23.34,25.85q.46,36.06.92,72.11c0,1.83.13,3.68.07,5.51-.05,2-.27,4-.41,6-.31,4.53-.95,8.1-5.74,9.22-6.37,1.49-13.71.74-20.22.87-2.76.06-5.52.08-8.28.09L457.8,209,317,209.35,161,209.76c-26.73.08-53.65,1.19-80.37.32-5.38-.18-10.61-.35-16-.11a90.94,90.94,0,0,1-18.58-.87c-3.41-.56-7.14-1.4-8.39-5.09-1.07-3.2-.78-7.45-.86-10.82-.13-5.66,0-11.34.07-17l.27-75.54c0-5.42,0-10.84.06-16.26a.71.71,0,0,0-1.41,0q-.16,28.69-.42,57.38l-.28,38c-.05,7.58-.78,16,.54,23.45,1.48,8.42,12.27,8.29,19,8.68,8.56.49,17.19-.06,25.76.19,2.44.07,4.9,0,7.34,0l42.07,0q74.91,0,149.81-.33l155.6-.39,49.35-.12,12.16,0c8.75,0,18.19.84,26.72-1s7.62-10.1,7.8-17.46c.06-2.23-.06-4.48-.09-6.7q-.23-17-.47-33.92c-.3-21.34-1-42.73-.87-64.08,0-5.8,1.55-13.42-5-16.31-4.27-1.88-9.84-1.12-14.38-1.24-3-.08-6-.21-9.06-.24-2.29,0-4.58,0-6.87,0H307.39l-160,0c-26.87,0-53.75.12-80.63.06-6.18,0-12.38-.18-18.56.17-3.37.19-7.4.39-10.07,2.75-3.38,3-2.25,7.14-2.36,11.17C35.73,85.34,37.2,85.34,37.24,84.39Z" fill="#1e1e1e"/><path d="M518.07,157.41c-.23-18.62.11-37.24,0-55.85,0-3.3-2.72-4.57-5.51-3.19-3.12,1.55-5.33,5.79-5.31,9.19.14,16.4-.06,32.79,0,49.19,0,8.29.72,16.41,1.25,24.66.14,2.2.23,4.4.17,6.61,0,.61-.2,1.61-.35,2.63l-.11,0a13,13,0,0,1-4,1c-3.87.2-7.88-.41-11.79-.29-4.25.13-8.5.5-12.73.9a130.1,130.1,0,0,1-24.33-.15c-16.11-1.47-32.37-1.47-48.54-1.88-5.84-.15-11.64,13.55-5.16,13.72,18.06.46,36,1,54,2.37,9.39.71,18.42-.51,27.77-1.06,8.2-.48,16.58,1.35,24.3-2,8-3.43,10.93-9.29,11.5-17.65C519.9,176.21,518.19,166.86,518.07,157.41Z" opacity="0.15"/><path d="M382.51,165.94c-.57-7.19-.46-14.43-.46-21.64,0-14.25.13-28.5,0-42.74,0-3.3-2.73-4.57-5.52-3.19-3.11,1.55-5.33,5.79-5.3,9.19.2,23.66-.9,47.42,1,71,.23,2.83.43,5.67.41,8.5,0,1-.06,2-.13,3a13.63,13.63,0,0,1-3.37,1.46,23.79,23.79,0,0,1-4.3-.07c-7.36-.34-14.77-.15-22.13,0-12.52.34-23.38,1.52-35.2,1.46-14.57-.07-29.15-.66-43.71-1.2-18.93-.7-37.86-1.06-56.8-1.53-5.84-.15-11.64,13.56-5.16,13.72,33.63.85,67.34,2.61,101,2.74,13.11.05,26.2-1.32,39.31-1.57,7.16-.14,14.35.43,21.48.26a23.62,23.62,0,0,0,12.09-4.23c5-3.39,7-8,7.42-13.89C383.72,180.09,383.08,173.12,382.51,165.94Zm-8.22,23.57a.74.74,0,0,1,.26,0A1.18,1.18,0,0,0,374.29,189.51Z" opacity="0.15"/><path d="M182.82,180.13c-.07-8.24-1.34-16.4-1.4-24.65-.12-18,.13-35.95,0-53.92,0-3.3-2.73-4.57-5.51-3.19-3.12,1.55-5.34,5.79-5.31,9.19.15,18.29-.16,36.59,0,54.88.1,9.32,1.81,18.62,1.28,27.95a15.45,15.45,0,0,1-3.37,1.17c-2.67.36-5.44-.34-8.15-.16-5.34.34-10.43,1.62-15.84,1.61-7.27,0-14.53-.57-21.77-1.06-17-1.15-34.05-1.25-51.07-1.68-5.84-.15-11.64,13.55-5.16,13.72,15.16.38,30.39.39,45.52,1.32,11.84.73,23.9,2.23,35.75,1,4.36-.44,8.14-1.37,12.52-1.09a23.35,23.35,0,0,0,16.13-5C182.64,195.24,182.89,187.5,182.82,180.13Z" opacity="0.15"/><path d="M58.23,97.6c.22-2,3-4.61,5.45-5.7,1.94-.88,101.66-.77,103.2-.18,2.44.93,5.64,5.07,5.78,6.1.3,2.19.79,88.84.61,91.88-.08,1.37-2.13,5.21-3.58,5.81-3.3,1.35-102,4.56-108.31-.39a8.5,8.5,0,0,1-3.23-6.85C58,185.84,58,99.58,58.23,97.6Z" fill="#f7941f"/><path d="M374.05,97.6c-.22-2-5.08-5.51-5.77-5.64-1.48-.28-161.12-.2-165.31-.07-1.81.06-7.16,2.23-7.69,3.12-1.28,2.16-1.55,91.65-1.58,94.69,0,4.63,7.36,6.34,11,6.43,4.28.1,158.87,1.54,163.5.71,3.14-.57,5.86-6.09,6-8.57S374.28,99.58,374.05,97.6Z" fill="#f7941f"/><path d="M503.5,91.08c2,.23,5.89,3.34,6.35,8,.15,1.5,1.11,89.54-1.48,94.46-.59,1.13-3.18,3-4.07,3.48-2.16,1.28-103.27,1.7-104.42.64-2.1-1.94-4.82-7.42-4.91-11-.1-4.28-1-84.23-.27-88.29.27-1.47,2.72-7.14,8.13-7.38C405.26,90.9,501.52,90.86,503.5,91.08Z" fill="#f7941f"/><path d="M164,93.86a520.72,520.72,0,0,0-55.45-1.25q-6.84.21-13.68.61a2.84,2.84,0,0,0-2.67-2,62,62,0,0,0-18.67,1.19A7.3,7.3,0,0,0,70,94.56c-7.71-1.85-17.38,10-11.07,17.6a8.62,8.62,0,0,0,2,1.77c-.38,4-.24,8.19-.29,12q-.1,9.21.34,18.42c-.69,3.54-1.39,7.09-2.06,10.64-2.75,14.58-3,36.15,15.59,39.79,5.16,1,11.11-10.21,6.33-13.36-4.44-2.93-5.34-8.4-6.13-13.31-1.15-7.22-1.89-14.53-2.44-21.82q-.24-3.21-.4-6.42,1.89-9.6,3.76-19.21a64.68,64.68,0,0,0,1.67-12.62c1.48-.23,3-.51,4.29-.61q5.94-.44,11.87-.74,10.89-.55,21.79-.65c14.54-.12,29.07.41,43.56,1.5C164.64,108,170.58,94.36,164,93.86Z" fill="#fff" opacity="0.25"/><path d="M369.05,93.2C340.8,91.69,312.62,94,284.43,96c-4.61-.4-9.22-.74-13.81-.93-16.19-.65-32.56,2.87-48.67,1-3.26-.38-6.76-1.76-10-.71a9.46,9.46,0,0,0-3.59,2.2c-2-.14-4-.29-5.95-.48-3.85-.35-7.47,4.89-7.83,8.2A378.47,378.47,0,0,0,194,185.2c.25,2.58,1.68,3.82,3.44,3.76.52,2.36,3.2,3,5.43,1.93,3.35-1.66,5-5.71,5.3-9.19l3.27-39.81q.78-9.45,1.55-18.9.42-5,.82-9.95c0-.39.06-.78.1-1.18,21.73.8,43.44-.54,65.14-2.08q4.37.36,8.71.8c25.79,2.6,52.56,5.61,77.41-3.78a10.51,10.51,0,0,0,6.28-7.19C372.05,97.5,372.22,93.37,369.05,93.2Z" fill="#fff" opacity="0.25"/><path d="M375.47,179.36c0-3.19-.06-6.38-.09-9.58q-.31-30.65-.62-61.29c0-1.59,0-3.17-.05-4.76a.53.53,0,0,0,0-.17c-.11-6.77.05-11.78-8-12.74-5.57-.67-11.32-.31-16.93-.31l-16.2,0q-32.72,0-65.43,0H217.64c-2.5,0-5,.09-7.49.17-6.36.2-15.12-1.19-16.87,6.8-.78,3.54-.06,7.4-.11,11q-.09,5.16-.16,10.33-.47,29.72-.93,59.43c-.07,4.19-.3,8.83.62,12.87,1.6,7,10.19,6.15,15.91,6.26,6.83.13,13.66.25,20.49.31,36.21.36,72.41.77,108.62.51,5.53,0,11,.21,16.56.31,5.93.12,17.63.76,20.26-6.15C376,188.43,375.48,183.5,375.47,179.36Zm-2,1.6c-.05,2.43-.17,4.9-.37,7.31-.35,4.21-2.69,6.24-6.63,7.07-5.16,1.1-10.51,1-15.75.77-14.06-.53-28.11.18-42.17,0q-30.48-.32-60.95-.6l-23.42-.22-4.12,0c-2.83,0-5.65-.11-8.48-.16-5.56-.1-14.53,1.43-16.73-5.43-1.06-3.31-.55-7.71-.5-11.31l.12-9.39q.2-15.72.43-31.42.19-13.28.38-26.53c0-1.54.07-3.07.06-4.61,0-5.56-1.3-12.74,6.29-13.44,4.58-.42,9.33-.39,13.93-.46,11.62-.17,23.25,0,34.87,0,33.4,0,66.8.12,100.19-.09,4.07,0,8.13-.11,12.19,0,3.08.09,5.5.06,8,1.93,3.22,2.38,2.29,5.66,2.44,9.18,0,0,0,.09,0,.13.09,15.65.06,31.3.09,46.95q0,13.06.05,26.13C373.45,178.17,373.48,179.57,373.45,181Z" fill="#1e1e1e"/><path d="M174.43,149.94c-.21-13.95-.53-27.89-.64-41.83,0-5.41,1.79-13.56-4.3-16.39-2.19-1-4.94-.85-7.28-.92-3.6-.12-7.2-.29-10.79-.34-1.13,0-2.25,0-3.38,0H102.92l-18.53,0-4.61,0c-5.49,0-13.07-1.14-18.22,1.24s-4,7.24-4,11.85a1,1,0,0,0,0,.17c-.15,25-.57,50-.84,75-.06,5.48-1.3,14.17,4.1,17.4,5.07,3,13.39,2.56,19,2.33,4.48-.2,8.85,0,13.31.09,14.14.31,28.39-.46,42.53-.71,4.59-.08,9.17-.14,13.76-.24,6.15-.12,13.4.7,19.36-1,5.42-1.54,5.5-5.51,5.79-10.52C175.31,174.05,174.62,162,174.43,149.94Zm-2,34.29c-.09,1.6.16,4-.32,5.47-1.58,5-4.42,5-8.25,5.24-4.17.3-8.4.21-12.57.31-3.71.08-7.42.13-11.13.19l-42.62.72c-6.54.11-13-.09-19.57.06a50.13,50.13,0,0,1-12.17-.91c-5.07-1.14-6.34-3.92-6.65-8.87-.15-2.36-.24-4.71-.26-7.08-.19-25.21-.09-50.45.06-75.67a.5.5,0,0,0,0-.13c.23-4.68-.77-9.16,5.23-10.7,3.64-.94,8.07-.46,11.8-.45,2.35,0,4.71,0,7.06,0q7.45,0,14.9,0l44.16,0c3.09,0,6.19,0,9.27,0,6.44.1,19.32-1.9,20.37,6.56.33,2.68-.12,5.48-.13,8.18,0,11.75.33,23.5.49,35.25.18,12.23.53,24.47.5,36.7C172.66,180.9,172.56,182.55,172.46,184.23Z" fill="#1e1e1e"/><path d="M504.19,94.58a5.81,5.81,0,0,0-3.57,0c-15.56.07-31.06-1.81-46.61-2.4-8.49-.32-17-.4-25.5-.44l-11.41,0c-3.29,0-7-.43-10.15.65a6.5,6.5,0,0,0-.61.25C405.62,91,404.16,90.22,402,91c-3.09,1.14-5.22,4.72-5.84,7.8-3.56,17.62-2.63,35.58-.49,53.32-1.22,12.56-1.08,24.85,1.63,37.43,1.18,5.51,7.84.34,9.1-2.22,6.45-13.1,4.93-30.24,4.32-44.46-.32-7.4-.85-14.79-1.29-22.19-.22-3.86-.43-7.72-.58-11.58,0-1.1,0-2.24,0-3.36,2.64.36,6.39-.29,8.66-.29,3.93,0,7.85,0,11.78.05,7.84.06,15.69.2,23.53.57,15.43.73,30.79,2.57,46.26,2.19C504.41,108.17,511.18,96.63,504.19,94.58Z" fill="#fff" opacity="0.25"/><path d="M510.61,117.83c0-1.42,0-2.84,0-4.26,0-5.81,1.3-13.69-1.23-19.15-2.33-5-7.23-4-11.85-4a1,1,0,0,0-.17,0c-26.23-.14-52.47-.64-78.7-.82-3.46,0-6.91-.12-10.36,0-4.56.19-10.59-.51-13.31,4-3.19,5.34-2.56,14.09-2.27,20,.69,14,.19,28.39.46,42.5.12,5.79.22,11.59.34,17.39.12,5.64-.14,11.47.57,17.08.6,4.83,2.33,7.6,7.3,8.14,11.88,1.3,24.18.31,36.09.15q24-.33,48-.66c3.55-.05,7.1-.16,10.65-.08,4.2.1,9.57.83,12.47-3,1.31-1.75,1.46-4,1.57-6.1.23-4.11.32-8.24.4-12.35.26-12.65,0-25.33,0-38Q510.62,128.26,510.61,117.83Zm-1.92-8.94c0,2.55-.05,5.09-.06,7.63l0,16.91q0,20.17,0,40.35c0,1.87-.06,3.73-.12,5.6-.11,3.43,0,6.93-.34,10.34-.64,7.06-6.61,6.47-11.94,6.35-2.93-.07-5.86,0-8.79,0l-42.21.52c-11.29.14-22.62.52-33.91.4a46.8,46.8,0,0,1-8-.43c-7.08-1.34-7-6.06-7.16-11.76-.09-3.67-.17-7.35-.25-11q-.12-6.33-.23-12.64c-.24-12.64-1.36-25.6-.72-38.22.2-4.07.11-8,0-12.1a50.64,50.64,0,0,1,.91-12.17c1.55-6.83,6.69-6.56,12.52-6.82,2.95-.13,5.91-.07,8.86-.05,26.75.12,53.49-.12,80.24,0a.5.5,0,0,0,.13,0c4.68.23,9.16-.77,10.7,5.23C509.18,100.74,508.7,105.17,508.69,108.89Z" fill="#1e1e1e"/><path d="M523.16,70.83c-16.28,2.19-33.09,1.5-49.47,1.4-11.35-.07-22.7,0-34.05-.1-28.33-.11-56.66-.33-85-.5-26.44-.15-52.88-.36-79.32-.13-29.31.25-58.55,1.68-87.89,1.36-48-.53-96-2.42-144.08-2.44-4.43,0-8.32,5.7-8,9.86,3.32,42-1,84.11,1.4,126.09.19,3.25,2.61,4.61,5.51,3.18a10.82,10.82,0,0,0,5.3-9.19c-2.23-38.67,1.27-77.5-.76-116.18,40.38.19,80.73,1.5,121.1,2.2,32.27.55,64.39-.65,96.63-1.1,54.36-.76,108.75.29,163.11.55,12.33,0,24.66,0,37,.09,18.57.13,37.53.88,56-1.6C526.17,83.57,530.87,69.8,523.16,70.83Z" opacity="0.2"/><path d="M69.47,38.13c-1.13-3.12-5-3.3-7.73-2.26a7.58,7.58,0,0,0-5.13,6.69c-.24,2.92.31,6.47,3.14,7.94,3.11,1.62,6.93.72,9.73-1.06,1.47-.93,0-3.31-1.35-2.31a7.52,7.52,0,0,1-6.06,1.53c-2.43-.58-3-2.68-3-4.93A5.2,5.2,0,0,1,62,38.51c2.39-1.19,4-.51,6.17.64.64.33,1.6-.24,1.32-1Z" fill="#7f3f98"/><path d="M86.41,38.82a1.12,1.12,0,0,0-.53-.73c-1.91-3-6.35-3.45-9.3-1.68C73,38.58,70.9,43.84,72.82,47.75c1.73,3.54,7.2,4.8,10.66,3.19C88.19,48.75,87.4,42.91,86.41,38.82ZM83.28,48c-2.09,1.84-7.08,1.14-8.31-1.36-1.39-2.8.29-6.66,2.82-8.19,2.23-1.36,4.5-.71,6.28.87a.34.34,0,0,1,0,.1C84.73,42.11,85.68,45.92,83.28,48Z" fill="#7f3f98"/><path d="M103.79,42.18c0-1.86.12-4.32-1.37-5.71-2.2-2-6.36-.76-8.53,1.31a12.22,12.22,0,0,0-.27-1.34,1.07,1.07,0,0,0-2.09.28c-.06,2.72,0,5.44,0,8.16,0,1.6-.68,4.64.33,6a1.33,1.33,0,0,0,2.27,0l0-.08a1.37,1.37,0,0,0,0-1.2c-.44-2.09,0-4.65,0-6.76,0-.92,0-1.84,0-2.76,2.49-1.11,6.93-4.29,7.1.68.11,3-.35,6-.49,9-.07,1.47,2.3,1.83,2.59.35A39.19,39.19,0,0,0,103.79,42.18Z" fill="#7f3f98"/><path d="M113.7,48.64c-2,.93-2.11-6.93-2.17-8.16,0-.88,0-1.76,0-2.63a7.78,7.78,0,0,0,2.74-.21,1.22,1.22,0,0,0,0-2.33,7.09,7.09,0,0,0-2.73-.13c0-1,0-2-.07-3s-1.77-1.49-2.06-.28a31.33,31.33,0,0,0-.53,3.47,6.82,6.82,0,0,0-2.19.53,1,1,0,0,0,.24,1.82,6.76,6.76,0,0,0,1.75.18c-.37,6.75.44,15.82,6.49,13.17C116.79,50.36,115.36,47.9,113.7,48.64Z" fill="#7f3f98"/><path d="M129.84,41.53c-.23-1.82-.64-3.88-2.14-5.1-2.07-1.67-8-1.81-8.77,1.35a.64.64,0,0,0,.45.79c2.72.55,6.08-2.82,7.53,1.54a12.9,12.9,0,0,1,.48,2.18,6.76,6.76,0,0,0-6.06-.72c-2.93,1.14-4.45,3.11-3.94,6.4.75,4.74,6.62,4.38,10.1,1.78,0,.22,0,.45,0,.67h0c.07,1.78,2.92,1.9,2.83,0C130.21,47.46,130.21,44.47,129.84,41.53Zm-5.43,7c-1.78.65-4.59.74-4.51-1.85,0-1.87,1.69-2.84,3.46-3s2.88.9,4.24,1.71l0,0A4.81,4.81,0,0,1,124.41,48.56Z" fill="#7f3f98"/><path d="M137.22,37.14a1.25,1.25,0,0,0-1.21-.92h-.17a1,1,0,0,0-.85.49c-.69,1.45-.33,3.65-.37,5.22-.05,2.74-.13,5.5-.08,8.25,0,1.89,2.9,1.55,2.69-.09C137.42,46,138,41.17,137.22,37.14Z" fill="#7f3f98"/><path d="M137.27,31.2a1.61,1.61,0,0,0-2.94-.21,1.68,1.68,0,0,0,1.94,2.36,1.18,1.18,0,0,0,.94-1.05A1.54,1.54,0,0,0,137.27,31.2Z" fill="#7f3f98"/><path d="M153.94,40.92c-.09-1.65-.22-3.57-1.78-4.55-2.17-1.37-5.77.17-8,2.13a8.45,8.45,0,0,0-.41-1.9.8.8,0,0,0-1.43-.19c-1.34,2.28-.79,5.4-.62,7.94.1,1.51.21,3,.28,4.53,0,.86-.07,1.56.63,2.16s2,.46,2.12-.56v-.1a1.1,1.1,0,0,0,0-.25h0c-.11-2.27-.29-4.53-.45-6.8-.05-.63-.05-1.28-.06-1.94,2.15-1.37,6.09-4.75,7-1.45.4,1.38.13,3.25.17,4.68.05,1.65,0,3.32.19,5-.34,1.56,2.67,2.16,2.71.14C154.4,46.81,154.11,43.84,153.94,40.92Z" fill="#7f3f98"/><path d="M170.86,47.56c-1.78,1.44-5.15,2.25-7.27,1.08a5.39,5.39,0,0,1-2.5-4.11c3.52-.06,7-.33,10.54-.55A1.4,1.4,0,0,0,173,42.22c-.84-3.86-2.55-7.24-7-6.93A8.09,8.09,0,0,0,158.54,42c-.55,3.3.68,7.16,3.71,8.89,3.25,1.87,7.78.77,10.55-1.43C174.18,48.41,172.23,46.46,170.86,47.56Zm-5.67-9.39c2.81-.64,4,1,4.68,3.17-2.89.2-5.77.42-8.64.76A5.32,5.32,0,0,1,165.19,38.17Z" fill="#7f3f98"/><path d="M185.11,36.08c-1.45-.79-3.48.37-4.67,1.26a9.94,9.94,0,0,0-.92.8,5.31,5.31,0,0,0-.54-1.52.81.81,0,0,0-1.38,0c-1.09,2-.68,4.43-.7,6.63s-.48,5.13.26,7.37a1.3,1.3,0,0,0,2.54-.34c-.08-2.51,0-5,0-7.54,0-.38,0-.75,0-1.13A11.35,11.35,0,0,1,182,39.36c1.05-.65,2.45-.56,3.34-1.38A1.22,1.22,0,0,0,185.11,36.08Z" fill="#7f3f98"/><path d="M267.35,53A40.3,40.3,0,0,0,264,56.94l-.44.63c1.91-13.29-5.9-24.71-19.42-28-16.5-4.07-36,2.66-50.31,10.63a1,1,0,0,0,.75,1.78c6.34-2,12.28-5.19,18.63-7.26a67.71,67.71,0,0,1,22.3-3.57c7.17.17,14.45,2.22,19.72,7.29,5.58,5.37,6.24,12.23,5.48,19.35-.93-1.86-1.72-3.83-3.24-5.18-.51-.45-1.53-.18-1.47.61.16,2,1.44,3.7,2.37,5.4.66,1.21,1.46,4.06,3,4.37s2.64-1.72,3.45-2.73a53.55,53.55,0,0,0,4.41-5.7A1.24,1.24,0,0,0,267.35,53Z" fill="#7f3f98"/></g></svg>