<svg xmlns="http://www.w3.org/2000/svg" viewBox="0 0 490 215"><title>flex-order</title><g id="b04fa2b5-8d10-44d3-8e78-c2f14e356b00" data-name="Layer 10"><path d="M478.2,165.21a4.85,4.85,0,0,0-.54-.3l.06-.08c3.37-4.84,10.34-19.87-.36-21.51l-1.22-.16a29.11,29.11,0,0,0,3.36-6.6c1.29-3.64,2-7.94.68-11.69-1.94-5.58-6.54-5.68-11.65-5.88-15.51-.6-31.07-.36-46.6-.43l-189.08-.78c-71.42-.29-142.84-.55-214.26-.06-7,0-12.4,6.73-14.67,12.83-1.46,3.9-2.69,14.15,3.86,14.59-2.2,3.48-3.56,7.52-3.24,11.1.44,4.6.18,7.95-1.38,11.84-1.4,3.48-2.31,11.21,1.51,13.77a16.6,16.6,0,0,0-.41,8.51c1.67,6.14,6.75,9,12.85,9.32s11.56-.8,16.71-1.2q25.14-1.93,50.27-3.86,8.41-.63,16.85-1.23,3.48.21,7,.47c16.36,1.22,32.78,4.17,49.17,4.48,14.62.28,29.14-.89,43.78-.17,44.17,2.18,88.49.33,132.68-.28,9.2-.13,18.42-.24,27.63-.09,5.5.09,11.23,0,16.64,1.09,3.39.68,6.88-1.3,9.75-4.46,17.44,1.85,35,3.44,52.52,2.95,5.18-.14,10.89-.14,16.41-.67,3,1.56,6.79,1,10.16-.7a21,21,0,0,0,4.77-3.4,26.64,26.64,0,0,0,8.63-10.7C482.48,176.78,483.91,168.77,478.2,165.21Zm-40.58-5.64c-8,.69-16,.87-24,.83l1.7-.08c7.38-.39,15-.7,22.63-1.45C437.81,159.1,437.71,159.33,437.62,159.57Zm-411.9-17.8a.33.33,0,0,1-.08-.11v0S25.66,141.64,25.72,141.77Z" fill="#995db5"/><path d="M480.05,66.83l-4-3A49.47,49.47,0,0,0,480,42.89a9.6,9.6,0,0,0-.65-3.35c2.68-6.25,4.08-14.33-3.59-15.58-59-9.62-118.48-10.52-177.87-4.42-14.88,1.53-29.76,3.19-44.73,3.64-14.3.42-28.57-.52-42.82-1.68a848.23,848.23,0,0,0-89.91-2.41c-33.31.81-66.7,2-99.91-1.5C9.88,16.47-1.13,39.44,7.51,44.22,2.12,58.66-.44,77.29,5.51,92,9,100.71,17.24,100,25.22,99.93q12.64,0,25.28-.37c33.9-.93,67.7-2.85,101.63-2.53,67.9.64,135.7,6,203.62,5.23,38.23-.43,76.49-2.89,114.26-9C479.24,91.82,488.78,73.45,480.05,66.83Z" fill="#995db5"/><path d="M471.85,20.4c-12.11,1.78-24.83,1.08-37,1-13.52-.11-27-.47-40.55-.6-24-.24-48.11-.2-72.16-.37-28.65-.2-57.31-.45-86-.39-26.89.06-53.72,1.65-80.6,1.73-47.74.15-95.46-1.71-143.2-1.73C8.92,20,7,24,6.77,26.93c-1.83,21-1,42.31-.27,63.31.21,6.19,7.71-.18,7.57-4.2-.63-18.69-1.37-37.67-.24-56.39,41.27.13,82.52,1.46,123.79,1.7,29.15.16,58.22-1.52,87.35-1.68,53.63-.3,107.26.76,160.89.71,13.86,0,27.72.44,41.58.58,14.06.14,28.67.94,42.63-1.11C474,29.28,477.23,19.61,471.85,20.4Z" opacity="0.2"/><path d="M479.53,78.55c0-3.78-.24-7.59-.37-11.38-.32-9.79-.85-19.59-1-29.38-.06-5.22,1.58-12.15-3.36-15.77-2.89-2.13-6.95-1.87-10.35-2-4.49-.13-9-.32-13.47-.38-1.52,0-3,0-4.54,0l-82.16,0H226.69l-130.88,0c-20.14,0-40.29.09-60.44.05-6.65,0-13.48-.41-20.09.37-3,.36-6.2,1.07-8.08,3.66C5,26.8,6,30.49,5.93,33.9a1,1,0,0,0,0,.17C5.73,51.69,4.2,69.73,5.7,87.31c.69,8.1,6.23,9.37,13.62,10.24,9.63,1.12,19.45.22,29.12.61,1.53.06,3.06,0,4.59,0l84.12,0q69.63,0,139.27-.33,62.91-.15,125.83-.33l36.95-.1,8.27,0h1.17c5.24,0,10.48-.17,15.72-.33,3.6-.1,7.77-.08,11-1.88C480.53,92.26,479.49,83.46,479.53,78.55Zm-3.63,13c-2.66,4.34-12,3.15-16.45,3.25s-9.13.21-13.7.23l-26.66.06q-55.71.14-111.42.29-68.81.18-137.62.38-51.12.15-102.23.43c-6.36,0-12.74.25-19.09.09-4.8-.12-9.45-.38-14.27-.15a91,91,0,0,1-16.91-.58c-3.94-.55-8.73-1.76-10-6.14-.84-2.92-.62-7.08-.66-10.1-.11-7.73.16-15.49.24-23.22.08-7.37.14-14.73.24-22.09a.7.7,0,0,0,0-.14c.14-3.32-.7-6.26,1.55-9,2.4-2.94,5.77-3,9.36-3.13,5.65-.23,11.32-.11,17-.08h8.34q16.88,0,33.76,0,58.61,0,117.21.05L332,21.8l100.3,0c6.14,0,12.29-.07,18.43,0,5.23.07,10.49.18,15.71.44,4.18.21,8.38.68,9.56,5.52.58,2.36.13,5.19.06,7.59,0,1.27,0,2.47,0,3.73q.48,15.14.94,30.25c.1,3.14.34,6.3.3,9.44C477.23,82.36,477.76,88.55,475.9,91.59Z" fill="#1e1e1e"/><path d="M94.3,71.05c-1.11-11.8-.41-23.79-.51-35.64,0-2.64-2.17-3.64-4.41-2.54-2.49,1.22-4.26,4.63-4.24,7.35.07,7.55,0,15.11,0,22.67,0,3.73,0,7.43.34,11.14.16,1.82.39,3.64.46,5.47a10.83,10.83,0,0,1-.07,1.2c-3.39.72-8.12-.17-10.87,0-5.22.24-10.36,1-15.59.52-10.9-.91-21.82-1-32.76-1.21-4.68-.1-9.31,10.86-4.13,11,10.68.23,21.37.21,32,1.14,5.21.46,10.28-.13,15.49-.41,4.46-.24,9.43.64,13.79-.3C94.09,89.16,95.14,80.05,94.3,71.05Z" opacity="0.15"/><path d="M88,34.23c-.13-1-4-3.33-4.37-3.4-.86-.14-58.94.16-61.38.23-1.05,0-3.71,4.19-3.67,5.39,0,.78-.34,43.62-.24,45.19.05.7,4.29,3.26,6.39,3.3,2.49.06,56.64.53,59,.15a8.86,8.86,0,0,0,2.42-.66c1.63-.81,2-6,2.09-7.29C88.19,77.14,88.08,35.25,88,34.23Z" fill="#f7941f"/><path d="M178.44,74.7c-.43-13.11-.57-26.16-.66-39.29,0-2.64-2.18-3.63-4.41-2.54-2.5,1.22-4.27,4.63-4.25,7.35.06,7.55,0,15.11,0,22.67,0,3.72,0,7.43.28,11.14.14,1.82.33,3.64.39,5.47,0,.2,0,.65,0,1.18-1.58.16-3.34-.17-4.82-.15-3.26,0-6.49.37-9.73.64a99.2,99.2,0,0,1-13.13-.06c-10.9-.52-21.79-.85-32.71-1.14-4.67-.12-9.31,10.84-4.13,11,9.84.26,19.67.45,29.49,1,4.26.23,8.54.5,12.8.43,5-.07,10-.93,15-.84,4.39.07,8.14,0,11.7-3C178.34,85,178.61,79.73,178.44,74.7Z" opacity="0.15"/><path d="M171.08,34.23c0-2.13-2.54-2.83-2.88-2.9-.74-.14-59.08-.54-63.62.47-.88.19-4.41.93-4.41,4.65,0,.78-.3,43.62-.21,45.19,0,.7,3.67,3.26,5.46,3.3,2.14.06,59.49.53,61.51.15.74-.14,4.13-3.41,4.19-4.69S171.07,35.26,171.08,34.23Z" fill="#f7941f"/><path d="M470.32,64.66c-.31-9.74.06-19.51,0-29.25,0-2.64-2.18-3.64-4.41-2.54-2.5,1.22-4.27,4.63-4.25,7.35.07,7.55,0,15.11,0,22.67,0,3.73,0,7.43.33,11.14.17,1.82.39,3.64.47,5.47,0,.21,0,.61-.06,1.08a27,27,0,0,1-4.13,0c-3.1-.08-6.21.07-9.31.26s-6.41.53-9.64.57c-7.37.09-14.75-.1-22.12-.25-17-.34-34.08-.77-51.12-1.15-4.67-.1-9.31,10.86-4.13,11,23.4.52,46.82,1.4,70.22,1.41,4.54,0,9-.37,13.51-.63,7-.41,15.2,1.46,21.12-3.34C473.67,82.82,470.57,72.17,470.32,64.66Z" opacity="0.15"/><path d="M464.45,34.23c-.13-1-3-2.83-3.37-2.9-.86-.14-95.52-.09-98,0-5.17.12-5.21,3.95-5.17,5.15,0,.78-.34,43.62-.24,45.19.05.7,4.29,3.26,6.39,3.3,2.49.06,91.46.6,92.91.64,2.45.06,7.42-3.4,7.48-4.68S464.58,35.25,464.45,34.23Z" fill="#f7941f"/><path d="M270.9,39.19c0-2.65-2.17-3.64-4.41-2.55-2.49,1.22-4.27,4.64-4.24,7.35q.18,17.65.1,35.31c-22.72.83-45.54,2-68.26,1.56-4.67-.08-9.29,10.88-4.12,11,24.84.45,49.8-1,74.62-1.79,3.75-.13,6.37-4.45,6.39-7.89Q271.12,60.67,270.9,39.19Z" opacity="0.15"/><path d="M183.76,37.63a8.67,8.67,0,0,1,4.55-5.09c4.92-2.47,66.63-.87,68.51-.43,6.77,1.59,6.54,7.5,6.45,9.83,0,1.51.71,33,.5,36-.09,1.36-2,4.12-3.28,5.27-2.32,2.09-75.92,1.14-75.92,1.14S182.13,41.79,183.76,37.63Z" fill="#f7941f"/><path d="M352.87,38.85c0-2.64-2.17-3.64-4.41-2.54-2.49,1.22-4.26,4.63-4.24,7.35q.15,17,.08,33.92c-18.36.8-36.81,1.85-55.16,1.47-4.67-.1-9.3,10.87-4.13,11,20.47.43,41.08-.93,61.54-1.73,3.74-.14,6.37-4.43,6.39-7.89Q353,59.62,352.87,38.85Z" opacity="0.15"/><path d="M346.47,68.44c-.37,5.32.8,12.73-5.45,14.44-8.39,2.3-64.9-1.11-64.9-1.11s-.61-40.56-.43-43.5c.08-1.32.3-6.85,11.76-6.21,4.39.25,57.74,0,57.74,0S346.85,63.12,346.47,68.44Z" fill="#f7941f"/><path d="M53.09,48.74c-1.61,1.47-3.27,2.91-4.74,4.52-.77.84.28,2.43,1.28,1.66s2.07-1.68,3.06-2.57c-.1,5.33-.2,10.66-.27,16a1.33,1.33,0,0,0,2.65,0c0-6.25,0-12.5.08-18.75A1.22,1.22,0,0,0,53.09,48.74Z" fill="#fff"/><path d="M137.08,49.59a1.22,1.22,0,0,0-2.06-.85c-1.56,1.26-3.3,2.12-4.74,3.52-.85.82.26,2.34,1.28,1.66s2.1-1.33,3.13-2c.11,5.49.67,11,.66,16.44a1.33,1.33,0,0,0,2.65,0C137.92,62.08,137.08,55.86,137.08,49.59Z" fill="#fff"/><path d="M223.28,48.74c-1.71,1.42-3.68,2.44-5.24,4-.82.83.26,2.35,1.28,1.66,1.17-.78,2.36-1.55,3.51-2.36-.2,5.43-.62,10.85-.72,16.28a1.33,1.33,0,0,0,2.65,0c0-6.26.47-12.5.58-18.75A1.22,1.22,0,0,0,223.28,48.74Z" fill="#fff"/><path d="M317,65.43c-3,0-6-.18-9-.13,4.91-3.76,11.08-8.66,9.39-14.8-1.75-6.36-9.9-3.6-13.51-.69a1,1,0,0,0,1,1.66,40.72,40.72,0,0,1,5.06-2c2.53-.61,4.48.24,5.05,3.07.3,1.49-1.29,3.73-2.18,4.8-2.73,3.28-6.47,5.86-9.73,8.59a1.31,1.31,0,0,0,.91,2.21,63,63,0,0,1,13.09.31C318.91,68.64,319,65.42,317,65.43Z" fill="#fff"/><path d="M417.7,58.8c2.89-1.51,4.88-4.12,3.4-7.89-2.21-5.65-10.16-3.11-13.44,0-.88.84.24,2.13,1.25,1.62,2.12-1.05,8-4.37,9.73-.47,1.62,3.71-3.77,5.3-6.34,5.51a1.39,1.39,0,0,0,0,2.77c1.8.06,8.05.58,6.58,4.37-1.38,3.58-7.52,3.78-9.54.82-1-1.48-3.44-.08-2.42,1.41,3.32,4.83,10.8,4.37,14.08-.4C423.57,62.79,421,60.2,417.7,58.8Z" fill="#fff"/><path d="M84.78,32.3a99.3,99.3,0,0,0-30.29-1.24c-5,.49-10,1.19-15,1.85S29,34.78,24.74,31.31c-2.51-2-5.65,3.83-5.49,5.7q.81,9.93,1.63,19.86a44.1,44.1,0,0,0-.16,25.07c1.15,3.94,5.24-.81,6-2.42,3.07-6.73,1.67-14.17,1.08-21.29Q27.1,50,26.42,41.77c6.71,1.18,14.93-1.26,20.92-2,11.56-1.41,22.9-1.65,34.35.75C85.05,41.24,88.8,33.15,84.78,32.3Z" fill="#fff" opacity="0.25"/><path d="M169.71,32.3c-10.77-1.06-21.56-1.89-32.39-2-5.56-.07-11.13,0-16.69.37-4.21.26-9.92,0-13.87,1.5C99.5,35,101,48.71,101.23,54.69c.11,2.68.34,5.36.67,8a9.17,9.17,0,0,0-.84,2.18c-1.63,7.42-1.83,16,6.53,19.45,3.08,1.27,6.3-4,5.37-6.58a92.13,92.13,0,0,1-4.65-19.22c-.68-5.55-1.64-13-.53-19,2-.34,4.43-.27,5.84-.39,2.61-.22,5.22-.37,7.84-.48,4.91-.2,9.82-.23,14.73-.13,10.17.21,20.31,1,30.43,2C170.09,40.87,173.69,32.69,169.71,32.3Z" fill="#fff" opacity="0.25"/><path d="M260.7,33.88l-.82-.45a2.37,2.37,0,0,0-2.49.19c-20.7-.39-41.8-1.82-62.41.06-3.44.31-6.36.34-8.39,3.45a10.69,10.69,0,0,0-1.48,6.12,83.61,83.61,0,0,0-2.33,22.12c.14,4-.24,16.44,4.26,18a2.93,2.93,0,0,0,3.14-.77c4.78-4.83,3.06-12.42,2.75-18.58q-.35-6.6-.68-13.2l-.33-6.6c0-.83-.09-1.67-.13-2.51a99.12,99.12,0,0,1,12.45-.49c5.68-.09,11.37.05,17.06.13l35.6.51C259.72,41.94,264,35.73,260.7,33.88Z" fill="#fff" opacity="0.25"/><path d="M341.39,33a270,270,0,0,0-30.49-1.52c-9,0-18.63-.65-27.4,1.76-8,2.19-7.21,9.95-7.34,16.79A145.9,145.9,0,0,0,278.1,79.3c.4,2.15,2.86,1.33,4,.45a6.31,6.31,0,0,0,2.24-5.82,125.75,125.75,0,0,1-1.75-23.65c0-1.91,0-3.81.09-5.71,0-1.63.83-4-.61-3.49,3-1.27,8-1.06,10.83-1.21a270.82,270.82,0,0,1,45.38,1.4C341.75,41.68,345.38,33.51,341.39,33Z" fill="#fff" opacity="0.25"/><path d="M463.34,35.07c-7.27-3.08-16.21-2-24-2.24l-26.83-.72c-8.88-.24-17.75-.6-26.63-.6-4.56,0-9.12.11-13.67.45-2.36.18-4.6.2-6.59,1.16-1.33-3.3-5.88,2-6.11,4a19,19,0,0,0,.82,8.94c-.09,12.29-6.64,24.48.08,36.48,1.85,3.32,7.3-3.72,5.58-6.8-3.74-6.68-2.18-14.23-.79-21.34.3-1.54.58-3.07.82-4.6a10.94,10.94,0,0,0,2.34-3.88,19,19,0,0,0,.53-6.1c2.88-.21,6.64.05,8,0,3.91-.1,7.82-.08,11.73,0,7.92.15,15.83.41,23.74.62l23.86.64c7,.19,16-1,22.55,1.81C462.31,44.34,466.61,36.46,463.34,35.07Z" fill="#fff" opacity="0.25"/><path d="M465.16,34c-.94-3.38-3.2-3.32-6-3.39-4.43-.11-8.86-.11-13.3-.16-14.13-.15-28.27-.2-42.4-.28-10.34-.05-20.68-.17-31-.16a57,57,0,0,0-12,1.29c-4.32.94-3.42,4.78-3.45,8.58-.1,11.83-.57,23.66-.64,35.49a35,35,0,0,0,.27,6.23c.74,4,3.78,4.29,7.52,4.44,2.83.11,5.67,0,8.5.08,23.38.21,46.88,1.11,70.26.56,3.09-.07,6.17-.16,9.27-.19s7.17.51,9.93-1.27c4.55-2.94,3.48-7.14,3.46-11.85-.06-13,.63-26.24-.36-39.18-.07-.9-1.49-.91-1.42,0,.78,10.13,0,20.63-.12,30.78,0,4.64.66,10-.14,14.58-1.16,6.58-10.94,4.67-15.94,4.7-20.86.12-41.74-.14-62.62-.3l-15.35-.12c-4.57,0-10,.64-10.94-5.36-.59-3.58,0-7.58,0-11.17q.15-9.69.31-19.38c.05-3.5.07-7,.11-10.49a11.51,11.51,0,0,1,.06-2c.65-2.83.12-1.21,1.83-2.07,1.37-.69,3.66-.6,5.16-.8s3.21-.39,4.83-.43c8-.21,16.08.06,24.1.1l43.23.17c5.68,0,11.35,0,17,.05,2.56,0,7.36-1.19,8.43,2A.74.74,0,0,0,465.16,34Z" fill="#1e1e1e"/><path d="M346.36,32.07A1.14,1.14,0,0,0,345.25,31c-14.68-.07-29.32-.64-44-.34-5.55.11-11.1.21-16.65.36-4.74.13-8.72.17-9.78,5.5-1.38,6.89-.12,14.91,0,21.89.14,7.85.14,15.72.45,23.57a1.08,1.08,0,0,0,1.05,1c13.16,1.44,26.41,1.22,39.63,1.21,5,0,10.08.07,15.12,0,3.32,0,9.33.55,12.43-1.09,1.86-1,2.73-3.63,3.16-5.66a.7.7,0,0,0,0-.32c.65-7.26.43-14.68.56-22A165,165,0,0,0,346.36,32.07Zm-9.54,50c-3.7.23-7.42.12-11.13.09-4.54,0-9.09,0-13.64,0-11.6,0-23.19,0-34.73-1.17-.5-13.4-.62-26.88-.56-40.28a16.41,16.41,0,0,1,0-2.43c1-5.85,6.52-5,11.16-5.09s9.25-.21,13.87-.29c7.42-.14,14.84-.26,22.25-.28,6.75,0,13.45.5,20.17.56a192.51,192.51,0,0,1,1.13,22c0,7.21.49,14.65-.14,21.84l0,0C343.8,82,341.64,81.78,336.82,82.09Z" fill="#1e1e1e"/><path d="M264.86,64.6c-.12-6.93-.35-13.87-.41-20.8-.06-6.51-.94-11.76-8.41-12.74-7.88-1-16.16-.57-24.12-.57-6.6,0-13.19,0-19.79,0-7,0-14.43-.65-21.32.56-3.78.66-6.85,2.37-7.62,6.38a.76.76,0,0,0,0,.26c-.79,7.76-.49,15.75-.63,23.54a151.51,151.51,0,0,0,1.06,23.42,1.1,1.1,0,0,0,1.07.82c12.62,0,25.21.68,37.86.53q6.91-.08,13.82-.21c6.24-.13,12.59.09,18.8-.51,3.33-.32,7.61-.93,9.22-4.33C266.44,76.63,265,69.14,264.86,64.6Zm-2.08,12c-.24,2.63-1,4.83-3.79,5.73-3.76,1.21-8.17.88-12.06,1q-10.31.19-20.63.36c-8.38.13-16.76.24-25.15.16-2.62,0-5.25,0-7.87-.23-1.05-.08-2.08-.2-3.13-.25s-2.11-.06-3.17-.08a11.79,11.79,0,0,1-1.56-.15c-.58-1.88-.42-4.86-.56-6.6-.21-2.65-.41-5.33-.48-8-.07-2.88,0-5.78,0-8.66,0-7.24-.51-14.77.2-22l0-.06c2-7.75,17.3-5.39,23.4-5.35l8.92.05c6.79,0,13.58-.05,20.37,0,5.67.07,11.45,0,17.1.47,5.81.43,7.79,3.29,7.9,8.91,0,.8,0,1.59,0,2.39.1,7.76.29,15.51.4,23.27A85,85,0,0,1,262.78,76.63Z" fill="#1e1e1e"/><path d="M172.27,63.54c-.09-9.68.28-19.5-.35-29.16a.65.65,0,0,0,0-.34c-.63-2.77-2.15-3.29-4.59-3.39-3.76-.14-7.53-.14-11.28-.19-10.84-.15-21.69-.23-32.53-.31-6.69,0-13.16-.38-19.76.89C98.83,32,99.21,34,99.19,38.8c0,2.91-.09,5.82-.14,8.73-.15,9.53-.5,19.08-.46,28.61,0,4-.66,8.35,3.81,9.64,2.8.82,6.56.35,9.44.4l32.36.44c2.87,0,5.75.15,8.61.11,4.42-.07,11.2,1,15.31-.67,3.15-1.26,4.25-4.29,4.26-7.31C172.39,73.68,172.31,68.61,172.27,63.54Zm-2.13,16.4c-.95,5.44-7.54,4.34-11.79,4.35-2.81,0-5.58.17-8.38.13L122.37,84l-12.89-.17c-1.08,0-2.16,0-3.24,0-3.82-.14-5.15-1.39-5.34-5.32-.34-7.18.06-14.44.16-21.63.08-6.79,0-13.61.22-20.39.13-3.31,1.06-3.1,4.12-3.63a43.31,43.31,0,0,1,5.67-.73c2.14-.08,4.3,0,6.44,0l31.29.2,14.06.08c2.55,0,6.71-1.11,7.63,2l0,0c.43,6.77-.06,13.71-.12,20.48q-.06,7.58-.14,15.17C170.21,73.23,170.68,76.85,170.14,79.94Z" fill="#1e1e1e"/><path d="M89.27,75.28c0-4.57-.11-9.15-.17-13.73-.12-9,.25-18.16-.44-27.14a.66.66,0,0,0,0-.37c-1.28-4.73-7.11-3.81-11-3.89-2.53,0-5.07,0-7.61-.06q-14.64,0-29.3,0c-3.09,0-6.19,0-9.29,0-3.32,0-8.15-.62-11.25.72-4.43,1.92-2.79,13.61-2.86,17.62-.16,9.07-.46,18.14-.5,27.22,0,3-.67,7.47,2.09,9.36,2.6,1.77,7.21,1.13,10.32,1.19l29.91.47c2.44,0,4.9.18,7.34.1,5.72-.18,15,1.71,20.12-1.33C90.05,83.38,89.29,78.71,89.27,75.28Zm-2-22.23c0,7.61,0,15.23-.13,22.84,0,.73,0,1.45-.06,2.19C86.92,81,86.2,82.92,83.38,84c-2.23.85-5.61.47-8,.41-3.45-.08-6.87,0-10.31,0-7.86,0-15.73-.25-23.59-.36L29.3,83.89c-4.58-.07-9.88.22-10.15-6.16-.26-6.11.11-12.28.2-18.39.1-6.81.28-13.62.31-20.42,0-1.84-.24-3.27.85-4.88,1.21-1.8,2.14-1.56,4.16-1.67,1.54-.08,3.09-.14,4.63-.19,1.87,0,3.74,0,5.61,0l28.74-.05c4.32,0,22.12-1.91,23.58,2.35,0,0,0,0,0,0C87.71,40.59,87.25,46.91,87.22,53.05Z" fill="#1e1e1e"/><path d="M479.51,173.45q-.12-16.3-.23-32.63c-.06-8.76,2.61-20.82-8.94-21.86-6.09-.54-12.26-.76-18.38-.78-24.71-.11-49.42,0-74.12,0H238.62l-136.58,0c-22.59,0-45.17.11-67.75.06-3.64,0-7.29-.06-10.93,0-6.34.12-15.94-.61-17.49,7.4a.75.75,0,0,0,0,.26c-.81,8.8-.31,17.89-.39,26.72-.07,8.38-.19,16.77-.2,25.16,0,4.21-1,11.51,1.88,15,1.57,1.93,4.19,2,6.52,2.41a92.07,92.07,0,0,0,15.91,1.3l4.67,0q42.81-.06,85.63,0,71.54,0,143.09-.28L395.5,196c21.71-.06,43.43.16,65.13-.36,6-.15,16.08,1,18.11-6.44C480.05,184.35,479.55,178.52,479.51,173.45Zm-7.73,19.16c-6.17,1.88-14.38.89-20.77.95-1.75,0-3.5,0-5.25,0l-31.33.07q-59.19.12-118.4.26-71.26.16-142.53.36-52.14.13-104.29.44c-6.45,0-12.89,0-19.34.11-5.95.07-13.59.4-19.21-1.81-5.07-2-3.73-11-3.74-15.56,0-9.1,0-18.2.1-27.3,0-7.91-.45-16.08.25-24l0,0c1.54-7.37,11.39-6,17-6,3.2,0,6.39,0,9.58,0H44q18.34,0,36.7,0,61.57,0,123.15,0l140.75,0,96.11,0c6.48,0,12.94,0,19.42.23,3.23.13,6.47.26,9.7.53a13.73,13.73,0,0,1,3.63.45c4.22,1.69,3.8,7,3.68,10.69-.1,3.35-.08,6.68-.06,10q.09,15.89.17,31.78C477.31,180,478.46,190.58,471.78,192.61Z" fill="#1e1e1e"/><path d="M93.8,169.55c-1.11-11.8-.41-23.79-.51-35.64,0-2.64-2.17-3.64-4.41-2.54-2.49,1.22-4.26,4.63-4.24,7.35.07,7.56,0,15.11,0,22.67,0,3.73,0,7.43.34,11.14.16,1.82.39,3.64.46,5.47a11.11,11.11,0,0,1-.07,1.21c-3.39.72-8.12-.18-10.87-.05-5.22.24-10.36,1-15.59.52-10.9-.91-21.82-1-32.76-1.21-4.68-.1-9.31,10.86-4.13,11,10.68.24,21.37.21,32,1.14,5.21.46,10.28-.13,15.49-.41,4.46-.24,9.43.64,13.79-.3C93.59,187.66,94.64,178.55,93.8,169.55Z" opacity="0.15"/><path d="M87.45,132.73c-.29-2.13-4.17-3.07-4.57-3.14-.86-.14-57.25,0-59.68.21A6.17,6.17,0,0,0,18,135c0,.78-.34,43.62-.24,45.19.05.7,1.69,2.24,2.31,2.83,1.13,1.08,60.72,1,63.08.62.86-.14,4.24-2.91,4.31-4.19S87.58,133.75,87.45,132.73Z" fill="#f7941f"/><path d="M177.94,173.2c-.44-13.11-.58-26.16-.68-39.29,0-2.64-2.18-3.63-4.41-2.54-2.5,1.22-4.26,4.63-4.24,7.35,0,7.56,0,15.11,0,22.67,0,3.72,0,7.43.29,11.14.14,1.82.33,3.64.4,5.47,0,.2,0,.64-.06,1.17-1.46.14-3-.15-4.46-.14-3,0-6,.25-9,.52a102.64,102.64,0,0,1-14,.09c-11.29-.52-22.56-.88-33.86-1.17-4.67-.12-9.31,10.85-4.13,11,10,.26,20,.45,29.93,1,4.49.24,9,.54,13.5.43,4.77-.12,9.49-.88,14.28-.84,4.58,0,8.5.12,12.25-3C177.83,183.51,178.1,178.23,177.94,173.2Z" opacity="0.15"/><path d="M169.87,132.73c-.11-1-1-3.27-5.1-3.11-3.08.11-56-.06-60.74.68A4.85,4.85,0,0,0,99.66,135c0,.78-.29,43.62-.2,45.19,0,.7,2.74,2.81,3.27,3.4,1,1.08,61,.93,63,.55.73-.14,4.09-3.41,4.15-4.69S170,133.75,169.87,132.73Z" fill="#f7941f"/><path d="M378.28,169.55c-1-10.49-.41-21.11-.51-31.64,0-2.64-2.17-3.64-4.41-2.54-2.49,1.22-4.26,4.63-4.24,7.35.06,6.39,0,12.78,0,19.17,0,3.56,0,7.09.33,10.64.17,1.82.39,3.64.46,5.47a11.11,11.11,0,0,1-.07,1.21c-3.39.72-8.12-.18-10.87-.05-4.21.2-8.65,1.14-12.83.52-9.52-1.41-19.4-1-29.05-1.21-4.67-.1-9.3,10.86-4.13,11,9.47.21,19.44-.46,28.78,1.14,4,.69,8.22-.19,12.25-.41,4.46-.24,9.43.64,13.79-.3C378.07,187.66,379.12,178.55,378.28,169.55Z" opacity="0.15"/><path d="M372.06,133.75c-.13-1-5.26-4.1-6.16-4.13-2.54-.08-49.3.11-51.75.18-1,0-5.7,2.95-5.66,4.15,0,.78-.35,44.62-.24,46.19,0,.7,2.31,3.54,4.4,3.59,2.5.05,46.29.31,47.74.35a52,52,0,0,0,9.7-1.15c1.62-.81,1.51-6,1.58-7.29C371.67,175.64,372.19,134.77,372.06,133.75Z" fill="#f7941f"/><path d="M303.53,137.69c0-2.65-2.18-3.64-4.41-2.55-2.5,1.22-4.27,4.64-4.24,7.35q.15,17.61.08,35.21c-27.75.59-55.5,1.16-83.24,1.54-6,.09-12,.26-17.94.12-4.67-.11-9.31,10.86-4.13,11,31.67.72,63.51-.88,95.17-1.53l12.38-.26c3.74-.08,6.38-4.49,6.39-7.89Q303.7,159.18,303.53,137.69Z" opacity="0.15"/><path d="M182.67,136.13c.22-2,2.49-4.63,7-5.9,3.51-1,99-.31,100.55.39,1.16.54,4.17,2,4.7,2.92,1.29,2.16,1.76,39.87,1.58,42.91-.08,1.36-3.67,6.51-7.26,6.59-4.28.1-101.28.75-102.46.09-2.79-1.57-4-5.63-4.17-8.11S182.44,138.11,182.67,136.13Z" fill="#f7941f"/><path d="M56.59,147.24c-1.39,1.11-3,1.77-4.24,3-.85.83.26,2.33,1.28,1.66.85-.54,1.72-1,2.57-1.56q-.15,8.25-.28,16.48a1.33,1.33,0,0,0,2.65,0q0-9.37.08-18.75A1.22,1.22,0,0,0,56.59,147.24Z" fill="#fff"/><path d="M135.52,147.23c-2,1.64-4.4,2.7-6.24,4.53-.83.83.26,2.34,1.28,1.66,1.51-1,3.07-1.92,4.56-2.94-.1,5.62-.21,11.24-.27,16.86a1.33,1.33,0,0,0,2.65,0c0-6.42,0-12.83.08-19.25A1.22,1.22,0,0,0,135.52,147.23Z" fill="#fff"/><path d="M245.54,163.43c-3.36.17-6.66.85-10,.83a72.4,72.4,0,0,0,6.85-7.09c1.78-2.17,4.19-4.7,3.62-7.74-1.17-6.19-9.07-4.64-12.62-1.61a1,1,0,0,0,1,1.65,27.79,27.79,0,0,1,4.57-1.67c2.94-.58,5.32.75,3.91,4.32a13,13,0,0,1-2.05,2.78,76.75,76.75,0,0,1-9.23,9.51,1.3,1.3,0,0,0,.57,2.16c4.53.69,8.93-.28,13.44-.14C247.47,166.5,247.47,163.34,245.54,163.43Z" fill="#fff"/><path d="M344.78,154a8,8,0,0,0-7.3.82c0-1.87-.1-3.77-.17-5.64a61.51,61.51,0,0,0,9.73-.81c1.3-.27.89-2.08-.29-2.18-3.52-.29-7.23.29-10.75.51a1.29,1.29,0,0,0-1.27,1.27c.06,2.9-.08,5.87.19,8.75a1.43,1.43,0,0,0,.16.54,1.2,1.2,0,0,0,1.74.87c1.82-1.13,3.95-2.41,6.19-1.9a4.1,4.1,0,0,1,2.95,4.68c-.59,4.91-7.18,4.55-10,2-1.3-1.16-3.24.78-1.92,1.92,4.45,3.82,13.91,3.47,14.62-3.75A6.91,6.91,0,0,0,344.78,154Z" fill="#fff"/><path d="M39.89,159.48l0,.11a1.08,1.08,0,0,0,.94.54,28,28,0,0,0,4.09-.28l1.74-.15c.28,0,.61,0,.52,0,2.4.75,2-3.77-.32-2.45a1.88,1.88,0,0,0-.53.05l-1.75.22a34.06,34.06,0,0,0-4,.52,1,1,0,0,0-.76.76,1,1,0,0,0,.06.73Z" fill="#fff"/><path d="M84.92,130.37c-10.3.09-20.61.25-30.92.17-10-.08-19.86-.45-29.76.52-7.74.76-6.43,12.73-6.56,18.17a89.23,89.23,0,0,0,.72,14.15c.37,2.71,1.06,5.44,1.56,8.19a52,52,0,0,0,.41,10.84c.62,4.39,6-1.68,6.28-3.49a31.94,31.94,0,0,0-.22-10.61c.09-1.05.23-2.1.41-3.16.38-2.26-.4-3.08-1.53-3-.22-1.2-.42-2.42-.58-3.66a84,84,0,0,1-.57-11.87c0-2-.15-4.73,0-7.22a8,8,0,0,0,1.37,0c2.92-.31,5.67-1,8.63-1,5.26-.07,10.55.36,15.82.41,10.62.1,21.25-.07,31.87-.16C85.33,138.58,88.76,130.34,84.92,130.37Z" fill="#fff" opacity="0.25"/><path d="M168.89,130c-10.62-.14-21.25.14-31.85.93-4.75.35-9.51.79-14.25,1.32-.27,0-.73.11-1.3.21a1.77,1.77,0,0,0-1.78-1.92,20.76,20.76,0,0,0-4,0c-5.19-.06-11.09,0-13.31,5a9.54,9.54,0,0,0-.41,1.06,13,13,0,0,0-1.69,6.38c-.76,12.07.41,24.15,1.57,36.15.3,3.09,3.4,2.67,4.9.54l.71-1c.94-1.33,2.55-4.18,1.13-5.74a2.13,2.13,0,0,0-.54-.43c-.51-5.32-1-10.64-1.27-16-.15-2.85-.24-5.71-.25-8.57,0-1.77-.19-4-.13-6.13a26.59,26.59,0,0,0,4.68-.21,408.64,408.64,0,0,1,54.72-3.39C169.3,138.24,172.76,130,168.89,130Z" fill="#fff" opacity="0.25"/><path d="M292,131.83a336.86,336.86,0,0,0-52.48-.82c-12.88.88-25.79,1.08-38.7,1.26a2.16,2.16,0,0,0-1.75-2.59c-4.86-1.06-9.29.49-12.93,3.77-.86.77-2.81,4.4-2.29,6.21a15.94,15.94,0,0,0-.88,5.58c0,3.23.16,6.46.35,9.69a5.1,5.1,0,0,0-.87,2.09,45,45,0,0,0,0,13.61c.53,3.37,1.18,9.3,4.8,10.71,3.39,1.33,5.82-3.94,5.37-6.58a218.93,218.93,0,0,1-2.68-22.38c-.21-3.24-.47-6.53-.41-9.76a4.19,4.19,0,0,1,.48-2c15.49-.24,31-.32,46.46-1.38a336.86,336.86,0,0,1,52.48.82C292.38,140.36,296,132.17,292,131.83Z" fill="#fff" opacity="0.25"/><path d="M370.7,131.57c-10.68-1.13-21.43-2-32.17-2.27a99.36,99.36,0,0,0-14.83.82c-3.63.46-9.24.29-12,3s-2.18,6.22-2,9.77q.38,8,0,16c-.38,8.58-1.25,17,2.95,24.85,1.77,3.32,7.24-3.69,5.58-6.8-3.27-6.13-2.49-13.1-2.14-19.77.2-3.76.29-7.53.26-11.29q0-2.35-.12-4.71c0-.33,0-1.39,0-2.4,7.37-1.61,15.75-1.39,22.93-1.1,9.49.39,19,1.14,28.4,2.14C371.07,140.17,374.68,132,370.7,131.57Z" fill="#fff" opacity="0.25"/><path d="M370.35,129.84c-2.84-1.42-7.65-.78-10.81-.84-9.28-.18-18.58-.48-27.87-.52-3.6,0-7.21.13-10.82.16-4.64,0-9.31-.64-12.43,3.49-1.56,2.07-1.08,4.64-1.08,7.12,0,5.31.08,10.61.13,15.91.08,8.49-.3,17.15.34,25.62a.78.78,0,0,0,0,.37c1.49,5.56,11.36,3.54,15.59,3.6,9.84.14,19.68.23,29.52.33,2,0,4,.12,6.05,0a58.08,58.08,0,0,0,6.42-.71c1.48-.21,4.7-.18,5.92-1.23,1.8-1.57,1.12-5.42,1.13-7.59,0-3.38.12-6.75.18-10.13.16-8.75.49-17.51.49-26.26C373.11,135.93,373.74,131.53,370.35,129.84Zm.3,26.5c-.1,6.61-.28,13.23-.31,19.85a18.4,18.4,0,0,1,0,3.56c-.5,2.56-.54,1.51-2.3,2.16a22.33,22.33,0,0,1-4.69.71,47.47,47.47,0,0,1-6.62.42l-26.18-.2-13.53-.1c-2.45,0-6.7,1-7.74-2a.05.05,0,0,0,0,0c-1-14,.27-28.41.35-42.41,0-3.4,0-6.12,4.22-7.19s9.61,0,14.1-.24c6.59-.3,13.23.06,19.82.18l13,.23,3.88.07c4.08.1,6.24,3,6.35,6.88C371.08,144.26,370.74,150.32,370.65,156.34Z" fill="#1e1e1e"/><path d="M297.61,171.38c-.07-6.56-.19-13.12-.31-19.68-.07-4.45,0-8.93-.16-13.37-.4-9.3-7.89-8.89-15.31-9.12-8.82-.28-17.63-.23-26.45-.22l-40.56,0c-2.9,0-5.81,0-8.71,0-7,0-22.4-2.92-24.16,6.92a.87.87,0,0,0,0,.23c-.86,10-.68,20.32-.63,30.36,0,2.83.21,5.66.28,8.49s-.21,6.9,2.85,8.62c2.22,1.25,6.84.73,9.55.81,22.86.71,45.81.14,68.67,0,3.08,0,6.15,0,9.23-.08,6.61-.09,15.23,1.13,21.47-1.44C298.29,180.86,297.66,175.78,297.61,171.38Zm-2.26,5.07c-1.57,7.74-17.63,5.52-23.44,5.59l-7.56.06c-21.35.16-42.72.39-64.08.22-3.17,0-6.35-.08-9.52-.17-.3,0-.51-.07-.78-.07-3.73-.09-5.62-1.1-6.36-5.61a71.55,71.55,0,0,1-.44-9.94c-.19-9.92-.64-20.25.19-30.15,0,0,0,0,0,0,1.84-8,17.22-5.36,23.38-5.33h8.41l32.14,0c8.62,0,17.24,0,25.86,0,5.34,0,11.39-.5,16.59.63,6.62,1.45,5.23,10,5.31,15.4.08,5.84.18,11.68.25,17.52C295.37,168.31,296.09,172.81,295.35,176.45Z" fill="#1e1e1e"/><path d="M171.05,161.54c-.08-9.51.27-19.16-.34-28.66a.65.65,0,0,0,0-.34c-.62-2.78-2.14-3.3-4.6-3.39-3.79-.14-7.59-.15-11.39-.2-10.7-.14-21.4-.22-32.1-.3-6.91-.06-13.61-.43-20.41,1.09-4.13.92-3.5,3.71-3.53,7.58,0,2.9-.09,5.81-.13,8.71-.15,9.53-.5,19.08-.46,28.61,0,3.94-.67,8.35,3.78,9.64,2.66.78,6.24.35,9,.39l32.41.45c2.82,0,5.66.17,8.48.11,4.34-.09,10.91,1,14.94-.56,3.45-1.3,4.48-4.43,4.49-7.66C171.17,171.86,171.1,166.7,171.05,161.54Zm-2.12,16.72c-1,6.75-14.64,4.73-20.22,4.65l-27.07-.37-12.75-.17c-1.07,0-2.15,0-3.22,0-3.8-.14-5.08-1.42-5.27-5.32-.34-7.18.06-14.44.15-21.63.09-6.63,0-13.27.22-19.9.08-3.43.35-3.44,3.54-4a43.19,43.19,0,0,1,6.1-.82c2.06-.08,4.16,0,6.23,0l30.79.2,14.49.08c2.53,0,6.46-1.08,7.36,2a.05.05,0,0,1,0,0c.42,6.76-.06,13.7-.12,20.47C169.11,161.46,170.08,170.31,168.93,178.26Z" fill="#1e1e1e"/><path d="M88.77,173.78c0-4.57-.11-9.15-.17-13.73-.12-9,.25-18.16-.44-27.14a.66.66,0,0,0,0-.37c-1.28-4.73-7.11-3.81-11-3.89-2.53-.05-5.07-.05-7.61-.06q-14.64,0-29.3,0c-3.09,0-6.19,0-9.29,0-3.32,0-8.15-.62-11.25.72-4.43,1.92-2.79,13.61-2.86,17.62-.16,9.07-.46,18.15-.5,27.22,0,3-.67,7.47,2.09,9.36,2.6,1.77,7.21,1.13,10.32,1.19l29.91.47c2.44,0,4.9.18,7.34.1,5.72-.18,15,1.71,20.12-1.33C89.55,181.88,88.79,177.21,88.77,173.78Zm-2-22.23c0,7.61,0,15.23-.13,22.84,0,.73,0,1.45-.06,2.19-.11,2.88-.83,4.85-3.65,5.92-2.23.85-5.61.47-8,.41-3.45-.08-6.87,0-10.31,0-7.86,0-15.73-.25-23.59-.36l-12.19-.18c-4.58-.07-9.88.22-10.15-6.16-.26-6.11.11-12.28.2-18.39.1-6.8.28-13.61.31-20.42,0-1.83-.24-3.27.85-4.88,1.21-1.8,2.14-1.56,4.16-1.67,1.54-.08,3.09-.14,4.63-.19,1.87-.05,3.74-.05,5.61-.05l28.74,0c4.32,0,22.12-1.91,23.58,2.35,0,0,0,0,0,0C87.21,139.09,86.75,145.41,86.72,151.55Z" fill="#1e1e1e"/></g></svg>