<svg xmlns="http://www.w3.org/2000/svg" viewBox="0 0 490 225.27"><title>flex-direction</title><g id="bd2e410d-4235-4789-99c2-33cfdc98996e" data-name="Layer 10"><path d="M63.71,72.24c-.29-9.55-.45-19.12-.54-28.66,0-2.65-2.18-3.64-4.41-2.55-2.5,1.22-4.27,4.64-4.25,7.35.07,7.12.3,14.24.44,21.36.07,3.66.06,7.3.3,11,.15,2.15.48,4.57.48,6.89-2.53.18-7.23-.19-8.45-.08a47.68,47.68,0,0,1-10.41.18c-7.45-1-15-.82-22.53-1-4.67-.15-9.32,10.82-4.13,11,4.65.15,9.3.27,13.94.41,4.05.11,8,.87,12.07,1,4.36.13,8.69-.9,13.07-.84,4,0,6.9.1,10.21-2.53C66.53,90.07,64,80,63.71,72.24Z" opacity="0.15"/><polygon points="56.15 39.9 53.75 38 9.49 37.79 7.06 39.57 6.41 88.31 9.47 91.61 53.1 91.75 56.18 88.57 56.15 39.9" fill="#f7941f"/><path d="M126,75c-.49-10.27-.56-20.62-.64-30.9,0-2.65-2.18-3.64-4.41-2.55-2.5,1.23-4.26,4.64-4.24,7.35,0,7,.3,13.95.43,20.93.07,3.63.06,7.25.26,10.88.11,2.16.39,4.52.41,6.82-2.56.19-7.22.16-8.27.28a48.32,48.32,0,0,1-9.08,0c-7.54-.52-15.06-.86-22.62-1.14-4.67-.18-9.33,10.78-4.13,11,8.2.31,16.36.81,24.55,1.27a52,52,0,0,0,9.25-.3c3.81-.46,8.44.6,11.93-1.23C127.9,92.92,126.33,83,126,75Z" opacity="0.15"/><path d="M120,40.9,117.69,38s-42.91-.24-44.33.19a5.11,5.11,0,0,0-3.87,4.44L69.32,88.3l2.87,3.31,45,.14,2.61-4.18Z" fill="#f7941f"/><path d="M188.09,45.35c0-2.65-2.18-3.63-4.41-2.54-2.5,1.22-4.26,4.63-4.24,7.35q.1,17.85.05,35.69c-12.42.24-24.89.56-37.3.18-4.67-.15-9.33,10.81-4.13,11,14.54.46,29.15-.06,43.69-.29,3.73,0,6.37-4.5,6.39-7.89Q188.22,67.09,188.09,45.35Z" opacity="0.15"/><path d="M131.67,44.3c-.09-5,6.25-6.06,6.25-6.06l40,.45L182,43.31V84.62s-.63,6.43-8.25,6.42c-3.22,0-39.92.4-40.81-.27C130.84,89.21,131.7,46.29,131.67,44.3Z" fill="#f7941f"/><path d="M249.09,45c0-2.65-2.18-3.64-4.41-2.55-2.5,1.23-4.26,4.64-4.24,7.35q.09,17.43.05,34.86c-12.45.4-25,.93-37.4.53-4.67-.15-9.32,10.81-4.13,11,14.56.47,29.23-.34,43.78-.73,3.74-.1,6.38-4.47,6.39-7.89Q249.21,66.3,249.09,45Z" opacity="0.15"/><path d="M243.36,78.16c-.15,1.92.19,8.66-3,10.72s-47-.36-47-.36l.16-43.58s-1.81-5.92,6.35-6.09c3.12-.06,42.83,0,42.83,0Z" fill="#f7941f"/><path d="M54.13,38.43c-7.39.31-14.79.63-22.19.53-7-.08-14-1-21-1-3,0-5.35,4.09-4.67,6.8a7,7,0,0,0,2,3.6,23.4,23.4,0,0,0-.79,5.2,58.43,58.43,0,0,0,.36,6.72q-.58,13.91.14,27.8c.24,4.67,5.37,1,6.1-1.53A49.94,49.94,0,0,0,15.55,67c-.34-3.35-.84-6.67-1.15-10q.15-4,.43-7.92A9.17,9.17,0,0,0,16,48.44a7.05,7.05,0,0,0,1.85-1.83c3.66.26,7.32.54,11,.59,7.4.09,14.79-.22,22.19-.54C54.54,46.52,57.9,38.27,54.13,38.43Z" fill="#fff" opacity="0.25"/><path d="M117.54,39.72a214.47,214.47,0,0,0-43.27,1.79c-2.34.34-4,3.79-4,5.85.1,7.84-1.08,15.62-1,23.45.06,4.88.06,15.07,4.38,18.3,1,.74,2.37-.2,3.14-.76l.25-.19c2.41-1.78,2.87-6.55.83-7.13-1.29-1.59-1.62-6.72-1.82-8.4a66.11,66.11,0,0,1-.21-9.95c.19-4.53.6-9,.8-13.58A207.41,207.41,0,0,1,114.45,48C117.94,48.16,121.48,40,117.54,39.72Z" fill="#fff" opacity="0.25"/><path d="M180.22,41l-1.85-.31a2.15,2.15,0,0,0-.67,0,178.64,178.64,0,0,0-23.81-1.19c-3.63.08-8.11-.21-12.12.56a45.76,45.76,0,0,0-5.25-.16c-3.08.1-6,4.76-4.34,7.52,1.49,2.47-.32,7.81-.5,10.62-.25,3.89-.16,7.78,0,11.66.23,6.61.45,13.23,3.16,19.36,2,4.53,6.2-2.16,6.37-4.48.53-7.53.76-15.07.58-22.62-.08-3.6-.22-7.22-.51-10.81,0-.57-.06-1.19-.12-1.79a18.11,18.11,0,0,0,2.3-1.44c.89,0,1.75,0,2.48,0,3.58-.17,7.17-.23,10.75-.18a181.79,181.79,0,0,1,20.46,1.5C180.53,49.68,184.25,41.67,180.22,41Z" fill="#fff" opacity="0.25"/><path d="M241.26,41.33c-6.87-1.95-13.78-1.47-20.82-1.12a186.5,186.5,0,0,1-21.92-.52c-2.6-.17-5.05,3.57-4.79,5.92,1.5,13.54,1.12,26.89,1.48,40.45.15,5.3,6.59-.16,6.49-3.6-.31-11.47-.09-22.79-.92-34.2a157.65,157.65,0,0,0,16.56.18c7.06-.35,13.95-.83,20.83,1.13C241.42,50.49,245.26,42.47,241.26,41.33Z" fill="#fff" opacity="0.25"/><path d="M183.13,51.59c0-4.07.8-9.42-2.53-12.4-2.36-2.11-6.09-1.67-9-1.79-2.58-.11-5.15-.24-7.74-.24-4.74,0-9.49,0-14.24,0-6.85,0-17.47-2-18.51,7.13a.64.64,0,0,0,0,.2A314.2,314.2,0,0,0,131.18,91a1.16,1.16,0,0,0,1.13,1.13c9.68.07,19.29.66,29,.41,5.55-.15,11.91.69,17.21-.93,4.65-1.41,5-5.16,5-9.38C183.49,72,183.25,61.81,183.13,51.59Zm-1.87,32.65c-1.48,6.43-6.92,5.66-12,5.81-3.43.1-6.86.21-10.29.28-8.58.19-17.07-.33-25.6-.42a312.46,312.46,0,0,1-.84-45.37s0,0,0,0c1.45-7.42,13.18-5.34,19-5.32l12.25,0c1.32,0,2.62,0,3.94.08,1.9.08,3.8.14,5.7.25a20.41,20.41,0,0,1,3.13.22c3.53.78,4.34,3.94,4.45,7.08.09,2.65,0,5.34,0,8,.09,8.72.24,17.43.23,26.15A15.25,15.25,0,0,1,181.26,84.24Z" fill="#1e1e1e"/><path d="M243.6,83.92a305.67,305.67,0,0,0-.06-45.19,1.16,1.16,0,0,0-1.13-1.13c-8.5-.06-17-.65-25.51-.47-4,.09-8,.22-12,.34-4.65.15-11.23-1.19-12.55,4.51-.68,2.9-.39,6.05-.36,9q.08,7.55.19,15.08c.1,7.51.1,15,.32,22.52a1.05,1.05,0,0,0,.76,1c9.74,1.51,19.59,1.26,29.42,1.25,4.18,0,8.44.2,12.61-.11,5.51-.4,7.52-.86,8.3-6.62a1,1,0,0,0,0-.18Zm-5.19,4.55a59.87,59.87,0,0,1-10,.38c-4.13,0-8.26,0-12.39,0-4.76,0-9.48-.11-14.24-.33-2-.09-5.19.13-7.18-.63-.05-.57,0-1.15,0-1.72,0-1.69-.07-3.39-.08-5.08,0-8.48-.15-17-.22-25.45,0-3.52-.24-7.14,0-10.66s2-4.46,5.3-5a54.83,54.83,0,0,1,7.26-.21l5.56-.16c9.71-.24,19.34.24,29,.32a302.64,302.64,0,0,1,.83,43.83s0,0,0,0C241.48,86.9,241.22,88,238.41,88.47Z" fill="#1e1e1e"/><path d="M121,79.69c0-5.18-.09-10.36-.15-15.54-.08-7.74,0-15.52-.31-23.25h0a1.2,1.2,0,0,0,0-.19c-.81-5.56-9.58-3.54-13.64-3.61q-13.2-.21-26.4-.33a28.56,28.56,0,0,0-6.19.39c-4.27.87-5.63,1.09-5.81,5.48-.27,6.3-.12,12.65-.2,18.95-.08,7.29-.33,14.6-.26,21.9,0,3.61-.66,8.19,3.72,9.13,2.5.53,5.42.22,8,.27,8.59.18,17.22.6,25.81.5,5.67-.07,14.3,1.73,15.47-5.85C121.36,85,121,82.2,121,79.69Zm-2.27,7.46c-.92,5-6.83,3.66-10.66,3.81-5.8.23-11.65,0-17.47-.15l-12.07-.22c-2.46,0-6.76.67-8.07-2.29-.79-1.79-.2-5.54-.19-7.7l.09-10.23q.09-11.1.19-22.18c0-1.83-.09-3.73,0-5.56.19-2.76,1.17-2.8,3.75-3.36a19.81,19.81,0,0,1,3.23-.47c7.32-.39,14.81.13,22.13.19l12.6.11c2.76,0,6.12-1.1,6.83,2,0,0,0,0,0,0,.6,13.17-.32,26.52-.37,39.71C118.75,82.83,119.09,85.18,118.72,87.15Z" fill="#1e1e1e"/><path d="M56.91,41a.75.75,0,0,0,0-.26c-1-5.87-10.2-3.93-14.77-3.94l-24.25,0a47.71,47.71,0,0,0-8.62.39c-3.68.69-3.66,3.79-3.69,7q-.09,8.72-.2,17.44c-.1,7.16-.34,14.34-.3,21.51,0,2.79-.67,7.09,2,8.87,2,1.28,5.66.83,7.94.88,8.11.18,16.24.52,24.36.53,3.93,0,8.12.33,12-.17,5.82-.75,6-4.06,6.05-9.4C57.67,69.6,57.7,55.15,56.91,41ZM55.25,83.53c0,2.53.42,5.59-2.4,7.13-2.59,1.41-7.56.21-10.49.3-5.75.19-11.52-.06-17.27-.18l-10-.21c-1.12,0-2.24,0-3.35-.07C8,90.3,7.52,88.64,7.38,85.17c-.21-4.92,0-9.87,0-14.8q.11-10.67.22-21.32c0-1.2,0-2.4,0-3.6,0-1.81-.62-5,1.12-6.18,1.31-.88,5.16-.45,6.75-.48,6.6-.14,13.21,0,19.81,0,3.5,0,19.06-1.72,20.12,2.35l0,0c.66,12.26-.23,24.75-.25,37C55.24,79.94,55.28,81.74,55.25,83.53Z" fill="#1e1e1e"/><path d="M63.71,162.7c-.29-9.54-.45-19.11-.54-28.66,0-2.65-2.18-3.64-4.41-2.55-2.5,1.23-4.27,4.64-4.25,7.35.07,7.13.3,14.24.44,21.37.07,3.65.06,7.3.3,10.94.15,2.16.48,4.57.48,6.89-2.53.19-7.23-.19-8.45-.08a46.47,46.47,0,0,1-10.41.18c-7.45-1-15-.81-22.53-1-4.67-.14-9.32,10.82-4.13,11l13.94.4c4.05.12,8,.87,12.07,1,4.36.14,8.69-.9,13.07-.84,4,.05,6.9.1,10.21-2.53C66.53,180.53,64,170.45,63.71,162.7Z" opacity="0.15"/><path d="M56.15,130.94c-.09-1-3.66-3.09-4.3-3.11-1.82-.08-39.84.11-41.58.18a9.71,9.71,0,0,0-3.71,2.1c-.53,1.11-.23,46.67-.15,48.24,0,.7,2.56,3.76,4.06,3.8,1.78.06,40.78.52,42.35.07s3.31-3.33,3.36-4.61S56.24,132,56.15,130.94Z" fill="#f7941f"/><path d="M126,165.44c-.49-10.27-.56-20.62-.64-30.9,0-2.65-2.18-3.64-4.41-2.55-2.5,1.23-4.26,4.64-4.24,7.35,0,7,.3,13.95.43,20.93.07,3.63.06,7.26.26,10.88.11,2.16.39,4.52.41,6.82-2.56.19-7.22.16-8.27.29a49.18,49.18,0,0,1-9.08,0c-7.54-.52-15.06-.86-22.62-1.14-4.67-.18-9.33,10.78-4.13,11,8.2.3,16.36.8,24.55,1.26a51.05,51.05,0,0,0,9.25-.29c3.81-.47,8.44.59,11.93-1.23C127.9,183.38,126.33,173.44,126,165.44Z" opacity="0.15"/><path d="M119.73,131.36c-.41-2.59-3.11-3.09-3.65-3.12-1.54-.08-40.16-.55-43.48.68s-3.15,3.46-3.13,4.66c0,.78-.21,43.62-.15,45.19,0,.7,1.68,2.71,2.05,3.3.69,1.07,44.34.53,45.78.14.52-.14,2.57-2.9,2.61-4.18S119.89,132.37,119.73,131.36Z" fill="#f7941f"/><path d="M188.09,135.81c0-2.64-2.18-3.63-4.41-2.54-2.5,1.22-4.26,4.63-4.24,7.35q.1,17.85.05,35.69c-12.42.24-24.89.56-37.3.18-4.67-.15-9.33,10.81-4.13,11,14.54.45,29.15-.07,43.69-.29,3.73-.06,6.37-4.51,6.39-7.89Q188.22,157.54,188.09,135.81Z" opacity="0.15"/><path d="M131.67,134.76c.91-4.83,6.62-6,7.78-6.06,3.28-.15,37.23-.21,38.37.49a19.9,19.9,0,0,1,3.87,4.44c1,2.16.44,38.41.31,41.45-.06,1.36-1.71,4.12-2.51,5.27-1.46,2.09-46.16,1.55-47.05.89C130.34,179.67,131.3,136.71,131.67,134.76Z" fill="#f7941f"/><path d="M249.09,135.48c0-2.65-2.18-3.64-4.41-2.55-2.5,1.23-4.26,4.64-4.24,7.35q.09,17.43.05,34.86c-12.45.4-25,.93-37.4.53-4.67-.15-9.32,10.82-4.13,11,14.56.47,29.23-.34,43.78-.73,3.74-.1,6.38-4.47,6.39-7.89Q249.21,156.76,249.09,135.48Z" opacity="0.15"/><path d="M243.1,174.38a7.94,7.94,0,0,1-3.65,5.46c-.45.24-44.87,1.53-45.63-1.35-.58-2.21-.47-40.15-.34-43.09.06-1.32-2-6.39,8-6.21,3.11.06,39.86-.39,40.72.25C244.21,131,243.1,174.38,243.1,174.38Z" fill="#f7941f"/><path d="M241.43,130.22l-24.14.23-12.55.13c-2.52,0-5.18-.38-7.32,1.18-4.78,3.51-2.95,10.25-2.36,15.12.06.56.13,1.12.2,1.67a7.27,7.27,0,0,0-.51,2.37q-.31,11.42-.57,22.83c0,1.32,1,2.72,2.48,2.24,6.37-2.1,6.29-10.09,6.31-15.67a110.63,110.63,0,0,0-1-13.25c-.3-2.55-1.18-5.78-1.39-8.72,2.31,0,5.79.42,6.82.4l10.62-.1,20.27-.2C241.84,138.41,245.26,130.18,241.43,130.22Z" fill="#fff" opacity="0.25"/><path d="M179.34,131.81c-9.55-2.09-19.2-1.33-28.85-.89a1.72,1.72,0,0,0-1.71-1.69,25.22,25.22,0,0,0-6.3.35c-2.71.18-5.42.62-7.37,2.1-2.69,2-3.75,5.64-3.54,8.88a52.7,52.7,0,0,0,.74,5.67,7.31,7.31,0,0,0-.68,2.75,131.35,131.35,0,0,0,.63,18.71c.34,3.21.05,9.85,4.51,10,1.72.06,3.06-1.43,3.89-2.76,3.84-6.23,1.06-15,.06-21.76q-1-6.6-2.12-13.16c0-.21-.07-.41-.11-.62,11.53.06,23.07-1.71,34.5.07a1.92,1.92,0,0,0,1,.37l2.26.22C179.6,140.37,183.42,132.7,179.34,131.81Z" fill="#fff" opacity="0.25"/><path d="M118.1,130.07c-7,.32-14,.45-21.06.35s-14.11-1.2-21.05-1c-4.14.12-6.36,3.71-6.67,7.55-.55,6.75,0,13.79.08,20.57,0,5.59-1.09,13.24,1.16,18.54,1.76,4.14,5.81,2.42,7.72-.82,2.66-4.55,1.2-11.55,1.16-16.55q-.07-10.38-.16-20.76c1.41.15,2.81.31,4.13.38q5.27.24,10.53.33c7,.11,14,0,21.07-.35C118.5,138.14,121.87,129.9,118.1,130.07Z" fill="#fff" opacity="0.25"/><path d="M54.19,130.38c-13.89-4-28.19,1.2-42.25-1.27-2.72-.47-4.82,3.78-4.79,5.92q.38,22,.76,44.05c.06,3.48,3.39,2.15,4.9.53,4.36-4.67,4.56-12.71,4.55-18.76,0-7.63-1.1-15.19-.95-22.83,11.6.22,23.28-2.7,34.69.59C54.34,139.54,58.19,131.53,54.19,130.38Z" fill="#fff" opacity="0.25"/><path d="M56.91,131.43a.82.82,0,0,0,0-.27c-1-5.87-10.2-3.93-14.77-3.94q-12.12,0-24.25,0a47.71,47.71,0,0,0-8.62.39c-3.68.68-3.66,3.78-3.69,7q-.09,8.72-.2,17.44c-.1,7.17-.34,14.35-.3,21.51,0,2.79-.67,7.09,2,8.87,2,1.28,5.66.83,7.94.88,8.11.19,16.24.52,24.36.53,3.93,0,8.12.34,12-.17,5.82-.75,6-4.06,6.05-9.39C57.67,160.06,57.7,145.61,56.91,131.43ZM55.25,174c0,2.53.42,5.59-2.4,7.13-2.59,1.41-7.56.21-10.49.3-5.75.19-11.52-.06-17.27-.18l-10-.21c-1.12,0-2.24,0-3.35-.07-3.71-.19-4.19-1.86-4.33-5.32-.21-4.93,0-9.88,0-14.81q.11-10.67.22-21.32c0-1.2,0-2.4,0-3.6,0-1.81-.62-5,1.12-6.18,1.31-.88,5.16-.44,6.75-.48,6.6-.14,13.21,0,19.81,0,3.5,0,19.06-1.72,20.12,2.35l0,0c.66,12.26-.23,24.75-.25,37C55.24,170.41,55.28,172.2,55.25,174Z" fill="#1e1e1e"/><path d="M121,170.16c0-5.19-.09-10.37-.15-15.55-.08-7.74,0-15.52-.31-23.25h0a1.2,1.2,0,0,0,0-.19c-.81-5.56-9.58-3.54-13.64-3.61q-13.2-.21-26.4-.33a28.56,28.56,0,0,0-6.19.4c-4.27.86-5.63,1.09-5.81,5.47-.27,6.3-.12,12.65-.2,18.95-.08,7.29-.33,14.6-.26,21.9,0,3.61-.66,8.19,3.72,9.13,2.5.54,5.42.22,8,.27,8.59.18,17.22.6,25.81.5,5.67-.07,14.3,1.73,15.47-5.85C121.36,175.5,121,172.66,121,170.16Zm-2.27,7.45c-.92,5-6.83,3.66-10.66,3.82-5.8.23-11.65-.05-17.47-.16l-12.07-.22c-2.46-.05-6.76.67-8.07-2.28-.79-1.79-.2-5.54-.19-7.71l.09-10.23q.09-11.09.19-22.18c0-1.83-.09-3.73,0-5.56.19-2.76,1.17-2.8,3.75-3.36a21,21,0,0,1,3.23-.47c7.32-.39,14.81.13,22.13.19l12.6.11c2.76,0,6.12-1.09,6.83,2v0c.6,13.18-.32,26.52-.37,39.71C118.75,173.29,119.09,175.65,118.72,177.61Z" fill="#1e1e1e"/><path d="M183.13,142.05c0-4.07.8-9.42-2.53-12.39-2.36-2.12-6.09-1.68-9-1.8-2.58-.11-5.15-.24-7.74-.24-4.74,0-9.49,0-14.24,0-6.85,0-17.47-2-18.51,7.12a.6.6,0,0,0,0,.2,314.2,314.2,0,0,0,.08,46.53,1.15,1.15,0,0,0,1.13,1.13c9.68.07,19.29.66,29,.41,5.55-.15,11.91.69,17.21-.92,4.65-1.42,5-5.17,5-9.39C183.49,162.5,183.25,152.27,183.13,142.05Zm-1.87,32.65c-1.48,6.43-6.92,5.66-12,5.81-3.43.1-6.86.21-10.29.28-8.58.19-17.07-.33-25.6-.41a312.62,312.62,0,0,1-.84-45.38s0,0,0,0c1.45-7.42,13.18-5.34,19-5.32l12.25,0c1.32,0,2.62,0,3.94.09,1.9.07,3.8.13,5.7.24a20.41,20.41,0,0,1,3.13.22c3.53.78,4.34,3.94,4.45,7.08.09,2.66,0,5.34,0,8,.09,8.72.24,17.43.23,26.15A15.25,15.25,0,0,1,181.26,174.7Z" fill="#1e1e1e"/><path d="M243.6,174.38a305.53,305.53,0,0,0-.06-45.18,1.15,1.15,0,0,0-1.13-1.13c-8.5-.06-17-.65-25.51-.47-4,.08-8,.21-12,.33-4.65.15-11.23-1.19-12.55,4.51-.68,2.91-.39,6.06-.36,9q.08,7.55.19,15.08c.1,7.51.1,15,.32,22.53a1,1,0,0,0,.76,1c9.74,1.51,19.59,1.26,29.42,1.25,4.18,0,8.44.21,12.61-.1,5.51-.41,7.52-.87,8.3-6.63a1.09,1.09,0,0,0,0-.18Zm-5.19,4.55a58.83,58.83,0,0,1-10,.38c-4.13,0-8.26,0-12.39,0-4.76,0-9.48-.11-14.24-.33-2-.09-5.19.13-7.18-.63-.05-.56,0-1.15,0-1.71,0-1.7-.07-3.39-.08-5.09,0-8.48-.15-17-.22-25.44,0-3.53-.24-7.14,0-10.67s2-4.46,5.3-5a53.18,53.18,0,0,1,7.26-.21c1.85-.06,3.71-.12,5.56-.16,9.71-.25,19.34.23,29,.31a302.64,302.64,0,0,1,.83,43.83s0,0,0,.05C241.48,177.36,241.22,178.48,238.41,178.93Z" fill="#1e1e1e"/><path d="M222.18,62.14c-2.25-2.24-4-5.32-6.76-6.93a1.24,1.24,0,0,0-1.49,1.94c1.84,1.89,3.53,3.87,5.3,5.83.21.24.51.62.84,1-40.15.83-80.36.8-120.52.64-23.29-.09-46.8-1.3-70.07-.37a1,1,0,0,0,0,2c20.68,1.45,41.68.84,62.4,1q26.25.16,52.5.13,33.69,0,67.4-.5c2.11,0,4.85-.11,7.26-.18-1,.85-2,1.89-2.85,2.66-1.62,1.41-3.25,2.81-4.81,4.26-.6.56,0,1.74.84,1.43,2.23-.84,3.92-2.39,5.76-3.9,1.31-1.08,2.59-2.21,4-3.21.7-.51,2-1,2.4-1.82C225.34,64.26,223.26,63.22,222.18,62.14Z" fill="#1e1e1e"/><path d="M226.24,154.92c-17.07-1.48-34.43-1.15-51.55-1.35q-26.3-.3-52.61-.2-40.15.1-80.29.82c-3.92.07-8.62.21-12.59.32,2.6-2.16,5.71-4,8.19-6.07.63-.54,0-1.75-.84-1.44a31.92,31.92,0,0,0-6.86,4.24,34.26,34.26,0,0,0-4.85,3.69,1.42,1.42,0,0,0-.21,1.65c.75,1.65,3.41,3.19,4.74,4.28,2,1.62,4.18,4,6.58,4.89,1.26.49,1.91-1.22,1.2-2.06-1.54-1.82-4-3.24-5.85-4.76-.56-.47-1.48-1.13-2.34-1.79q69.36-1.57,138.79-1.07c19.47.13,39,1.21,58.49.8A1,1,0,0,0,226.24,154.92Z" fill="#1e1e1e"/><path d="M367.18,26c-.05-2.64-2.16-3.65-4.41-2.55-2.48,1.22-4.29,4.65-4.24,7.35.07,4.35.31,8.7.44,13,.07,2.34.19,4.64.39,7,0,0,0,.08,0,.13-1.8.05-3.7-.2-5.33-.15-3.91.13-7.77.57-11.69.36-8-.45-16-.6-24-.74-4.67-.09-9.29,10.88-4.12,11,8,.14,16,.29,24,.73,3.92.22,7.78-.22,11.69-.35,3-.1,6.18.38,9.15-.2,6.17-1.22,9.17-6,9.23-12.08C368.36,41.75,367.32,33.83,367.18,26Z" opacity="0.15"/><path d="M360.16,22.22c-.09-.66-2.29-1.74-3.32-2.07-.26-.09-43.2-.71-45.35.92s-1.15,30.79-1.07,31.8c0,.45,3.06,2.11,4.56,2.14,1.78,0,43.37-.12,43.87-.34a2.3,2.3,0,0,0,1.34-2.28C360.24,51.58,360.25,22.88,360.16,22.22Z" fill="#f7941f"/><path d="M366.37,74.44c0-2.64-2.16-3.64-4.41-2.54-2.48,1.21-4.28,4.64-4.24,7.34.07,4.27.32,8.53.44,12.8.07,2.33.17,4.63.32,7,0,0,0,.09,0,.13-.9-.07-1.76-.18-2.26-.17-2,.06-4.05.29-6.07.4-2.9.16-5.8,0-8.69-.07-7.55-.31-15.08-.51-22.63-.68-4.67-.11-9.3,10.86-4.12,11,7.11.16,14.22.31,21.33.63,6.43.28,12.7-.25,19.12-.27,6.7,0,11.46-3.51,12.07-10.52C368,91.28,366.5,82.63,366.37,74.44Z" opacity="0.15"/><path d="M360.79,70.17c-.08-.67-3.1-2.39-3.34-2.43-.52-.1-42.72.26-43.26.49a27.61,27.61,0,0,0-3.46,2.5c-.45.73-2.07,30.18.1,31.87s45.52,1.88,45.94,1.65c1-.52,4-2.63,4.05-3.47S360.87,70.84,360.79,70.17Z" fill="#f7941f"/><path d="M366.93,123.42c0-2.65-2.17-3.64-4.41-2.55-2.49,1.22-4.27,4.64-4.24,7.35.07,5.82.08,11.63.07,17.45-12.44.14-24.88.32-37.31.1-4.68-.09-9.3,10.88-4.13,11,14.55.27,29.13,0,43.68-.16,3.75,0,6.37-4.52,6.39-7.89C367,140.26,367,131.84,366.93,123.42Z" opacity="0.15"/><path d="M310.51,120.23c.17-1.3,3.86-3.5,5.72-4.16.46-.17,38.39-.12,39.52.34.87.35,3.51,1.54,3.91,2.12,1,1.41,1.32,26.06,1.18,28-.06.89-1.6,3.2-2.4,4-1.46,1.37-45.27.51-46.16.08-2.09-1-1.74-3.34-1.83-5S310.34,121.52,310.51,120.23Z" fill="#f7941f"/><path d="M366.42,169.7c0-2.65-2.17-3.64-4.41-2.55-2.49,1.23-4.26,4.64-4.24,7.35q.09,9.09.06,18.17c-12.46.25-24.95.57-37.4.33-4.68-.09-9.3,10.88-4.13,11,14.58.28,29.2-.21,43.78-.45,3.74-.06,6.37-4.49,6.39-7.89Q366.53,182.68,366.42,169.7Z" opacity="0.15"/><path d="M360.19,190c-.14,1.3.53,4.85-2.08,7.4-.34.33-45.2.91-46.45-.72-1-1.34-1.09-4.07-1-5.6,0-1-.14-20.83,0-22.82.06-.89-1.82-5.09,8.18-5,3.12,0,38.86-.26,39.73.17,2,1,1.68,3.35,1.76,5S360.19,190,360.19,190Z" fill="#f7941f"/><path d="M357.86,21.45c-7.45-.47-14.9-.82-22.36-1-6.23-.16-14.29-1.49-20.35.32-4.53,1.36-5.61,5.61-5.76,9.85A122.72,122.72,0,0,0,310.76,52c.31,2.19,2.91,1.3,4,.45A6.35,6.35,0,0,0,317,46.66c-.78-5.43-1.88-12.12-1.41-18,.86-.07,1.81-.15,2.21-.16,1.62-.06,3.25,0,4.87,0q5.34,0,10.7.19c7.13.19,14.26.53,21.39,1C358.26,29.9,361.8,21.7,357.86,21.45Z" fill="#fff" opacity="0.25"/><path d="M359,69.33l-41.08,1.55a2.16,2.16,0,0,0-2.85-.35c-5,3-4.57,8.43-4.77,13.64q-.18,5.14-.33,10.27c-.07,2.26-.57,5.24,1.1,7.08,3.28,3.62,7.24-1.38,8.2-4.47,1.77-5.68,2.05-12.17,2-18.18l34.66-1.31C359.42,77.43,362.79,69.18,359,69.33Z" fill="#fff" opacity="0.25"/><path d="M359.94,119.7c-1.67-1.78-4.22-1.32-6.51-1.45-4.07-.22-8.16-.54-12.24-.37-4.41.2-8.93,1.24-13.41,1.66a1.51,1.51,0,0,0-.95-.88l-.71-.2v0l-.19,0a16.63,16.63,0,0,0-10,.1c-1.4.45-4.34,4-4.28,6.26-.13.32-.26.65-.37,1-2.31,7.07.42,16,3,22.6,1.69,4.32,7.48-2.21,6.24-5.36a49.65,49.65,0,0,1-3.38-13.29c-.05-.55-.07-1.49-.08-2.26,5.12.79,10.13,0,15.45-.76a65.49,65.49,0,0,1,12.28-.51l5.49.3c.64,0,2.71.26,3.62.21l.09.09c1.09,1.11,2.61.74,3.68-.26l.31-.3C359.28,125.06,361.62,121.49,359.94,119.7Z" fill="#fff" opacity="0.25"/><path d="M358.23,164.73c-7.19.79-14.34-.57-21.54-.32-6.66.23-13.13,2.21-19.8,1-2.74-.48-4.8,3.78-4.79,5.92,0,4.48.15,8.95.51,13.41.25,3.07,0,7.06,1.55,9.75.82,1.39,2.82.49,3.68-.26l.2-.18c1.5-1.31,3.33-4.55,1.91-6.53l-.12-.16a2.5,2.5,0,0,0-.41-.44c-.77-2.34-.39-6.56-.52-8.65-.09-1.42-.14-2.83-.19-4.25,5.58,0,11.11-1.4,16.75-1.44,7.13-.05,14.11,1,21.25.2C360,172.46,362.89,164.22,358.23,164.73Z" fill="#fff" opacity="0.25"/><path d="M362.23,136.59c-.09-4.31-.23-8.62-.26-12.92,0-3.89-.75-7.16-5-8-5.14-1-10.9-.46-16.17-.46l-12.38,0c-5,0-16.93-2.25-18.43,4.82a.7.7,0,0,0,0,.32,137.87,137.87,0,0,0,.1,30.46,1.14,1.14,0,0,0,1.12,1.11c8.58.06,17.14.46,25.74.34,4.05-.05,8.1-.14,12.16-.23s11.9,1,13.15-4.45C363,144.19,362.29,140,362.23,136.59Zm-2.1,9c-1.06,5.23-6.94,4.12-11.07,4.2s-8.11.16-12.16.22c-8.27.12-16.51-.22-24.76-.26a152.17,152.17,0,0,1-.79-29.25l0,0c1.72-5.43,16-3.21,20.95-3.19,4,0,8.05,0,12.08,0,3.22,0,8.13-.69,11.18.33,4.69,1.57,4.24,4.8,4.28,8,.07,4.87.18,9.75.23,14.62A27.74,27.74,0,0,1,360.13,145.56Z" fill="#1e1e1e"/><path d="M360.86,163.22a1.14,1.14,0,0,0-1.12-1.11c-6.84-.05-13.66-.46-20.53-.4-8.18.08-17.4-.78-25.4.56-6.44,1.08-4.46,9.84-4.38,14.67.13,6.69.14,13.4.41,20.08a1.09,1.09,0,0,0,1.05,1c9.53,1,19.11.82,28.68.81,3.82,0,7.65.08,11.46,0,4.9-.13,8.56.43,9.91-4.8a.74.74,0,0,0,0-.36A141.72,141.72,0,0,0,360.86,163.22Zm-6.52,33.57c-2.8.22-5.63.1-8.43.08-3.23,0-6.46,0-9.69,0-8.11,0-16.22,0-24.31-.78-.19-5.48-.17-11-.26-16.46,0-3.51-.21-7-.1-10.55a8,8,0,0,1,.31-3.13c1.31-2.51,7.85-1.59,10.39-1.64,12.19-.24,24.34,0,36.51.05a155.88,155.88,0,0,1,.77,29.29l0,0C358.35,196.84,357.52,196.54,354.34,196.79Z" fill="#1e1e1e"/><path d="M361.26,42.27c-.09-6.58.12-13.25-.33-19.82a.58.58,0,0,0,0-.41c-1.75-4.41-9.17-2.83-13.15-2.84q-10.62,0-21.23,0c-3.93,0-11.55-1.19-15,.54s-2.05,10.52-2.09,13.67c0,3.58-.09,7.15-.13,10.73,0,2.54-.73,6.1-.08,8.57,1.1,4.13,7.15,3.62,10.54,3.67q10.95.18,21.9.32c5.28.06,11.32.85,16.43-.56S361.31,46.36,361.26,42.27ZM359.14,52c-1,3.82-11.25,2.45-14.61,2.44-5.14,0-10.29-.15-15.43-.22-4.94-.06-10.74.69-15.52-.61-2.54-.69-2.05-1.34-2.05-3.74q0-4.81.05-9.63c0-5,.1-9.89.12-14.84,0-4.57,3.48-4,7-4.11,1.25,0,2.51,0,3.76,0l20.51,0c3.18,0,14.87-1.39,16.52,1.34.27,4.38-.08,8.9-.14,13.28q-.06,4.62-.13,9.23C359.22,47.14,359.65,49.93,359.14,52Z" fill="#1e1e1e"/><path d="M361.93,91.39c-.09-7,.07-14-.33-21a.66.66,0,0,0,0-.37c-1.3-3.94-7.35-2.55-10.6-2.6-7.88-.12-15.76-.17-23.64-.23-4.75,0-9.41-.29-14.11.54-2.76.49-3.48.78-3.71,3.63-.19,2.27-.06,4.64-.1,6.92-.11,6.57-.41,13.17-.35,19.75,0,2.64-.27,5,2.35,6.22,1.83.83,5.06.39,7,.42q11.1.15,22.19.28c5.3.06,11.87.94,17-.19C363.81,103.38,362,96.05,361.93,91.39Zm-2.13,9.2c-1.35,3.52-10.76,2.15-14.2,2.1l-18.45-.23-8.67-.1c-1.69,0-5.8.45-7-1.09-.63-.83-.18-4.7-.17-5.94q.06-4.83.13-9.65l.12-9c0-1.38-.39-4.06.05-5.39,1-3,8.78-2.15,11.84-2.13l22.15.12c2.67,0,13.14-1.56,14.56,1.16.25,4.78-.09,9.67-.16,14.45q-.06,5-.14,10C359.87,96.46,360.36,99.15,359.8,100.59Z" fill="#1e1e1e"/><path d="M342.26,178.09a73.66,73.66,0,0,1-5.68,6c-.36-13.85-.54-27.71-.71-41.57q-.27-23.14-.32-46.31c-.05-19.68.69-39.47,0-59.14a1,1,0,0,0-1.92,0c-1.12,19.64-.57,39.48-.57,59.14q0,23.16.27,46.31c.15,13.73.34,27.46.69,41.18a25.49,25.49,0,0,0-6.42-5.36c-.76-.38-1.89.46-1.28,1.28,2.29,3.11,5.71,5.56,8.39,8.36a1.24,1.24,0,0,0,1.92-.25c2.33-3,5.46-5.38,7.78-8.44C345.36,178.07,343.21,176.83,342.26,178.09Z" fill="#1e1e1e"/><path d="M459.18,26c-.05-2.64-2.16-3.65-4.41-2.55-2.48,1.22-4.29,4.65-4.24,7.35.07,4.35.31,8.7.44,13,.07,2.34.19,4.64.39,7,0,0,0,.08,0,.13-1.8.05-3.7-.2-5.33-.15-3.91.13-7.77.57-11.69.36-8-.45-16-.6-24-.74-4.67-.09-9.29,10.88-4.12,11,8,.14,16,.29,24,.73,3.92.22,7.78-.22,11.69-.35,3-.1,6.18.38,9.15-.2,6.17-1.22,9.17-6,9.23-12.08C460.36,41.75,459.32,33.83,459.18,26Z" opacity="0.15"/><path d="M452.16,22.22c-.09-.66-2.12-1.83-2.4-1.88-.62-.09-41.74-.06-43.48,0-.75,0-3.72,2.56-3.69,3.33,0,.51-.09,30.15.35,30.53.81.7,44.49,1.17,46.18.92.61-.09,3-1.88,3.07-2.71S452.25,22.88,452.16,22.22Z" fill="#f7941f"/><path d="M458.37,74.44c0-2.64-2.16-3.64-4.41-2.54-2.48,1.21-4.28,4.64-4.24,7.34.07,4.27.32,8.53.44,12.8.07,2.33.17,4.63.32,7,0,0,0,.09,0,.13-.9-.07-1.76-.18-2.26-.17-2,.06-4.05.29-6.07.4-2.9.16-5.8,0-8.69-.07-7.55-.31-15.08-.51-22.63-.68-4.67-.11-9.3,10.86-4.12,11,7.11.16,14.22.31,21.33.63,6.43.28,12.7-.25,19.12-.27,6.7,0,11.46-3.51,12.07-10.52C460,91.28,458.5,82.63,458.37,74.44Z" opacity="0.15"/><path d="M452.79,70.17c-.08-.67-1.79-1.86-2-1.9-.52-.1-44.21-.16-44.21-.16-1.48,0-4,2.73-4,3.51,0,.51-.21,28.62-.14,29.65,0,.46,2.6,2.14,3.87,2.16,1.51,0,41.55,1,42,.79,1-.53,4.55-2.6,4.59-3.44S452.87,70.84,452.79,70.17Z" fill="#f7941f"/><path d="M458.93,123.42c0-2.65-2.17-3.64-4.41-2.55-2.49,1.22-4.27,4.64-4.24,7.35.07,5.82.08,11.63.07,17.45-12.44.14-24.88.32-37.31.1-4.68-.09-9.3,10.88-4.13,11,14.55.27,29.13,0,43.68-.16,3.75,0,6.37-4.52,6.39-7.89C459,140.26,459,131.84,458.93,123.42Z" opacity="0.15"/><path d="M402.51,120.23c.17-1.3,3.83-3.61,4.35-3.69,1.11-.18,41.8,0,42.93.5.88.35,2.45,2.81,2.85,3.39,1,1.41.34,24.16.2,26.14-.06.89-1.68,2.69-2.48,3.44-1.46,1.36-45.19,1-46.08.59-2.09-1-1.74-3.34-1.83-5S402.34,121.52,402.51,120.23Z" fill="#f7941f"/><path d="M458.42,169.7c0-2.65-2.17-3.64-4.41-2.55-2.49,1.23-4.26,4.64-4.24,7.35q.09,9.09.06,18.17c-12.46.25-24.95.57-37.4.33-4.68-.09-9.3,10.88-4.13,11,14.58.28,29.2-.21,43.78-.45,3.74-.06,6.37-4.49,6.39-7.89Q458.53,182.68,458.42,169.7Z" opacity="0.15"/><path d="M450.55,197.19c-.37.29-46.47,2-47.73-.27-.83-1.48,0-29.47,0-29.47s.19-4.33,3.87-4.27c3.12,0,43-.19,43.83.23C454.14,165.16,453.73,194.67,450.55,197.19Z" fill="#f7941f"/><path d="M450.3,20.86c-7.79-.61-15.6-.89-23.41-.75-3.9.07-7.81.24-11.7.51-2.7.19-6.4-.11-8.82,1.29-5.07,2.95-3.72,9.45-3.56,14.18.2,6.09-1.84,11.39,1.66,17,2.07,3.29,7.46-3.81,5.59-6.8C408,43,408.92,39.63,409.23,36c.11-1.31-.65-4.69-.74-7,5.82-1.08,12.56-.66,18.23-.7,6.84,0,13.66.25,20.48.78C450.69,29.37,454.25,21.17,450.3,20.86Z" fill="#fff" opacity="0.25"/><path d="M451.68,68.45c-14.8.77-30.47,3.07-45.14.24-2.57-.5-5,3.8-4.79,5.92a202.1,202.1,0,0,1,.86,25.81c-.07,5.27,6.45-.19,6.49-3.6.08-6.37.11-12.74-.28-19.09,13.08,1.48,26.76-.37,39.77-1C452.08,76.51,455.44,68.26,451.68,68.45Z" fill="#fff" opacity="0.25"/><path d="M451.65,119a2,2,0,0,0-1.58-1.43,4,4,0,0,0-3,.88c-1.21-.25-2.53-.62-3.05-.69-1.54-.23-3.09-.42-4.64-.58q-5.13-.53-10.29-.55a92.62,92.62,0,0,0-18.51,1.48c-4,.81-6.85,3.51-7.12,7.78-.19,3,.87,6.67,1.12,9.75.32,3.91.47,7.83.51,11.76.06,5.29,6.53-.18,6.49-3.6v-1.23a4.78,4.78,0,0,0,0-.57c-.12-5.5-.53-11-1.17-16.4,3.81-.87,8.82-.6,11.89-.69a106.82,106.82,0,0,1,15.89.71c3.22.39,7.92,2.44,10.84.47C451,124.75,452.62,121.4,451.65,119Z" fill="#fff" opacity="0.25"/><path d="M450.89,163.9c-14.31-1.94-28.37,2.65-42.69,1.88-2.66-.14-5,3.53-4.79,5.92.36,4.82.53,9.64.44,14.47-.05,2.75-1.3,7.17.6,9.5,1,1.27,2.62.57,3.68-.27l.39-.31c1.52-1.22,3.32-4.63,1.91-6.53l-.22-.3-.08-.09c.05-.9.1-1.8.13-2.7.08-1.93.11-3.87.11-5.8s-.05-3.73-.12-5.59c12.55-.31,25-3.65,37.55-1.94C451.24,172.61,454.9,164.45,450.89,163.9Z" fill="#fff" opacity="0.25"/><path d="M453.26,42.27c-.09-6.58.12-13.25-.33-19.82a.58.58,0,0,0,0-.41c-1.75-4.41-9.17-2.83-13.15-2.84q-10.62,0-21.23,0c-3.93,0-11.55-1.19-15,.54s-2.05,10.52-2.09,13.67c0,3.58-.09,7.15-.13,10.73,0,2.54-.73,6.1-.08,8.57,1.1,4.13,7.15,3.62,10.54,3.67q10.95.18,21.9.32c5.28.06,11.32.85,16.43-.56S453.31,46.36,453.26,42.27ZM451.14,52c-1,3.82-11.25,2.45-14.61,2.44-5.14,0-10.29-.15-15.43-.22-4.94-.06-10.74.69-15.52-.61-2.54-.69-2.05-1.34-2.05-3.74q0-4.81.05-9.63c0-5,.1-9.89.12-14.84,0-4.57,3.48-4,7-4.11,1.25,0,2.51,0,3.76,0l20.51,0c3.18,0,14.87-1.39,16.52,1.34.27,4.38-.08,8.9-.14,13.28q-.06,4.62-.13,9.23C451.22,47.14,451.65,49.93,451.14,52Z" fill="#1e1e1e"/><path d="M453.93,91.39c-.09-7,.07-14-.33-21a.66.66,0,0,0,0-.37c-1.3-3.94-7.35-2.55-10.6-2.6-7.88-.12-15.76-.17-23.64-.23-4.75,0-9.41-.29-14.11.54-2.76.49-3.48.78-3.71,3.63-.19,2.27-.06,4.64-.1,6.92-.11,6.57-.41,13.17-.35,19.75,0,2.64-.27,5,2.35,6.22,1.83.83,5.06.39,7,.42q11.1.15,22.19.28c5.3.06,11.87.94,17-.19C455.81,103.38,454,96.05,453.93,91.39Zm-2.13,9.2c-1.35,3.52-10.76,2.15-14.2,2.1l-18.45-.23-8.67-.1c-1.69,0-5.8.45-7-1.09-.63-.83-.18-4.7-.17-5.94q.06-4.83.13-9.65l.12-9c0-1.38-.39-4.06.05-5.39,1-3,8.78-2.15,11.84-2.13l22.15.12c2.67,0,13.14-1.56,14.56,1.16.25,4.78-.09,9.67-.16,14.45q-.06,5-.14,10C451.87,96.46,452.36,99.15,451.8,100.59Z" fill="#1e1e1e"/><path d="M454.23,136.59c-.09-4.31-.23-8.62-.26-12.92,0-3.89-.75-7.16-5-8-5.14-1-10.9-.46-16.17-.46l-12.38,0c-5,0-16.93-2.25-18.43,4.82a.7.7,0,0,0,0,.32,137.87,137.87,0,0,0,.1,30.46,1.14,1.14,0,0,0,1.12,1.11c8.58.06,17.14.46,25.74.34,4.05-.05,8.1-.14,12.16-.23s11.9,1,13.15-4.45C455,144.19,454.29,140,454.23,136.59Zm-2.1,9c-1.06,5.23-6.94,4.12-11.07,4.2s-8.11.16-12.16.22c-8.27.12-16.51-.22-24.76-.26a152.17,152.17,0,0,1-.79-29.25l0,0c1.72-5.43,16-3.21,20.95-3.19,4,0,8.05,0,12.08,0,3.22,0,8.13-.69,11.18.33,4.69,1.57,4.24,4.8,4.28,8,.07,4.87.18,9.75.23,14.62A27.74,27.74,0,0,1,452.13,145.56Z" fill="#1e1e1e"/><path d="M452.86,163.22a1.14,1.14,0,0,0-1.12-1.11c-6.84-.05-13.66-.46-20.53-.4-8.18.08-17.4-.78-25.4.56-6.44,1.08-4.46,9.84-4.38,14.67.13,6.69.14,13.4.41,20.08a1.09,1.09,0,0,0,1.05,1c9.53,1,19.11.82,28.68.81,3.82,0,7.65.08,11.46,0,4.9-.13,8.56.43,9.91-4.8a.74.74,0,0,0,0-.36A141.72,141.72,0,0,0,452.86,163.22Zm-6.52,33.57c-2.8.22-5.63.1-8.43.08-3.23,0-6.46,0-9.69,0-8.11,0-16.22,0-24.31-.78-.19-5.48-.17-11-.26-16.46,0-3.51-.21-7-.1-10.55a8,8,0,0,1,.31-3.13c1.31-2.51,7.85-1.59,10.39-1.64,12.19-.24,24.34,0,36.51.05a155.88,155.88,0,0,1,.77,29.29l0,0C450.35,196.84,449.52,196.54,446.34,196.79Z" fill="#1e1e1e"/><path d="M436.64,43c-2.38-3.31-6.07-5.91-8.9-8.86a1.24,1.24,0,0,0-1.92.25c-2.29,3.08-5,5.84-7.27,8.94-.95,1.29,1.2,2.52,2.13,1.25,1.54-2.09,3.27-4,4.94-6,2,29.52,1.83,59.28,1.78,88.84,0,19.92-1,39.91-.5,59.81a1,1,0,0,0,1.93,0c2.12-31.7,1.32-63.91.93-95.68-.19-16-.52-31.93-1.3-47.88-.09-1.84-.19-3.67-.31-5.51,2.18,2.35,4.59,4.86,7.21,6.14C436.11,44.61,437.23,43.78,436.64,43Z" fill="#1e1e1e"/></g></svg>