<svg xmlns="http://www.w3.org/2000/svg" viewBox="0 0 490 230"><title>flex-grow</title><g id="2a1c8204-b7ea-41dc-9f98-1360bb744241" data-name="Layer 10"><path d="M482.09,62.11c-1.78-4.31-1.81-9.06-2.26-13.7a2.26,2.26,0,0,1,0-.26h0c-.05-.45-.1-.91-.16-1.37A20.64,20.64,0,0,0,483,35.6c-.1-3.21-1.68-7.7-5.66-7.72-118.73-.61-237.43-4.81-356.18-4q-50.73.36-101.43,2.15c-7.06.26-12.34,6.59-14.67,12.83-1.11,3-2.17,10.3.75,13.3a21.39,21.39,0,0,0-1.66,7.65c-.07,8.7-.72,17.63-.12,26.31.64,9.14,5.22,14.2,14.42,15.07a261.4,261.4,0,0,0,38.67.59,5.22,5.22,0,0,0,4.93,3.75c54.74,2.74,109.41-2,164.11-3.62,26.62-.78,53.3-.79,79.87,1.25,13.7,1,27.24,3,41,2.93s27.54-1.24,41.32-1.37c13.32-.12,26.49-.51,39.79-1.42,12.47-.86,24.81-1.07,37.21.73,6.14.89,11.6-6.37,13.81-11,2.44-5.13,3.54-11.41-1-15.56l.19-.27C480.92,73.46,484,66.78,482.09,62.11Z" fill="#995db5"/><path d="M471.88,25.37c-39.28,1-78.56,1.93-117.86,2.14-38.89.21-77.74-.75-116.62-1.8s-78-2-117-2.05c-19.41,0-38.81.23-58.2.82q-14.85.45-29.7,1.19-6.94.36-13.89.77c-3.92.24-7.26-.19-9.5,3.54-1.77,2.93-1.72,6.89-1.95,10.18-.41,5.72-.57,11.46-.69,17.19-.3,13.8-.36,27.68.5,41.47.38,6.2,7.82-.17,7.57-4.2-.78-12.54-.77-25.15-.57-37.71.09-5.68.23-11.37.52-17,.07-1.26.14-2.52.23-3.78,117.48-7,235,2.14,352.56.9,33.68-.35,67.35-1.18,101-2C472.35,34.87,476.32,25.26,471.88,25.37Z" opacity="0.2"/><path d="M481.29,184.56c-2-3.95-3.11-9.36-1.85-13.36s1.94-12.7-2.68-14.46c4.62-7.87,5.75-18-1.16-24.32-7.18-6.54-20.28-4.16-29.18-4.14l-152.19.35a12.11,12.11,0,0,0-6.92,2.33q-37.44-2.49-75-1.83a13,13,0,0,0-8.1,3.24c-21-1.09-41.91-2.28-62.91-2.61a5.52,5.52,0,0,0-2.29-.57,544.14,544.14,0,0,0-75.2,2.34,8.19,8.19,0,0,0-1.12.2q-21.64-.66-43.21-2.81C8.75,127.85-2.6,151.43,6.9,155.76a23.72,23.72,0,0,0-1.58,6.83c-.42,8.56,1.5,16.95,2.93,25.35a25,25,0,0,0-1.82,3.82c-1.49,4-2.75,14.64,4.35,14.61l61-.29c20.56-.09,41.13.45,61.69.37a120.66,120.66,0,0,0,23.13-2.78,5.13,5.13,0,0,0,4.31,2.57c28.19,2,56.46,1.43,84.69,1.44q20.25,0,40.47.8c11.1.43,22.2.15,32.46-4,26.83.93,53.65,1.93,80.47,2.79,22.6.72,45.19,1.47,67.78,2.37C477.87,210.05,485.71,193.52,481.29,184.56ZM313.1,168.73q-7.71.3-15.41.55-17.94.54-35.89.6c3.18-.18,6.36-.36,9.54-.51Q292.25,168.34,313.1,168.73Z" fill="#995db5"/><path d="M467.24,131.81,93.75,130.06l-51.91-.25c-7.44,0-16-1.31-23.33.24a12.21,12.21,0,0,0-1.91.56c-1.73-1.58-6.42,2.72-6.82,5.3L9.6,137A8.8,8.8,0,0,0,9,141.65a4.48,4.48,0,0,0,.57,1.78l-1,47.07A5.48,5.48,0,0,0,8,192.05a44.39,44.39,0,0,0,.31,14.18c.41,2.23,2.86,1.7,4.2.86A7.71,7.71,0,0,0,15.76,201q.68-30.9,1.34-61.8c2.39-.37,5.75.15,7.15.15l10,.05,22,.1,43.93.21,87.85.41,175.76.82,99.89.47C467.72,141.43,471.74,131.83,467.24,131.81Z" opacity="0.2"/><path d="M164.79,69.21c.62-6.73-3.1-14.43-1.12-20.88,2.33-7.59-5.77-6.69-7.6-.71s-1.42,11.26-.43,17.34-.22,11.69-.49,17.81a18.63,18.63,0,0,0-.14,2.84c-.57,0-1.15,0-1.72,0-3.59,0-7.19-.16-10.78-.32-7.4-.35-14.78-.74-22.2-.77l-89.85-.35c-4.67,0-9.27,11-4.13,11,33.06.13,66.28-.67,99.32.51,8.14.3,16.34,1.15,24.49.94,6.3-.17,11.25-2.82,13.2-9.2.95-3.13.33-6.26.46-9.45C163.92,75,164.52,72.13,164.79,69.21Z" opacity="0.15"/><path d="M316.75,42.6a2.54,2.54,0,0,0-2.7-.86l-.46.08c-3.85.71-7.15,9.25-3.89,10.67.78,2.33.2,6.59.16,8.66-.05,3.39-.31,6.77-.55,10.14-.31,4.46-.17,9.42-.65,14.1-1.63,0-3.39-.21-4.41-.18-2.94.08-5.88.16-8.81.22q-7.85.16-15.67.27c-11.1.15-22.2.2-33.3.25q-32.06.14-64.12.24c-4.67,0-9.25,11-4.13,11,33.13-.13,66.26,0,99.38-.52q12.24-.16,24.48-.52c6.85-.2,13-.49,14.39-8.69,1.31-7.68,1.18-15.94,1.69-23.72C318.54,57.89,320.24,47.73,316.75,42.6Z" opacity="0.15"/><path d="M470.63,73c.05-8.29-.33-16.57-1.06-24.83-.61-7.09-9.05.19-8.65,4.81.61,7,1,14,1.05,21,0,3.24,0,6.48-.1,9.71-1.46-.06-3.64,0-3.92,0q-21.42-.9-42.85-.23c-14.34.45-28.64,1.64-43,2.21-6.84.27-13.69.39-20.53.18-6.11-.18-12.26-.86-18.1,1.37a8.55,8.55,0,0,0-5.22,6.47c-.32,1.85.44,5.37,3.19,4.32,6.84-2.61,14.7-1.12,21.87-1.08,8.15,0,16.3-.31,24.44-.76,15.94-.88,31.84-1.9,47.81-2q12.18-.08,24.35.36c5.79.2,12.69,1.75,17.07-3S470.59,79.14,470.63,73Z" opacity="0.15"/><path d="M325.05,43.68c.22-2-.35-4.43,4.55-5.43,1.21-.25,128-1,129.19-.32,4.35,2.26,4.37,7.53,4.23,9.86-.09,1.51,1.18,33,.83,36a9.84,9.84,0,0,1-4.06,5.71c-3.85,2.09-126.63,1.13-128.92.72-4-.73-4.47-5.38-4.7-7.86S324.83,45.7,325.05,43.68Z" fill="#f7941f"/><path d="M312.08,40.08c-.85-2.31-3.12-2.1-5.43-2.62-.58-.12-127.84-1.55-131.59.29-3.16,1.55-1.65,48.17-1.48,49.74a4.74,4.74,0,0,0,4.29,3.05c2.11,0,123,.32,126.86.4,7,.13,6.81-3.91,6.92-5.19S312.93,42.39,312.08,40.08Z" fill="#f7941f"/><path d="M158.41,41.84c-.25-1-3.2-4.71-6.43-4.66-1.65,0-123.23-.21-124.89.15-1.28.27-4.13,1.6-4.55,2.21C21.1,41.62,21.1,82.79,21.1,82.79c-.4,4.9,1,6.79,2.42,7.74s131,.59,132.35.25c3.08-.81,3.45-2.75,3.58-4S158.66,42.86,158.41,41.84Z" fill="#f7941f"/><path d="M154.46,39.47c-15.71-3.56-31.6-1-47.46-.14-16.35.92-32.79.52-49.16.55-8.07,0-15.92,0-23.89-1.4-4.94-.86-9.65.9-11.31,6.08-.92,2.87-.05,5.84.09,8.77a98.57,98.57,0,0,1-.35,11.78c-.53,7.57-1,15,.63,22.43.93,4.35,7-2.08,6.25-5.36-1.47-6.85-.88-13.75-.39-20.67.24-3.32.46-6.65.41-10,0-1.5-.1-3-.25-4.5L29,46.6c1.5.84,7.12,1,8.31,1.1,3.51.35,7,.41,10.58.42,7.28,0,14.57,0,21.86,0,13.59,0,27.17.06,40.73-1s27.38-2.47,40.92.59C154.71,48.46,158.49,40.38,154.46,39.47Z" fill="#fff" opacity="0.25"/><path d="M311.09,38.39c-8.11-1.12-16.34-.42-24.5-.19q-11.91.34-23.83.5-24.34.34-48.68-.05c-7.76-.12-15.54-.5-23.31-.44-4.34,0-10.38-.55-13.67,2.86A6.16,6.16,0,0,0,174.4,45a140.38,140.38,0,0,0,.46,42.53c.36,2.23,2.9,1.26,4,.45,5.64-4.11,4.14-11.66,3.82-17.68q-.34-6.62-.7-13.25c-.18-3.41-.75-7.12-.76-10.66,3.29-.48,9.13.1,11.08.14,5.23.11,10.46.26,15.69.35q16.89.3,33.78.25,16.4,0,32.78-.42c11.05-.26,22.46-1.56,33.44-.05C311.44,47.09,315.1,38.94,311.09,38.39Z" fill="#fff" opacity="0.25"/><path d="M457.74,40.17c-3.65.79-7.38.17-11.08,0-4.28-.18-8.57-.14-12.86.07-7.59.38-15.15,1.25-22.76.82-7.76-.43-15.45-1.73-23.21-2.18-7.56-.43-15.15-.49-22.73-.59s-15.28-.12-22.91.25c-5.48.27-11.92-.37-15.2,4.89-3.19,5.11-1.06,12.39-.47,17.9q1.37,12.79,2.74,25.6c.41,3.88,4.33,1.87,5.58-.46,2.79-5.18,3.23-10.45,3-16.25q-.21-5-.69-9.93c-.13-1.42-2-9.74-.19-10.6a5.5,5.5,0,0,0,2.37-2.91c12.6-.62,25.28-.32,37.88,0,13.11.37,26.14,3,39.25,2.55,7.07-.27,14.09-1.06,21.17-1.07,6.13,0,12.57,1.27,18.6-.05C459.49,47.54,462.23,39.18,457.74,40.17Z" fill="#fff" opacity="0.25"/><path d="M465,77.1c-.15-7-.41-13.93-.64-20.9-.15-4.41.44-9.76-.52-14.05-1.64-7.32-9.2-5.46-15.14-5.43-14.39.07-28.79-.38-43.18-.39l-39.24,0c-9.93,0-19.83.06-29.75.62-3,.16-6.76-.21-9.55,1.06s-2.17,2.81-2.37,5.49a.66.66,0,0,0,0,.14c-.7,4.72-.2,9.87-.17,14.6,0,5.38,0,10.79.17,16.16A96.12,96.12,0,0,0,325.52,86c.48,2.84,1.3,4.35,4.12,5,4.68,1.13,10.27.56,15.14.73,23.58.79,47.26.16,70.85-.09l21.71-.22c4.86,0,9.73,0,14.59-.15,3.42-.08,7.88,0,10.83-2.09C466.16,86.84,465.05,80.77,465,77.1Zm-2.21,6.18c-.83,5.49-5.66,5.62-10.13,5.74s-9.19.11-13.78.15q-11.24.1-22.47.21c-20.82.21-41.65.43-62.47.31-4.19,0-8.38,0-12.56-.22-3.36-.15-7.2.42-10.48-.28-4.79-1-4.25-10.45-4.49-14.63-.27-4.75-.24-9.53-.33-14.29-.1-5.33-.91-11.31-.05-16.6h0a.76.76,0,0,0,.06-.18c.28-2.43-.41-3.36,3.32-4.26a17.65,17.65,0,0,1,2.91-.2c3.61-.21,7.21-.36,10.82-.5,8.23-.3,16.47-.22,24.71-.19q14.69,0,29.37.07c9.7,0,19.41,0,29.11.11s19.3.11,28.94.34c2.19.06,3.8-.19,5.3,1.5S462,44.62,462,46.92c0,1.5,0,3,0,4.49.16,5.83.38,11.66.54,17.49C462.67,73.49,463.45,78.71,462.76,83.28Z" fill="#1e1e1e"/><path d="M312.86,45a45.51,45.51,0,0,0-.06-4.67.62.62,0,0,0-.08-.59c-2-3.06-6.16-3.17-9.46-3.21-5.09-.07-10.19-.11-15.28-.16-16.24-.14-32.49-.19-48.73-.26l-39.42-.17c-3.33,0-6.65,0-10,.1-4.35.09-8.8,0-13.13.45-2.55.27-3.09,1-3.78,3.69-1.31,5-.87,10.48-.89,15.64q0,11.74-.09,23.5a51.27,51.27,0,0,0,.4,7.42c.58,4.17,3.48,4.62,7.29,5,4.67.42,9.44.29,14.14.33,26.93.21,54,1.11,80.89.57,8.53-.17,17.06-.54,25.59-.64,5.56-.06,11.88.82,12.35-6.26C313.54,72.21,312.91,58.45,312.86,45Zm-1.6,9.92q-.17,11.47-.4,23c0,2.19-.06,4.39-.14,6.59-.15,3.85-1.64,5.4-6,5.47-7.55.1-15.12.14-22.68.23-25.23.29-50.47-.14-75.7-.32l-16.64-.11-3.76,0c-1.39,0-2.78,0-4.17-.11s-3.76,0-5-.53c-2.36-1.1-2.48-4.14-2.58-6.26-.52-11.73-.16-23.67,0-35.41a23.35,23.35,0,0,1,.9-7.16c.65-1.95.55-1.53,2.65-1.68s3.94-.18,5.91-.24c4.61-.14,9.23-.28,13.84-.28,10.42,0,20.84.07,31.25.11l51.84.18,19.06,0c3.14,0,9.5-.87,11.71,2.09C311.91,45.12,311.33,50.18,311.26,54.89Z" fill="#1e1e1e"/><path d="M160.28,69.18c-.28-7.71-.55-15.42-.91-23.12-.06-1.34-.06-2.71-.23-4.05a.78.78,0,0,0,0-.37c-2.26-7.38-12.31-5.56-18.29-5.64-4.05,0-8.09-.06-12.13-.06l-42.3,0q-19.08,0-38.15,0c-5.41,0-10.83.12-16.24.3-2.77.09-7.24-.19-9.57,1.64-2,1.58-1.69,4.68-1.71,6.94-.13,12.29-.69,24.59-.74,36.88,0,2.38-.38,5.27.42,7.51,1.15,3.25,5.45,2.76,8.33,2.78,4.81,0,9.61,0,14.42.07,25.82.23,51.64.56,77.45.49,7.87,0,15.74.17,23.6-.06,3.71-.11,8.13.28,11.77-.66s4.3-3.52,4.61-6.91C161.08,79.7,160.47,74.36,160.28,69.18Zm-1.41,13.6c-.11,2.81,0,5.74-3.27,7-1.35.52-3.34.25-4.77.3-7.31.28-14.62.19-21.93.16q-36-.17-71.93-.41l-17.89-.14-4.63,0c-2.69,0-10.12,1.24-11.86-1.11-1-1.38-.34-5.19-.34-7.1,0-2.47.07-4.94.11-7.41.12-7.17.26-14.34.38-21.5,0-2.32.11-4.63.12-6.95,0-3.47-.13-6,4.1-7C33,37.24,40.33,38,46.5,38c9.1-.07,18.2,0,27.29,0q24,0,48,0h11.37q5.06,0,10.1,0c4.35,0,12.55-1.17,14.41,4.1a.43.43,0,0,0,0,.07c.71,4.61.34,9.64.47,14.28q.28,10.6.53,21.22C158.78,79.32,158.93,81.07,158.87,82.78Z" fill="#1e1e1e"/><path d="M243.67,54.44c-1.61,1.48-3.26,2.91-4.74,4.53-.76.83.28,2.42,1.28,1.66s2.07-1.68,3.06-2.57c-.1,5.33-.2,10.66-.27,16a1.33,1.33,0,0,0,2.66,0q0-9.37.07-18.76A1.22,1.22,0,0,0,243.67,54.44Z" fill="#fff"/><path d="M87.19,55.44c-1.82,1.41-4.07,1.92-5.74,3.53a1.06,1.06,0,0,0,1.28,1.66c1.3-.79,2.72-1.39,4.06-2.12-.1,5-.21,10-.27,15a1.33,1.33,0,0,0,2.65,0q0-8.62.08-17.26A1.22,1.22,0,0,0,87.19,55.44Z" fill="#fff"/><path d="M395.74,56a1.22,1.22,0,0,0-2.06-.85c-1.69,1.33-3.69,2-5.24,3.52a1.06,1.06,0,0,0,1.28,1.67c1.19-.75,2.42-1.4,3.61-2.11,0,5.34.22,10.68.18,16a1.33,1.33,0,0,0,2.65,0C396.11,68.15,395.7,62.07,395.74,56Z" fill="#fff"/><path d="M128.89,173.16q-.64-12.47-1.31-24.92c-.37-7.08-8.89.2-8.65,4.81q.55,10.45,1.1,20.92c.17,3.21.38,6.41.49,9.62,0,1.46.1,2.94,0,4.4a15.77,15.77,0,0,1-.37,3c-.06.25-.11.44-.15.58-1,.5-3.51.15-4.47.17-2.09,0-4.18,0-6.27,0q-6.78-.13-13.55-.61c-22.76-1.58-45-2.56-67.77.27-4.45.56-8.22,11.56-2,10.79a270.66,270.66,0,0,1,43.26-1.73c11.12.41,22.16,1.83,33.29,2.19a102.08,102.08,0,0,0,14.1-.17c5.86-.63,9.1-4.23,11-9.65C129.76,186.47,129.24,179.71,128.89,173.16Z" opacity="0.15"/><path d="M353.92,145.84c-4.66.19-9.16,11.18-4.12,11-1,0-1.08,15.68-1.14,17.17q-.18,4.29-.38,8.56c-.06,1.27-.12,2.53-.19,3.8,0,.07,0,.86.05,1.73-2.2.2-4.71,0-6.49.21q-3.91.38-7.81.89c-4.64.6-9.28,1.27-13.94,1.71-16,1.54-32,.22-48,.32-16.21.09-32.38-1.09-48.59-1.29-13.61-.18-27.23-.17-40.84-.27q-18.54-.15-37.08-.26c-4.67,0-9.27,11-4.12,11,33.19.15,66.54-.43,99.7,1.12,10.57.49,21.06.66,31.65.68,10.33,0,20.65.85,31,.53a231.49,231.49,0,0,0,23.66-2.11c6.85-.92,14-1,20.77-2.2,10.65-1.89,8.75-16.46,9.11-24.45q.4-9,.73-18.06C358,152.77,358.89,145.64,353.92,145.84Z" opacity="0.15"/><path d="M470.33,146.54c-.43-2.88-3.88-1.78-5.34-.6a8.53,8.53,0,0,0-3,7.75c1.24,8.24-.38,16.24-.45,24.47,0,2.6,1,7.3-.09,9.72-.43,1-.4,1.32-.35,1.43-.12-.07-.54-.2-1.84.07a38,38,0,0,1-5.65.19c-11.35.38-22.68,1-34,.65-8.83-.23-17.66-.42-26.49-.51-6.12-.07-14.73-1.46-20.5,1-2.6,1.14-4.14,4.72-4.24,7.35,0,.1,0,.2,0,.31a3.23,3.23,0,0,0,1.32,2.79l.24.13a3.39,3.39,0,0,0,3.75-.54c.68,0,1.53-.08,1.85-.09,2-.05,4-.06,6.05-.06,5.15,0,10.3.06,15.45.15,8.67.14,17.35.57,26,.56,8.5,0,17-.5,25.53-.78,7.78-.26,14.11.6,18.51-7,3.88-6.67,3-13.81,3.16-21.18C470.42,163.58,471.66,155.39,470.33,146.54Z" opacity="0.15"/><path d="M352,146.21c-.19-1-2.88-4.1-5-4.62-.53-.13-198.23-2.07-206.77,0-4.19,1-4,7.79-4,8.57l-.09,37.61c.16,1.57,2.23,5.87,3.15,6.46,1.68,1.08,202.36,0,205.9.3,6.47.51,6.3-4.4,6.4-5.68S352.23,147.23,352,146.21Z" fill="#f7941f"/><path d="M21.19,191.08a6.24,6.24,0,0,0,4.36,4.22c4.72,1,89.62.4,91.28,0,1.28-.28,3.87-.11,4.57-3.51.36-1.77,1-41.71,1-41.71-.2-1.56-.88-6-5.18-7.8-2.22-.91-89.68-1-91-.68a6,6,0,0,0-4.58,4.52C21.53,147.42,21,190.06,21.19,191.08Z" fill="#f7941f"/><path d="M364.79,149.44c.45-2-1-6.09,3.9-7.09,1.21-.25,90.23-1.2,92.93-.53,4.46,1.11,3.21,8.09,3.07,10.42-.09,1.51.18,31.47-.17,34.51-.16,1.36-.28,7.34-7.4,7.43-8.49.1-87.56.42-89.69-.51s-2.06-4.87-2.29-7.35S364.35,151.42,364.79,149.44Z" fill="#f7941f"/><path d="M74.07,159.79c-1.9,1.13-4.45,2.12-6,3.72a1.07,1.07,0,0,0,1,1.77,15.13,15.13,0,0,0,4.21-2.15c-.32,5-.63,10-.67,15a1.33,1.33,0,0,0,2.66,0c.06-5.76.25-11.5.58-17.25A1.23,1.23,0,0,0,74.07,159.79Z" fill="#fff"/><path d="M418.47,159.94a1.22,1.22,0,0,0-2.06-.86c-1.46,1.2-3.32,1.82-4.74,3-.9.76.1,1.91,1,1.77a8.65,8.65,0,0,0,3.38-1.55c.12,5.29.68,10.56.66,15.86a1.33,1.33,0,0,0,2.65,0C419.3,172.09,418.47,166,418.47,159.94Z" fill="#fff"/><path d="M463,142.72c-23.16-.11-46.32-.14-69.48-.21l-15.67,0c-4.69,0-9.49-.72-11.43,4.61-1.29,3.54-.36,7.57-.33,11.25,0,5-.62,10-1.09,15.06a89.75,89.75,0,0,0-.55,11.36c.07,2.38-.24,6.78,1.91,8.53s5.13.09,6.7-1.88c2.15-2.69,2.2-6.22,2.47-9.5a239.49,239.49,0,0,0,.48-31.24c.6,0,1.19,0,1.75,0l10.81,0,25.92.07q22.71.06,45.42.14C463.38,151,466.83,142.74,463,142.72Z" fill="#fff" opacity="0.25"/><path d="M116.66,143.57C109.05,142.05,101,142,93,142.3c-6.24-.17-12.47-.22-18.65-.16a138.78,138.78,0,0,0-19.52,1.41c-8.71,0-17.42-.16-26.19-.88-2.8-.23-4.78,3.58-4.8,5.92,0,.63,0,1.27,0,1.91a190.63,190.63,0,0,0-1.6,41.21c.19,2.78,2.38,2.54,4,1.32,1.86,2.89,5.8-4,5.85-5.53,0-.76,0-1.52.08-2.28a1.92,1.92,0,0,0-1.55-2.17,20.51,20.51,0,0,1-.47-2.23c.16-3.31,0-6.68,0-10,0-3.65.05-7.29.07-10.94,6.07-4.37,13.38-6.78,21-8.07,8.94,0,17.88-.37,26.88-.73,3.36-.14,6.8-.32,10.27-.46,8.41.19,16.83.52,25.17,1.21C116.91,152.08,120.75,144.39,116.66,143.57ZM30.27,152.3c0-.36,0-.72,0-1.07l1.55.1C31.31,151.65,30.78,152,30.27,152.3Z" fill="#fff" opacity="0.25"/><path d="M20.48,191.28c1.71,5.7,7.05,5.43,12,5.54q8.15.17,16.3.16l32.56,0q14.52,0,29-.34c3.4-.08,9.67.57,11.67-2.86,1.44-2.45.75-7.23.8-10.09.21-10.79.84-21.66.65-32.46-.07-4.18-1.27-8.44-5.69-9.67s-10.11-.65-14.81-.72c-21.82-.33-43.69-.94-65.5-.45-4.59.11-14.27-1.4-16.56,4-1.47,3.5-.68,9.36-.68,13.11,0,7,0,13.92,0,20.87,0,4.19-.4,8.68.2,12.84.13.9,1.49.51,1.37-.38-.45-3.12,0-6.61,0-9.75q.08-8.22.19-16.45c.06-4.43.05-8.87.19-13.3,0-1.13.11-2.2.23-3.34.63-5.82,5.14-5.07,9.49-5.23,19.17-.69,38.43-.14,57.61.13l16.58.24c5.24.07,13-1.39,14.68,4.84.81,2.92.36,6.21.31,9.2q-.14,8.43-.29,16.86c-.07,4.22-.18,8.44-.22,12.66,0,.93,0,1.91,0,2.84-.17,3.94-2.92,4.71-6.29,4.87-9.32.43-18.69.43-28,.48-10.59.05-21.18,0-31.77,0-3.5,0-7,0-10.5,0-5.27,0-19.9,2.28-22.19-4.11C21.59,190,20.2,190.35,20.48,191.28Z" fill="#1e1e1e"/><path d="M365.51,149.63c.43-2.79.16-5.23,3.56-6.39a14.19,14.19,0,0,1,3.69-.13c4.66-.12,9.33-.2,14-.29,8.46-.17,16.91-.35,25.37-.46,13.36-.16,26.72.43,40.08.41a50.21,50.21,0,0,1,7.76.14c4.65.72,3.76,5.64,3.65,9.33-.09,3.14,0,6.29,0,9.43,0,8.34.79,17.15-.24,25.44-.7,5.56-5.23,5.92-9.86,6l-11.84.15c-19.69.23-39.48.92-59.17.23-1.33,0-2.67-.15-4-.21-2.72-.1-7.71.91-10.15-.4-3.13-1.69-2.39-10.43-2.49-13.69q-.27-8.85-.4-17.71c-.06-3.81-.59-8.05,0-11.84.14-.89-1.22-1.27-1.37-.37-1.49,9.13-.27,19.36-.15,28.58.06,4-.16,8.2.49,12.13,1,6.14,6.11,5.4,11.31,5.48q32,.52,64,.1l14-.19c3.6,0,7.63.17,10.07-3,1.88-2.47,1.85-5.78,1.91-8.74.11-5.78,0-11.56,0-17.34,0-4.49-.16-9,0-13.49.09-3.41,1.11-9.76-2.85-11.58-1.95-.89-5.13-.49-7.19-.51-3,0-6,0-9.07,0-8.78-.06-17.55-.32-26.33-.41-11.86-.12-23.76.33-35.63.61-5,.11-10.22-.12-15.2.48-5.15.61-5,3.79-5.43,8.08C364,150.26,365.38,150.46,365.51,149.63Z" fill="#1e1e1e"/><path d="M249,175.89c-3.57.3-7.12.49-10.68.83,2.35-3.07,5.26-5.61,7.76-8.58,1.85-2.2,3.14-4,2.47-7-1.38-6.25-11.43-2.52-14,.77-.61.78.14,2.05,1.13,1.46,2.25-1.34,5.42-3.78,8.23-3,2.15.58,2.42,2.27,1.73,3.87a12.91,12.91,0,0,1-2.6,3.51c-3,3.25-6.27,6.09-8.59,9.91a1.34,1.34,0,0,0,1.15,2A81.14,81.14,0,0,1,249,179C251,179.13,251,175.72,249,175.89Z" fill="#fff"/><path d="M346.78,142.43c-10-1-20.24-.13-30.22.25-16.68.63-33.36,1.25-50.05,1.39-31.43.25-62.86.13-94.29,0-5.86,0-11.72-.07-17.59-.08,0,0,0-.08-.07-.12-3.34-3.86-7.34-3.31-10.68-.95a16.06,16.06,0,0,0-3.25,1.51c-1.2.71-4,5.26-3,7.07-.1.3-.19.59-.26.88-1.31,5.32-.45,11.1-.18,16.5.05,1.08.11,2.16.16,3.23a52,52,0,0,0,1,18.17c1.05,4.48,6.49-2,6.36-4.49q-.42-8.52-.85-17a40,40,0,0,1,6.33-16.59c52.44-.28,104.85,1,157.27-1,12-.46,24.33-1.69,36.29-.48C347.16,151,350.76,142.83,346.78,142.43Zm-203.61,11a8.67,8.67,0,0,1,.11-1.25h.58C143.63,152.64,143.39,153.06,143.17,153.48Z" fill="#fff" opacity="0.25"/><path d="M352.76,146.41a.61.61,0,0,0,0-.4c-2-5-5.76-5.31-10.17-5.37-6.43-.08-12.87-.09-19.3-.13-22.1-.14-44.2-.18-66.3-.24-33.54-.1-67.13.4-100.67-.28-5.27-.1-13.2-1.66-17.89,1.51-3.46,2.33-3.39,6.31-3.31,10,.22,10.32-.06,20.66-.11,31,0,3.1-.7,8.35.92,10.91,2.19,3.47,9,2.65,12.49,2.7,6.39.08,12.78.09,19.17.12,36.15.23,72.31.74,108.45.23,21.73-.3,43.47-.84,65.21-.94,2.74,0,6.39.63,8.75-.93s2.5-4.34,2.57-6.9c.28-10.75.22-21.51.24-32.26A89.46,89.46,0,0,0,352.76,146.41ZM351.08,172c-.08,4.84-.15,9.68-.26,14.52-.1,4.21-.44,6.77-5.85,7.08-7.21.41-14.59,0-21.82,0q-17.52.12-35,.36c-33.15.43-66.29.2-99.45,0l-29.37-.17c-5.64,0-11.49.29-17.1-.32-4.09-.45-4.83-3.52-5-7.17-.05-1.54,0-3.09,0-4.63q0-8.07,0-16.14c0-4.57.06-9.14,0-13.71,0-.78-.07-1.58-.07-2.36,0-6.12,4-7.32,9.22-7.57,10.67-.5,21.66.19,32.34.21q30.38,0,60.74.12l66.88.13,25.44,0c4.51,0,9.29-.45,13.77,0a6.66,6.66,0,0,1,5.75,4.06C352.22,154.8,351.21,163.7,351.08,172Z" fill="#1e1e1e"/><path d="M479.82,32.57c-1-5-5.52-7.66-10.32-7.86-5.69-.24-11.42,0-17.12,0-25.56-.06-51.13,0-76.7,0l-140.43,0q-68.55,0-137.09,0c-21.21,0-42.42.12-63.63.07-6.84,0-13.67,0-20.5.37-5.69.32-7.21,1.4-7.56,7.22a.44.44,0,0,0,0,.16c-.82,8.93-.31,18.17-.39,27.13-.07,8.3-.19,16.6-.19,24.9,0,4.47-1.06,11.91,1.84,15.74,1.52,2,4.24,2.1,6.55,2.47,5.35.87,10.52.38,15.91.29,1.61,0,3.21,0,4.81,0q42.93.07,85.86.21,72.33.19,144.68.14,68.07,0,136.16.07c21.06,0,42.39,1,63.44,0,6.51-.31,13.48-2.53,14.39-9.63a122.12,122.12,0,0,0,.64-14.82q.07-16.29.16-32.58C480.37,42,480.67,37,479.82,32.57ZM473.87,99c-2.71,1.82-6.4,2.2-9.61,2.29-2.51.07-5,0-7.54,0H421.67q-61.62,0-123.23-.06-72,0-144.06-.06-52.45,0-104.91.14c-6.32,0-12.66-.08-19,0l-2.11.08c-5.11.22-13,1.55-17.75-1C6.2,98,7.56,88.51,7.54,84.17c0-9,.06-18,.1-27,0-8.12-.47-16.49.26-24.59a.75.75,0,0,0,0-.16c.2-2.67,1.42-4.76,3.94-5.47,1.44-.4,3.41-.15,4.93-.19,4.93-.15,9.86-.16,14.79-.11l3.75,0h7.51l35.23.05q61.72.06,123.45,0l141.91,0q48.77,0,97.52,0c6.62,0,13.25.07,19.87,0a77.85,77.85,0,0,1,9.54,0,7.84,7.84,0,0,1,4,1.45c3.8,2.5,3.32,6.21,3.5,10.1.16,3.38.28,6.65.26,10q-.09,15.93-.2,31.84C477.9,86.23,479.1,95.5,473.87,99Z" fill="#1e1e1e"/><path d="M480.15,185q-.51-16.48-1-33c-.12-3.84-.08-7.58,0-11.42,0-2.7.19-6.53-2-8.53-1.68-1.52-5.17-1.89-7.27-2.32-6.47-1.35-13.24-.56-19.83-.58-25.45,0-50.9,0-76.35,0q-69.86,0-139.71,0l-135.52,0c-20.77,0-41.55.1-62.32.06-7.7,0-16-.83-23.62.89-7.19,1.63-5.39,7.57-5.79,13.79a.86.86,0,0,0,0,.24c.15,16.69-.38,33.48.64,50.13.2,3.15-1.06,10,2.21,11.74,4.5,2.44,12.18,1.54,17.08,1.55,8,0,16-.12,24,0,25.15.42,50.35,0,75.51,0q70,0,140.08-.21,68.19-.12,136.4-.28,32.22-.07,64.43-.19c5.71,0,12.05.68,12.56-6.42A150.11,150.11,0,0,0,480.15,185Zm-2.51,10.4c-.25,3.88.3,8.68-4.6,9.32a56.87,56.87,0,0,1-6.91,0c-2.66,0-5.32,0-8,0l-35.87.09-123.63.25-141.1.31q-48.23.1-96.46.35c-9.54,0-19.1-.32-28.61,0a108.55,108.55,0,0,1-18.74-.47c-3.41-.47-4.12-.71-4.34-4.16s-.46-6.81-.66-10.21c-.46-7.89-.27-15.85-.36-23.75q-.14-11.57-.27-23.11a.45.45,0,0,0,0-.11c.38-4.77-.74-11.26,5.42-12.22,5.62-.88,11.45-.67,17.13-.64l6.1,0h7.28q17.34,0,34.69,0,61.23,0,122.44,0l140.56,0,97,0c8,0,16.08-.1,24.12-.09A28.32,28.32,0,0,1,473,132.73c5.33,2.1,3.71,8.15,3.73,12.88,0,3.18.19,6.36.29,9.53q.47,15.77.93,31.53c0,.9.1,1.8.08,2.69C478,191.35,477.77,193.37,477.64,195.35Z" fill="#1e1e1e"/></g></svg>