<svg xmlns="http://www.w3.org/2000/svg" viewBox="0 0 566 225"><title>02-items</title><g id="f5310eed-ef69-4366-b1f5-cce8e56923d1" data-name="Layer 10"><path d="M119.1,215.64c35.6-1.1,70.84-4.79,106.3-7.56q115.18,6.51,230.63,7c1,0,1.78-2.65,2.2-6.21q20.52,1.74,41,4.06c8,.91,18.23,4,26.18,2.34,6-1.29,6.93-5.79,7.35-11,.26-3.31,2.18-16.58-2-18.53-.7-.33-1.41-.63-2.12-.95.81-6.5.4-16.22-1.56-18.26,2.1-.31,4.17-.69,6.21-1.16,3.55-.82,3.51-18.69,1-23.53,1.23-6.85,1.68-19.59-1.77-20.19l-1.16-.2a11.62,11.62,0,0,0,3-5.4C536.17,108.44,537,97,532,89.9c1.67-6.17,1.38-21.15-1.65-22L521,65.31c-.23-.07-.65,1.22-1.09,3.23-66.13,3.79-132.19,2.52-198.38,0-70-2.63-140.17-5.65-210.19-1.38-18.8,1.15-18.27,2.71-37,4.32-13.37,1.16-28.84-3.92-37.54,6.76-2.7,3.33-2.85,28,1.09,30.43a47.52,47.52,0,0,0,10.24,5.12c-2.52-.16-4.1-1.06-12.79-.34-3.53.3-3.83,27.47-.39,27.69l.91,0c-1.92,2.29-4.2,15.23-2.74,21.22-1.63,3.83-1.7,8.39-1.81,12.39-.12,4.63-.14,10.26,1.38,15.09a29,29,0,0,0-1.44,2.84c-1.06,2.44-2.73,22.87,1.16,22.94C67.72,216.42,83.77,216.73,119.1,215.64Zm126.27-49.37,14.61,0c0,.12-.05.24-.07.37C255.06,166.56,250.21,166.41,245.37,166.27Zm-197.92.86a16.91,16.91,0,0,0-1.16,2,20,20,0,0,1-3.37-2.51C44.43,166.82,45.94,167,47.45,167.13Z" fill="#995db5"/><path d="M523.5,70.22c-16.28,2.19-33.09,1.5-49.48,1.39-11.34-.07-22.69,0-34-.09-28.34-.11-56.67-.34-85-.5-26.44-.16-52.88-.37-79.32-.14-29.31.26-58.56,1.69-87.89,1.37-48-.53-96-2.42-144.09-2.44-4.43,0-8.31,5.7-8,9.86,3.32,42-1,84.1,1.41,126.08.18,3.25,2.61,4.62,5.51,3.19a10.87,10.87,0,0,0,5.3-9.19c-2.23-38.68,1.26-77.51-.77-116.18,40.38.19,80.74,1.5,121.11,2.19,32.26.56,64.39-.64,96.63-1.09,54.35-.76,108.75.29,163.11.54,12.33.06,24.66,0,37,.1,18.57.12,37.52.87,56-1.6C526.51,83,531.21,69.18,523.5,70.22Z" opacity="0.2"/><path d="M518.41,156.79c-.24-18.61.11-37.23,0-55.85,0-3.3-2.73-4.56-5.51-3.18-3.12,1.54-5.34,5.78-5.31,9.18.14,16.4-.06,32.8,0,49.2,0,8.28.72,16.4,1.24,24.66.14,2.2.23,4.4.18,6.6a25,25,0,0,1-.36,2.64l-.1,0a12.72,12.72,0,0,1-4,1c-3.87.21-7.87-.41-11.78-.28-4.26.13-8.5.5-12.74.89a130,130,0,0,1-24.32-.14c-16.11-1.47-32.37-1.47-48.54-1.89-5.84-.15-11.64,13.56-5.16,13.72,18.05.47,36,1,54,2.37,9.4.71,18.42-.51,27.78-1.05,8.2-.48,16.57,1.35,24.29-2,8-3.43,10.94-9.3,11.51-17.65C520.23,175.59,518.52,166.24,518.41,156.79Z" opacity="0.15"/><path d="M382.85,165.33c-.58-7.2-.46-14.43-.46-21.65,0-14.25.13-28.49,0-42.74,0-3.3-2.72-4.56-5.51-3.18-3.12,1.54-5.33,5.78-5.3,9.18.19,23.66-.9,47.43,1,71,.23,2.83.44,5.66.41,8.5,0,1-.06,2-.12,3a13.79,13.79,0,0,1-3.37,1.46,24.73,24.73,0,0,1-4.3-.07c-7.37-.35-14.77-.15-22.14.05-12.51.33-23.37,1.52-35.19,1.46-14.58-.07-29.15-.66-43.72-1.2-18.92-.7-37.86-1.06-56.79-1.54-5.84-.15-11.64,13.56-5.16,13.72,33.63.85,67.34,2.62,101,2.74,13.1,0,26.19-1.31,39.31-1.57,7.15-.14,14.35.44,21.48.26a23.64,23.64,0,0,0,12.09-4.22c5-3.4,7-8,7.41-13.9C384.06,179.48,383.42,172.51,382.85,165.33Zm-8.23,23.57a1.24,1.24,0,0,1,.27,0Z" opacity="0.15"/><path d="M183.16,179.51c-.08-8.23-1.35-16.4-1.4-24.64-.13-18,.12-35.95,0-53.93,0-3.3-2.72-4.56-5.51-3.18-3.12,1.54-5.33,5.78-5.3,9.18.15,18.3-.17,36.59,0,54.89.1,9.32,1.81,18.62,1.27,27.94a15.57,15.57,0,0,1-3.36,1.18c-2.67.36-5.44-.34-8.16-.16-5.33.34-10.42,1.61-15.83,1.6-7.27,0-14.53-.57-21.78-1-17-1.15-34-1.26-51.06-1.69-5.84-.15-11.64,13.56-5.16,13.72,15.16.39,30.38.39,45.52,1.32,11.84.73,23.9,2.23,35.75,1,4.36-.44,8.14-1.37,12.51-1.08a23.38,23.38,0,0,0,16.14-5C183,194.63,183.23,186.89,183.16,179.51Z" opacity="0.15"/><path d="M58.56,97c.23-2,4.43-6,6.8-6.1,1.51,0,97.18-.71,103.19.72,1.24.3,4.25,4.21,4.45,5.23s.78,89.21.61,92.25c-.08,1.36-2.17,6.55-11,6.42-4.28-.06-90.68,1.06-94.8,1.08-6.08,0-9.26-6.45-9.37-8.93S58.34,99,58.56,97Z" fill="#f7941f"/><path d="M374.39,97c-.22-2-5.19-5.76-6.73-5.81-4.36-.16-160.6-.23-164.79-.1-1.8.06-6.72,2.42-7.25,3.32-1.29,2.15-1.23,4.56-1.16,6.89,0,1.51-.6,84.76-.42,87.8.08,1.36,4.49,6.64,8.08,6.73,4.28.1,150,.85,152.5.92,4.19.12,14.78-1,16-1.67,2.78-1.57,3.76-4.93,3.88-7.41S374.61,99,374.39,97Z" fill="#f7941f"/><path d="M503.83,90.47c2,.22,5.1,3.32,6.11,5.8.25.61.37,92.26-.33,93.77-.53,1.16-2.29,4.86-3.18,5.39-2.16,1.29-104.54,2.38-105.69,1.32-2.1-1.94-5.35-7.1-5.43-10.69-.1-4.28-1.82-81.48-1.07-85.53a37.71,37.71,0,0,1,2.08-6.9c1.56-2.79,4.36-3.12,6.84-3.24S501.85,90.25,503.83,90.47Z" fill="#f7941f"/><path d="M507.22,92.12c-18,1.22-35.76,1.91-53.76.67-9.17-.63-18.34-1.46-27.54-1.76-4.26-.13-8.52-.16-12.77,0-3.56.13-7.74-.15-11,1.37-7.22,3.3-8.37,11.81-5.54,18.28.1.23.19.48.29.72a9.92,9.92,0,0,0-.18,1.6c-.48,13.6-1.49,27.31-1.26,40.93.11,6.94,1.52,13.77,1.54,20.72,0,6.14-.52,12.1,1.49,18,1.75,5.18,7.58.71,9.1-2.23,3.5-6.78,2.6-13.58,3.18-20.94.66-8.44,1.68-16.79,1.75-25.27a180.9,180.9,0,0,0-1.58-24.94c-.5-3.78-1-7.62-1.85-11.35-.26-1.13-.55-2.26-.9-3.37,1.66,0,3.3.06,4.75,0,3.93,0,7.86.09,11.79.27,8.87.42,17.71,1.23,26.57,1.8,17,1.08,33.84.28,50.8-.87,3.52-.24,6.17-3.22,7.33-6.42C510.06,97.59,510.8,91.88,507.22,92.12Z" fill="#fff" opacity="0.25"/><path d="M368.24,94.41c-2.95-2.85-8.51-2.27-12.3-2.53q-7.83-.52-15.67-.7c-10.47-.24-20.93,0-31.38.67a6.86,6.86,0,0,0-2.89.87c-6.45-.51-12.92-1-19.38-1.28-23.3-1.19-46.67-.91-69.81,2-1.32-.21-2.64-.4-4-.56-4.77-.59-9.14-1.12-12.91,2.4s-4.54,8-4.34,12.85c.24,5.94.49,11.88.64,17.82q.4,16.83.13,33.67c-.17,10.48-1.3,21.34,2.28,31.41,2.57,7.24,12.3-3.63,10.41-8.95-2.19-6.15-2.24-12.37-2.09-18.82.16-7.18.31-14.35.33-21.53s-.07-14.52-.25-21.78q-.12-5-.31-9.91c0-.63-.08-1.32-.15-2,1.82-.27,3.63-.54,5.45-.78,3.56.57,7.07,1.31,10.57,2.18,2.07.51,4.43-1.37,6.09-3.9,33.31-2.52,66.87.1,100.08,3.52,9.38,1,19.45,3.19,28.88,1.92,4.35-.59,8-2.13,10.35-6C369.88,101.83,371.16,97.23,368.24,94.41Z" fill="#fff" opacity="0.25"/><path d="M169.06,96c.15-2-.66-3.59-2.95-3.88-19.07-2.38-38.22,1-57.33.56-9.81-.25-19.62-1-29.44-.77-4.19.12-10.06-.37-13.84,1.78-3.59,2-5.34,6.21-5.78,10.11-1.09,9.59-.9,19.5-1.32,29.14s-.78,19.29-.63,28.94c.13,8.27,0,17.39,2.36,25.38,1.68,5.62,6.67,13.82,13,8.16,2.6-2.33,4.52-6.14,3.73-9.69,0-.2-.09-.39-.13-.59-.51-2.25-2.32-2.57-4.06-2.09-1.17-1.42-2.05-4.44-2.31-5.4a49.57,49.57,0,0,1-1.23-9.25c-.55-7.7-.64-15.42-.51-23.13s.49-15.46.83-23.18c.16-3.59.31-7.17.47-10.75.09-2,.17-3.91.26-5.87v0c6.15-.63,13,.18,18.73.4,8.16.31,16.32.79,24.49.62,3.59-.08,7.18-.26,10.77-.46a2.68,2.68,0,0,0,.72.09l15.49-.1a119.87,119.87,0,0,1,23,3.58C168.75,110.89,174.92,98.22,169.06,96Z" fill="#fff" opacity="0.25"/><path d="M174.77,149.32c-.21-13.94-.53-27.88-.65-41.83,0-5.4,1.8-13.55-4.29-16.38-2.19-1-4.94-.85-7.29-.93-3.59-.12-7.19-.29-10.79-.34-1.12,0-2.25,0-3.37,0l-45.12,0H80.12c-5.49,0-13.07-1.15-18.22,1.24s-4,7.24-4,11.84a.74.74,0,0,0,0,.17c-.15,25-.57,50-.84,75-.06,5.48-1.3,14.18,4.09,17.41,5.07,3,13.4,2.56,19.05,2.32,4.48-.19,8.85,0,13.31.1,14.14.31,28.39-.47,42.53-.71L149.8,197c6.14-.12,13.39.7,19.35-1,5.43-1.54,5.5-5.5,5.8-10.51C175.64,173.44,175,161.34,174.77,149.32Zm-2,34.3c-.1,1.6.16,3.94-.32,5.47-1.58,5-4.42,5-8.26,5.24-4.16.29-8.39.21-12.56.3-3.72.08-7.43.14-11.14.2q-21.3.34-42.61.72c-6.54.11-13-.09-19.57.06a50.64,50.64,0,0,1-12.17-.91c-5.07-1.15-6.35-3.93-6.65-8.87q-.23-3.54-.26-7.08c-.19-25.22-.09-50.46.06-75.67a.7.7,0,0,0,0-.14c.23-4.67-.77-9.15,5.23-10.7,3.64-.93,8.07-.46,11.79-.45,2.36,0,4.71,0,7.07.06,5,0,9.93,0,14.89,0l44.17,0c3.09,0,6.18,0,9.27,0,6.44.1,19.32-1.9,20.36,6.56.33,2.68-.12,5.48-.12,8.18,0,11.74.33,23.5.49,35.24.17,12.23.53,24.48.5,36.71C173,180.28,172.9,181.93,172.8,183.62Z" fill="#1e1e1e"/><path d="M375.81,178.75c0-3.2-.06-6.39-.1-9.58q-.3-30.64-.61-61.29c0-1.59,0-3.18-.05-4.77a.74.74,0,0,0,0-.17c-.11-6.77.06-11.78-8-12.74-5.58-.66-11.32-.31-16.93-.31l-16.2,0q-32.72,0-65.43,0H218c-2.5,0-5,.09-7.49.17-6.36.2-15.12-1.18-16.88,6.8-.77,3.54-.05,7.4-.11,11q-.08,5.17-.16,10.33-.45,29.72-.92,59.43c-.07,4.2-.3,8.83.62,12.87,1.59,7.06,10.19,6.16,15.9,6.27q10.26.2,20.49.31c36.22.36,72.42.77,108.62.51,5.53,0,11,.2,16.57.31,5.93.11,17.63.75,20.25-6.15C376.36,187.82,375.82,182.89,375.81,178.75Zm-2,1.6c-.06,2.42-.17,4.89-.37,7.31-.35,4.21-2.7,6.23-6.63,7.07-5.17,1.1-10.51,1-15.75.77-14.06-.53-28.12.17-42.18,0l-60.94-.6-23.43-.22-4.11,0-8.48-.17c-5.56-.1-14.54,1.44-16.73-5.42-1.06-3.31-.56-7.72-.51-11.31l.12-9.4q.21-15.7.44-31.42.19-13.26.38-26.53c0-1.53.07-3.07.06-4.6,0-5.57-1.3-12.75,6.28-13.44,4.59-.42,9.33-.39,13.94-.46,11.62-.17,23.25,0,34.87,0,33.4,0,66.79.12,100.19-.08,4.06,0,8.12-.11,12.19,0,3.08.08,5.5.06,8,1.92,3.23,2.39,2.29,5.66,2.45,9.18a.58.58,0,0,0,0,.14c.1,15.65.07,31.29.1,46.94q0,13.06,0,26.14C373.78,177.55,373.82,179,373.79,180.35Z" fill="#1e1e1e"/><path d="M511,117.22c0-1.42,0-2.84,0-4.26,0-5.81,1.29-13.69-1.24-19.16-2.33-5-7.23-4-11.84-4a.47.47,0,0,0-.17,0c-26.24-.14-52.47-.65-78.71-.83-3.45,0-6.9-.11-10.35,0-4.56.2-10.59-.5-13.31,4-3.19,5.33-2.56,14.08-2.27,20,.68,14,.19,28.39.46,42.49.11,5.8.21,11.6.34,17.39s-.14,11.48.56,17.09c.61,4.83,2.34,7.6,7.3,8.14,11.89,1.3,24.18.3,36.1.14l48-.66c3.55-.05,7.1-.16,10.65-.07,4.2.1,9.57.82,12.47-3,1.31-1.74,1.46-4,1.57-6.09.23-4.11.31-8.24.4-12.36.25-12.65,0-25.33,0-38Q511,127.65,511,117.22ZM509,108.28c0,2.54-.06,5.09-.06,7.63l0,16.91q0,20.18,0,40.34c0,1.87-.06,3.73-.12,5.61-.11,3.43,0,6.92-.34,10.34-.65,7-6.62,6.47-11.94,6.35-2.93-.07-5.86,0-8.79,0l-42.21.52c-11.3.13-22.62.51-33.92.39a46.69,46.69,0,0,1-8-.42c-7.08-1.34-7-6.06-7.16-11.76-.09-3.68-.18-7.35-.25-11-.09-4.21-.16-8.42-.24-12.64-.23-12.63-1.35-25.59-.72-38.21.21-4.07.12-8,0-12.11a50.09,50.09,0,0,1,.91-12.16c1.54-6.84,6.69-6.57,12.52-6.82,3-.13,5.9-.07,8.86-.06,26.75.12,53.49-.12,80.23,0l.14,0c4.67.23,9.16-.77,10.7,5.22C509.52,100.12,509,104.55,509,108.28Z" fill="#1e1e1e"/><path d="M531.47,185.35q-.22-16.95-.47-33.91c-.3-21.35-1-42.74-.87-64.08,0-5.8,1.55-13.42-5-16.31-4.28-1.88-9.84-1.13-14.39-1.25-3-.08-6-.21-9.05-.24-2.29,0-4.58,0-6.87,0H454.67l-146.95,0-160,0c-26.88,0-53.76.13-80.63.07-6.18,0-12.38-.18-18.56.17-3.38.19-7.41.38-10.07,2.75-3.39,3-2.25,7.14-2.37,11.16a1.08,1.08,0,0,0,0,.19c-.1,19.06-.27,38.13-.41,57.2q-.14,19-.28,38c0,7.59-.78,16,.53,23.46,1.48,8.41,12.27,8.29,19,8.67,8.55.49,17.19-.05,25.76.2,2.44.07,4.89,0,7.34,0l42.07,0q74.9-.06,149.8-.33,77.81-.18,155.61-.39l49.35-.13,12.15,0c8.76,0,18.19.83,26.73-1s7.62-10.11,7.8-17.47C531.62,189.82,531.5,187.58,531.47,185.35Zm-2.16,6.76c-.06,2-.27,4-.41,6-.31,4.53-1,8.09-5.74,9.21-6.38,1.5-13.71.75-20.22.88-2.77.05-5.52.07-8.29.08l-36.52.09-140.83.34-156,.42c-26.72.08-53.64,1.18-80.36.31-5.38-.17-10.61-.34-16-.11a90.14,90.14,0,0,1-18.57-.87c-3.42-.55-7.14-1.39-8.39-5.09-1.07-3.19-.78-7.44-.86-10.81-.13-5.66,0-11.34.06-17q.15-37.77.28-75.55c0-5.37,0-10.75.06-16.12a.7.7,0,0,0,0-.14c.17-3.85-.91-8.3,3-10.68,2.65-1.6,6.36-1.42,9.39-1.51,5.59-.16,11.19-.06,16.79,0H78.5q21.9,0,43.8,0l147,.05,154.32,0c25.91,0,51.85-.26,77.76,0,5.49.07,11,.2,16.5.44,5.88.27,10.12,1.87,10.3,8.3.06,2.16-.21,4.33-.22,6.48,0,.58,0,1.15,0,1.72.06,8.62.23,17.24.34,25.86q.46,36,.92,72.11C529.26,188.44,529.36,190.28,529.31,192.11Z" fill="#1e1e1e"/><path d="M61.46,42.84c-.09-2.07,0-4.27-.72-6.22-.27-.73-1.44-.89-1.64,0-.46,2-.12,4.15,0,6.22.1,2.33.16,4.66.2,7a1.2,1.2,0,0,0,2.4,0C61.63,47.5,61.57,45.17,61.46,42.84Z" fill="#f7941f"/><path d="M70.76,48.27c-1.77,2.27-2.13-5-2.14-5.06,0-1.12,0-2.25,0-3.37,0-.64,0-1.27,0-1.91a17.64,17.64,0,0,1,2.54.22c1.93.35,2.08-2.66.34-2.5a27.64,27.64,0,0,1-2.88,0c0-1.09,0-2.18-.12-3.27a.94.94,0,0,0-1.88,0c-.15,1.1-.23,2.2-.3,3.3a4.18,4.18,0,0,0-2.55.74.68.68,0,0,0,.14,1.07,4.42,4.42,0,0,0,2.32.38c0,1.32,0,2.64,0,4,0,2.19-.22,4.85.65,6.9,1.06,2.47,3.8,3.35,5.72,1.31C73.7,48.85,71.75,47,70.76,48.27Z" fill="#f7941f"/><path d="M88.14,43.33a1.21,1.21,0,0,0,1-1.79c-.69-1.6-1.21-3.72-2.7-4.76a7.49,7.49,0,0,0-4.68-.89c-3.46.21-6.46,2.1-7.22,5.63a7.6,7.6,0,0,0,3.55,8c3.15,2,6.89,1.41,10-.41,1.5-.88,0-3.29-1.34-2.29A6.84,6.84,0,0,1,80.27,48a5.62,5.62,0,0,1-3.5-3.93A64.3,64.3,0,0,0,88.14,43.33Zm-5.51-5.09c2.32.18,3.09,1.33,3.8,2.91-3.21.31-6.49.39-9.66.86C77.37,39.37,80,38,82.63,38.24Z" fill="#f7941f"/><path d="M114.26,39.85c-.06-1.54-.19-3.39-1.71-4.23-2.46-1.35-6.07.27-8.25,2.34a3,3,0,0,0-1.2-2c-2.56-1.71-5.78-.07-7.74,2.09a5.64,5.64,0,0,0-.44-1.47.66.66,0,0,0-1.14,0c-.88,1.79-.61,3.83-.65,5.79,0,2.48-.17,5-.08,7.45a1.13,1.13,0,0,0,2.26,0c.15-2.47.1-5,.12-7.45,0-.62,0-1.24,0-1.86a7.29,7.29,0,0,1,4-2.63c2.56-.64,2.67.45,2.68,2.58,0,3.16.06,6.37-.15,9.52-.11,1.63,2.64,1.64,2.54,0-.17-3,0-6.06-.07-9.08V40.4a8.61,8.61,0,0,1,3.31-2.11,6.36,6.36,0,0,1,2-.46c1.29,0,1.67.33,2,1.51a18.72,18.72,0,0,1,0,4.55c0,1.85-.13,3.7-.25,5.55s2.61,1.73,2.7,0A95.88,95.88,0,0,0,114.26,39.85Z" fill="#f7941f"/><path d="M129,37.23c-2.15-4.34-11.75-3.31-11.77,2.08,0,2.45,2.23,4,4.35,4.63,1.36.37,4.23.09,5.28,1.12,2.7,2.63-1.41,3.8-2.87,4.06-1.84.34-3.64.06-4.69-1.74A1.3,1.3,0,0,0,117,48.69c1.73,3,4.06,3.57,7.46,3,2.51-.41,6.05-2,6.27-5,.21-2.76-2.76-4.28-5-4.7-1.6-.3-5.12,0-5.92-1.92s1.32-2.69,2.63-3a4.8,4.8,0,0,1,4.84,1.43c.87.94,2.22-.26,1.7-1.32Z" fill="#f7941f"/><path d="M159.42,78.06l-3.95,2.62c6.19-15.35,2.24-37.77-18.05-37.63a1,1,0,0,0-.26,1.89c6.53,1.45,12.54,2.94,16,9.28,4.17,7.62,3.28,16.92.24,24.77a14.15,14.15,0,0,0-2.22-3.48.94.94,0,0,0-1.56.92c.66,2.43,2.14,4.74,3.1,7.08a1.24,1.24,0,0,0,1.8.73c2.05-1.33,4.09-2.69,6.13-4C162,79.33,160.75,77.18,159.42,78.06Z" fill="#f7941f"/><path d="M261.39,76.8a27.2,27.2,0,0,0-2.82,2.86C257.43,68.56,255,57.9,247,49.55c-7.72-8-18.3-12.83-28.71-16.31a100.39,100.39,0,0,0-39.45-4.41c-14.31,1.26-28.27,5.7-41.92,9.93a1,1,0,0,0,.52,1.89c12.06-3,23.86-7.09,36.2-8.85,12.68-1.81,27.23-1.13,39.55,2.46,10.2,3,20.56,7.24,28.74,14.17,9.66,8.18,13.13,19.67,14,31.87a13,13,0,0,0-3.81-2.36c-1-.34-1.43.9-.9,1.55,1.44,1.76,3.61,3.05,5.32,4.58a1.25,1.25,0,0,0,1.92-.25,39.92,39.92,0,0,1,4.73-5.25C264.34,77.46,262.59,75.75,261.39,76.8Z" fill="#f7941f"/><path d="M455.75,76.48a18,18,0,0,0-2.39,3c-3.59-18.59-19.55-31.06-35-40.2-19.86-11.76-42.52-18.27-65-22.85-45.78-9.33-93.24-9.35-139.33-2.31-26.43,4-52.88,10.21-77.9,19.7-1.14.43-.69,2.25.52,1.86,43.25-14,87.49-22.82,133.06-23.77a382.48,382.48,0,0,1,69,4.63c22.39,3.62,45,9,65.68,18.58,19,8.82,41.67,22.8,46.07,44.92a17.22,17.22,0,0,0-4.87-3c-1-.36-1.63,1.2-.72,1.69a37.25,37.25,0,0,1,6.91,5.57,1.27,1.27,0,0,0,2-.26,21.59,21.59,0,0,1,3.74-5.71C458.64,77.06,456.92,75.31,455.75,76.48Z" fill="#f7941f"/><path d="M60.14,30.61A1.55,1.55,0,0,0,58,32.43a1.24,1.24,0,0,0,1.28.9,1.31,1.31,0,0,0,.85-.11A1.51,1.51,0,0,0,60.14,30.61Z" fill="#f7941f"/></g></svg>